<?xml version="1.0" encoding="UTF-8" standalone="no"?>
<svg xmlns:xlink="http://www.w3.org/1999/xlink" height="165.5px" width="187.05px" xmlns="http://www.w3.org/2000/svg">
  <g transform="matrix(1.0, 0.0, 0.0, 1.0, 93.5, 82.75)">
    <path d="M-93.5 14.35 L-93.5 -82.75 93.55 -82.75 93.55 -11.1 Q41.45 -48.0 -16.85 2.55 -50.15 -37.5 -93.5 14.35" fill="#66ccff" fill-rule="evenodd" stroke="none"/>
    <path d="M-93.5 43.65 L-93.5 14.35 Q-50.15 -37.5 -16.85 2.55 -43.15 21.1 -57.1 39.65 L-93.5 43.65" fill="#009900" fill-rule="evenodd" stroke="none"/>
    <path d="M93.55 -11.1 L93.55 42.8 Q19.85 33.0 -57.1 39.65 -43.15 21.1 -16.85 2.55 41.45 -48.0 93.55 -11.1" fill="#3dc102" fill-rule="evenodd" stroke="none"/>
    <path d="M93.55 42.8 L93.55 82.75 -93.5 82.75 -93.5 43.65 -57.1 39.65 Q19.85 33.0 93.55 42.8" fill="#936231" fill-rule="evenodd" stroke="none"/>
    <path d="M57.15 -49.35 Q66.9 -49.35 73.75 -47.45 80.65 -45.55 80.65 -42.85 80.65 -40.15 73.75 -38.25 66.9 -36.35 57.15 -36.35 47.4 -36.35 40.5 -38.25 33.65 -40.15 33.65 -42.85 33.65 -45.55 40.5 -47.45 47.4 -49.35 57.15 -49.35" fill="#b9e9ff" fill-rule="evenodd" stroke="none"/>
    <path d="M-10.4 -54.15 Q-3.35 -51.95 -3.35 -48.85 -3.35 -45.75 -10.4 -43.55 -17.4 -41.35 -27.35 -41.35 -37.3 -41.35 -44.35 -43.55 -47.15 -44.4 -48.8 -45.45 L-52.85 -45.35 Q-65.05 -45.35 -73.7 -48.45 -82.35 -51.5 -82.35 -55.85 -82.35 -60.2 -73.7 -63.3 -65.05 -66.35 -52.85 -66.35 -40.65 -66.35 -32.0 -63.3 -23.75 -60.35 -23.35 -56.25 -15.95 -55.9 -10.4 -54.15" fill="#b9e9ff" fill-rule="evenodd" stroke="none"/>
  </g>
</svg>
