<?xml version="1.0" encoding="UTF-8" standalone="no"?>
<svg xmlns:xlink="http://www.w3.org/1999/xlink" height="72.0px" width="80.0px" xmlns="http://www.w3.org/2000/svg">
  <g transform="matrix(1.0, 0.0, 0.0, 1.0, 40.0, 36.0)">
    <path d="M40.0 36.0 L-40.0 36.0 -40.0 -36.0 40.0 -36.0 40.0 36.0" fill="#ffffff" fill-rule="evenodd" stroke="none"/>
    <path d="M-18.75 -2.2 Q-18.75 -8.65 -13.6 -12.95 -9.9 -16.1 -5.1 -16.8 L-1.25 -17.0 Q5.9 -16.65 11.05 -11.9 16.15 -7.1 16.15 -0.6 L16.15 -0.2 30.0 6.25 12.8 9.65 Q1.8 18.9 -12.45 11.85 L-30.0 12.5 -17.8 3.05 Q-18.75 0.6 -18.75 -2.2 M-12.45 11.85 Q1.1 8.7 12.8 9.65 1.1 8.7 -12.45 11.85 M30.0 6.25 Q-2.7 5.75 -30.0 12.5 -2.7 5.75 30.0 6.25 M-17.8 3.05 Q-0.85 0.0 16.15 -0.2 -0.85 0.0 -17.8 3.05" fill="#c9e1f1" fill-rule="evenodd" stroke="none"/>
    <path d="M-18.75 -2.2 Q-18.75 -8.65 -13.6 -12.95 -9.9 -16.1 -5.1 -16.8 L-1.25 -17.0 Q5.9 -16.65 11.05 -11.9 16.15 -7.1 16.15 -0.6 L16.15 -0.2" fill="none" stroke="#48648c" stroke-linecap="square" stroke-linejoin="miter" stroke-miterlimit="3.0" stroke-width="2.0"/>
    <path d="M16.15 -0.2 L30.0 6.25 12.8 9.65 Q1.8 18.9 -12.45 11.85 L-30.0 12.5 -17.8 3.05 Q-18.75 0.6 -18.75 -2.2 M12.8 9.65 Q1.1 8.7 -12.45 11.85 M-30.0 12.5 Q-2.7 5.75 30.0 6.25 M16.15 -0.2 Q-0.85 0.0 -17.8 3.05" fill="none" stroke="#48648c" stroke-linecap="round" stroke-linejoin="miter" stroke-miterlimit="3.0" stroke-width="2.0"/>
  </g>
</svg>
