<?xml version="1.0" encoding="UTF-8" standalone="no"?>
<svg xmlns:xlink="http://www.w3.org/1999/xlink" height="54.0px" width="60.0px" xmlns="http://www.w3.org/2000/svg">
  <g transform="matrix(1.0, 0.0, 0.0, 1.0, 30.0, 27.0)">
    <path d="M30.0 27.0 L-30.0 27.0 -30.0 -27.0 30.0 -27.0 30.0 27.0" fill="#ffffff" fill-rule="evenodd" stroke="none"/>
    <path d="M9.35 -21.15 Q13.0 -19.75 13.0 -17.75 13.0 -15.75 9.35 -14.35 5.7 -12.95 0.5 -12.95 -4.7 -12.95 -8.35 -14.35 -12.0 -15.75 -12.0 -17.75 -12.0 -19.75 -8.35 -21.15 -4.7 -22.55 0.5 -22.55 5.7 -22.55 9.35 -21.15" fill="#000000" fill-opacity="0.49803922" fill-rule="evenodd" stroke="none"/>
    <path d="M2.55 -18.9 L4.9 -18.45 5.35 -17.95 5.3 -17.7 3.0 -17.8 3.0 -16.6 Q3.55 -11.95 3.55 -9.1 L4.1 -8.95 5.55 -8.6 5.65 -8.6 Q5.9 -8.6 6.0 -8.2 L6.0 -7.75 Q5.45 -0.7 4.6 3.3 L4.8 3.0 Q6.0 0.5 6.6 -1.45 L7.2 -4.75 7.75 -7.9 8.05 -7.1 8.1 -6.5 Q8.1 -4.0 6.85 -0.15 5.6 3.7 4.2 5.05 L3.7 6.6 Q6.65 7.55 8.0 9.95 9.0 11.7 9.0 14.5 9.0 22.9 -2.75 24.1 -7.6 23.3 -9.4 20.2 -10.5 18.35 -10.5 15.4 -10.5 12.75 -9.0 10.2 -7.65 7.8 -5.25 6.75 L-5.35 5.95 Q-6.75 3.85 -7.75 0.45 -8.8 -3.0 -8.8 -5.65 -8.8 -7.8 -8.45 -8.2 -8.05 -6.9 -7.85 -4.6 L-7.45 -1.05 -6.0 2.8 -5.6 3.75 -6.05 0.1 -6.8 -7.9 -6.8 -8.0 Q-6.8 -8.65 -5.5 -8.95 L-3.0 -9.25 -3.4 -13.2 -3.6 -17.85 Q-5.75 -17.85 -5.75 -18.4 L-5.55 -18.75 -4.3 -18.8 -3.05 -18.75 -2.75 -18.4 Q-3.05 -17.35 -2.9 -16.1 L-2.8 -13.15 -2.6 -9.3 0.55 -9.35 3.05 -9.15 Q2.2 -12.75 2.2 -18.4 2.2 -18.9 2.55 -18.9 M3.25 -8.25 L2.25 -8.5 -4.8 -8.05 -6.2 -7.7 Q-5.75 -5.65 -4.9 4.15 L-4.9 5.75 -4.85 6.15 -4.9 6.35 -4.95 6.35 -4.95 6.65 Q-3.2 5.95 -0.95 5.95 L3.3 6.45 4.55 -0.8 5.3 -8.0 3.3 -8.25 3.25 -8.25 M6.7 10.15 Q4.5 7.0 -0.9 7.0 -5.45 7.0 -7.8 10.2 -9.7 12.8 -9.7 16.5 -9.7 18.7 -8.1 20.7 -5.65 23.8 -0.5 23.5 4.95 22.5 6.9 19.2 7.95 17.4 7.95 14.3 7.95 11.95 6.7 10.15" fill="#000000" fill-rule="evenodd" stroke="none"/>
    <path d="M6.7 10.15 Q7.95 11.95 7.95 14.3 7.95 17.4 6.9 19.2 4.95 22.5 -0.5 23.5 -5.65 23.8 -8.1 20.7 -9.7 18.7 -9.7 16.5 -9.7 12.8 -7.8 10.2 -5.45 7.0 -0.9 7.0 4.5 7.0 6.7 10.15 M3.25 -8.25 L3.3 -8.25 5.3 -8.0 4.55 -0.8 3.3 6.45 -0.95 5.95 Q-3.2 5.95 -4.95 6.65 L-4.95 6.35 -4.9 6.35 -4.85 6.15 -4.9 5.75 -4.9 4.15 Q-5.75 -5.65 -6.2 -7.7 L-4.8 -8.05 2.25 -8.5 3.25 -8.25" fill="#ffffff" fill-rule="evenodd" stroke="none"/>
  </g>
</svg>
