<?xml version="1.0" encoding="UTF-8" standalone="no"?>
<svg xmlns:xlink="http://www.w3.org/1999/xlink" height="17.0px" width="11.0px" xmlns="http://www.w3.org/2000/svg">
  <g transform="matrix(1.0, 0.0, 0.0, 1.0, -262.85, -155.0)">
    <path d="M264.85 157.0 L263.85 157.0 263.85 168.0 264.85 168.0 264.85 169.0 263.85 169.0 263.85 170.0 262.85 170.0 262.85 155.0 263.85 155.0 263.85 156.0 264.85 156.0 264.85 157.0 265.85 157.0 265.85 158.0 266.85 158.0 266.85 159.0 267.85 159.0 267.85 160.0 268.85 160.0 268.85 161.0 269.85 161.0 269.85 162.0 270.85 162.0 270.85 163.0 271.85 163.0 271.85 164.0 272.85 164.0 272.85 165.0 273.85 165.0 273.85 166.0 269.85 166.0 269.85 167.0 270.85 167.0 270.85 169.0 271.85 169.0 271.85 172.0 268.85 172.0 268.85 171.0 267.85 171.0 267.85 169.0 266.85 169.0 266.85 167.0 265.85 167.0 265.85 168.0 264.85 168.0 264.85 167.0 265.85 167.0 265.85 166.0 266.85 166.0 266.85 167.0 267.85 167.0 267.85 169.0 268.85 169.0 268.85 171.0 270.85 171.0 270.85 169.0 269.85 169.0 269.85 167.0 268.85 167.0 268.85 165.0 271.85 165.0 271.85 164.0 270.85 164.0 270.85 163.0 269.85 163.0 269.85 162.0 268.85 162.0 268.85 161.0 267.85 161.0 267.85 160.0 266.85 160.0 266.85 159.0 265.85 159.0 265.85 158.0 264.85 158.0 264.85 157.0" fill="#ffffff" fill-rule="evenodd" stroke="none"/>
    <path d="M264.85 168.0 L263.85 168.0 263.85 157.0 264.85 157.0 264.85 158.0 265.85 158.0 265.85 159.0 266.85 159.0 266.85 160.0 267.85 160.0 267.85 161.0 268.85 161.0 268.85 162.0 269.85 162.0 269.85 163.0 270.85 163.0 270.85 164.0 271.85 164.0 271.85 165.0 268.85 165.0 268.85 167.0 269.85 167.0 269.85 169.0 270.85 169.0 270.85 171.0 268.85 171.0 268.85 169.0 267.85 169.0 267.85 167.0 266.85 167.0 266.85 166.0 265.85 166.0 265.85 167.0 264.85 167.0 264.85 168.0" fill="#000000" fill-rule="evenodd" stroke="none"/>
  </g>
</svg>
