<?xml version="1.0" encoding="UTF-8" standalone="no"?>
<svg xmlns:xlink="http://www.w3.org/1999/xlink" height="90.0px" width="100.0px" xmlns="http://www.w3.org/2000/svg">
  <g transform="matrix(1.0, 0.0, 0.0, 1.0, 50.0, 45.0)">
    <path d="M-50.0 -45.0 L50.0 -45.0 50.0 45.0 -50.0 45.0 -50.0 -45.0" fill="#ffffff" fill-rule="evenodd" stroke="none"/>
    <path d="M-29.45 -7.45 L-29.45 -19.1 28.55 -19.1 28.55 -7.6 Q19.55 -7.4 10.55 -7.55 -9.45 -7.95 -29.45 -7.45" fill="url(#gradient0)" fill-rule="evenodd" stroke="none"/>
    <path d="M-29.45 -7.45 Q-9.45 -7.95 10.55 -7.55 19.55 -7.4 28.55 -7.6 L28.55 18.9 -29.45 18.9 -29.45 -7.45" fill="url(#gradient1)" fill-rule="evenodd" stroke="none"/>
    <path d="M28.55 -7.6 L28.55 -19.1 -29.45 -19.1 -29.45 -7.45 M28.55 -7.6 L28.55 18.9 -29.45 18.9 -29.45 -7.45" fill="none" stroke="#000000" stroke-linecap="round" stroke-linejoin="round" stroke-width="2.0"/>
    <path d="M-34.6 -14.1 Q-35.85 -16.1 -35.8 -18.35 -35.7 -22.85 -29.45 -24.1 M-39.1 -11.65 Q-41.6 -15.15 -41.95 -19.05 -42.65 -26.65 -32.3 -28.0" fill="none" stroke="#000000" stroke-linecap="round" stroke-linejoin="round" stroke-width="2.0"/>
    <path d="M32.15 15.0 Q32.25 17.35 31.2 19.3 28.95 23.2 22.9 21.35 M37.25 14.95 Q37.75 19.25 36.3 22.85 33.35 29.85 23.6 26.2" fill="none" stroke="#000000" stroke-linecap="round" stroke-linejoin="round" stroke-width="2.0"/>
    <path d="M50.0 -45.0 L50.0 45.0 -50.0 45.0 -50.0 -45.0 50.0 -45.0" fill="#ffffff" fill-rule="evenodd" stroke="none"/>
    <path d="M-29.45 -7.45 L-29.45 -19.1 28.55 -19.1 28.55 -7.6 Q19.55 -7.4 10.55 -7.55 -9.45 -7.95 -29.45 -7.45" fill="url(#gradient2)" fill-rule="evenodd" stroke="none"/>
    <path d="M-29.45 -7.45 Q-9.45 -7.95 10.55 -7.55 19.55 -7.4 28.55 -7.6 L28.55 18.9 -29.45 18.9 -29.45 -7.45" fill="url(#gradient3)" fill-rule="evenodd" stroke="none"/>
    <path d="M28.55 -7.6 L28.55 -19.1 -29.45 -19.1 -29.45 -7.45 M28.55 -7.6 L28.55 18.9 -29.45 18.9 -29.45 -7.45" fill="none" stroke="#000000" stroke-linecap="round" stroke-linejoin="round" stroke-width="2.0"/>
    <path d="M-34.6 -14.1 Q-35.85 -16.1 -35.8 -18.35 -35.7 -22.85 -29.45 -24.1 M-39.1 -11.65 Q-41.6 -15.15 -41.95 -19.05 -42.65 -26.65 -32.3 -28.0" fill="none" stroke="#000000" stroke-linecap="round" stroke-linejoin="round" stroke-width="2.0"/>
    <path d="M32.15 15.0 Q32.25 17.35 31.2 19.3 28.95 23.2 22.9 21.35 M37.25 14.95 Q37.75 19.25 36.3 22.85 33.35 29.85 23.6 26.2" fill="none" stroke="#000000" stroke-linecap="round" stroke-linejoin="round" stroke-width="2.0"/>
    <path d="M50.0 -45.0 L50.0 45.0 -50.0 45.0 -50.0 -45.0 50.0 -45.0" fill="#ffffff" fill-rule="evenodd" stroke="none"/>
    <path d="M-29.45 -7.45 L-29.45 -19.1 28.55 -19.1 28.55 -7.6 Q19.55 -7.4 10.55 -7.55 -9.45 -7.95 -29.45 -7.45" fill="url(#gradient4)" fill-rule="evenodd" stroke="none"/>
    <path d="M-29.45 -7.45 Q-9.45 -7.95 10.55 -7.55 19.55 -7.4 28.55 -7.6 L28.55 18.9 -29.45 18.9 -29.45 -7.45" fill="url(#gradient5)" fill-rule="evenodd" stroke="none"/>
    <path d="M28.55 -7.6 L28.55 -19.1 -29.45 -19.1 -29.45 -7.45 M28.55 -7.6 L28.55 18.9 -29.45 18.9 -29.45 -7.45" fill="none" stroke="#000000" stroke-linecap="round" stroke-linejoin="round" stroke-width="2.0"/>
    <path d="M-34.6 -14.1 Q-35.85 -16.1 -35.8 -18.35 -35.7 -22.85 -29.45 -24.1 M-39.1 -11.65 Q-41.6 -15.15 -41.95 -19.05 -42.65 -26.65 -32.3 -28.0" fill="none" stroke="#000000" stroke-linecap="round" stroke-linejoin="round" stroke-width="2.0"/>
    <path d="M32.15 15.0 Q32.25 17.35 31.2 19.3 28.95 23.2 22.9 21.35 M37.25 14.95 Q37.75 19.25 36.3 22.85 33.35 29.85 23.6 26.2" fill="none" stroke="#000000" stroke-linecap="round" stroke-linejoin="round" stroke-width="2.0"/>
    <path d="M50.0 -45.0 L50.0 45.0 -50.0 45.0 -50.0 -45.0 50.0 -45.0" fill="#ffffff" fill-rule="evenodd" stroke="none"/>
    <path d="M-29.45 -7.45 L-29.45 -19.1 28.55 -19.1 28.55 -7.6 Q19.55 -7.4 10.55 -7.55 -9.45 -7.95 -29.45 -7.45" fill="url(#gradient6)" fill-rule="evenodd" stroke="none"/>
    <path d="M-29.45 -7.45 Q-9.45 -7.95 10.55 -7.55 19.55 -7.4 28.55 -7.6 L28.55 18.9 -29.45 18.9 -29.45 -7.45" fill="url(#gradient7)" fill-rule="evenodd" stroke="none"/>
    <path d="M28.55 -7.6 L28.55 -19.1 -29.45 -19.1 -29.45 -7.45 M28.55 -7.6 L28.55 18.9 -29.45 18.9 -29.45 -7.45" fill="none" stroke="#000000" stroke-linecap="round" stroke-linejoin="round" stroke-width="2.0"/>
    <path d="M-34.6 -14.1 Q-35.85 -16.1 -35.8 -18.35 -35.7 -22.85 -29.45 -24.1 M-39.1 -11.65 Q-41.6 -15.15 -41.95 -19.05 -42.65 -26.65 -32.3 -28.0" fill="none" stroke="#000000" stroke-linecap="round" stroke-linejoin="round" stroke-width="2.0"/>
    <path d="M32.15 15.0 Q32.25 17.35 31.2 19.3 28.95 23.2 22.9 21.35 M37.25 14.95 Q37.75 19.25 36.3 22.85 33.35 29.85 23.6 26.2" fill="none" stroke="#000000" stroke-linecap="round" stroke-linejoin="round" stroke-width="2.0"/>
    <path d="M50.0 -45.0 L50.0 45.0 -50.0 45.0 -50.0 -45.0 50.0 -45.0" fill="#ffffff" fill-rule="evenodd" stroke="none"/>
    <path d="M-29.45 -7.45 L-29.45 -19.1 28.55 -19.1 28.55 -7.6 Q19.55 -7.4 10.55 -7.55 -9.45 -7.95 -29.45 -7.45" fill="url(#gradient8)" fill-rule="evenodd" stroke="none"/>
    <path d="M-29.45 -7.45 Q-9.45 -7.95 10.55 -7.55 19.55 -7.4 28.55 -7.6 L28.55 18.9 -29.45 18.9 -29.45 -7.45" fill="url(#gradient9)" fill-rule="evenodd" stroke="none"/>
    <path d="M28.55 -7.6 L28.55 -19.1 -29.45 -19.1 -29.45 -7.45 M28.55 -7.6 L28.55 18.9 -29.45 18.9 -29.45 -7.45" fill="none" stroke="#000000" stroke-linecap="round" stroke-linejoin="round" stroke-width="2.0"/>
    <path d="M-34.6 -14.1 Q-35.85 -16.1 -35.8 -18.35 -35.7 -22.85 -29.45 -24.1 M-39.1 -11.65 Q-41.6 -15.15 -41.95 -19.05 -42.65 -26.65 -32.3 -28.0" fill="none" stroke="#000000" stroke-linecap="round" stroke-linejoin="round" stroke-width="2.0"/>
    <path d="M32.15 15.0 Q32.25 17.35 31.2 19.3 28.95 23.2 22.9 21.35 M37.25 14.95 Q37.75 19.25 36.3 22.85 33.35 29.85 23.6 26.2" fill="none" stroke="#000000" stroke-linecap="round" stroke-linejoin="round" stroke-width="2.0"/>
    <path d="M50.0 -45.0 L50.0 45.0 -50.0 45.0 -50.0 -45.0 50.0 -45.0" fill="#ffffff" fill-rule="evenodd" stroke="none"/>
    <path d="M-29.45 -7.45 L-29.45 -19.1 28.55 -19.1 28.55 -7.6 Q19.55 -7.4 10.55 -7.55 -9.45 -7.95 -29.45 -7.45" fill="url(#gradient10)" fill-rule="evenodd" stroke="none"/>
    <path d="M-29.45 -7.45 Q-9.45 -7.95 10.55 -7.55 19.55 -7.4 28.55 -7.6 L28.55 18.9 -29.45 18.9 -29.45 -7.45" fill="url(#gradient11)" fill-rule="evenodd" stroke="none"/>
    <path d="M28.55 -7.6 L28.55 -19.1 -29.45 -19.1 -29.45 -7.45 M28.55 -7.6 L28.55 18.9 -29.45 18.9 -29.45 -7.45" fill="none" stroke="#000000" stroke-linecap="round" stroke-linejoin="round" stroke-width="2.0"/>
    <path d="M-34.6 -14.1 Q-35.85 -16.1 -35.8 -18.35 -35.7 -22.85 -29.45 -24.1 M-39.1 -11.65 Q-41.6 -15.15 -41.95 -19.05 -42.65 -26.65 -32.3 -28.0" fill="none" stroke="#000000" stroke-linecap="round" stroke-linejoin="round" stroke-width="2.0"/>
    <path d="M32.15 15.0 Q32.25 17.35 31.2 19.3 28.95 23.2 22.9 21.35 M37.25 14.95 Q37.75 19.25 36.3 22.85 33.35 29.85 23.6 26.2" fill="none" stroke="#000000" stroke-linecap="round" stroke-linejoin="round" stroke-width="2.0"/>
    <path d="M50.0 -45.0 L50.0 45.0 -50.0 45.0 -50.0 -45.0 50.0 -45.0" fill="#ffffff" fill-rule="evenodd" stroke="none"/>
    <path d="M-29.45 -7.45 L-29.45 -19.1 28.55 -19.1 28.55 -7.6 Q19.55 -7.4 10.55 -7.55 -9.45 -7.95 -29.45 -7.45" fill="url(#gradient12)" fill-rule="evenodd" stroke="none"/>
    <path d="M-29.45 -7.45 Q-9.45 -7.95 10.55 -7.55 19.55 -7.4 28.55 -7.6 L28.55 18.9 -29.45 18.9 -29.45 -7.45" fill="url(#gradient13)" fill-rule="evenodd" stroke="none"/>
    <path d="M28.55 -7.6 L28.55 -19.1 -29.45 -19.1 -29.45 -7.45 M28.55 -7.6 L28.55 18.9 -29.45 18.9 -29.45 -7.45" fill="none" stroke="#000000" stroke-linecap="round" stroke-linejoin="round" stroke-width="2.0"/>
    <path d="M-34.6 -14.1 Q-35.85 -16.1 -35.8 -18.35 -35.7 -22.85 -29.45 -24.1 M-39.1 -11.65 Q-41.6 -15.15 -41.95 -19.05 -42.65 -26.65 -32.3 -28.0" fill="none" stroke="#000000" stroke-linecap="round" stroke-linejoin="round" stroke-width="2.0"/>
    <path d="M32.15 15.0 Q32.25 17.35 31.2 19.3 28.95 23.2 22.9 21.35 M37.25 14.95 Q37.75 19.25 36.3 22.85 33.35 29.85 23.6 26.2" fill="none" stroke="#000000" stroke-linecap="round" stroke-linejoin="round" stroke-width="2.0"/>
    <path d="M50.0 -45.0 L50.0 45.0 -50.0 45.0 -50.0 -45.0 50.0 -45.0" fill="#ffffff" fill-rule="evenodd" stroke="none"/>
    <path d="M-29.45 -7.45 L-29.45 -19.1 28.55 -19.1 28.55 -7.6 Q19.55 -7.4 10.55 -7.55 -9.45 -7.95 -29.45 -7.45" fill="url(#gradient14)" fill-rule="evenodd" stroke="none"/>
    <path d="M-29.45 -7.45 Q-9.45 -7.95 10.55 -7.55 19.55 -7.4 28.55 -7.6 L28.55 18.9 -29.45 18.9 -29.45 -7.45" fill="url(#gradient15)" fill-rule="evenodd" stroke="none"/>
    <path d="M28.55 -7.6 L28.55 -19.1 -29.45 -19.1 -29.45 -7.45 M28.55 -7.6 L28.55 18.9 -29.45 18.9 -29.45 -7.45" fill="none" stroke="#000000" stroke-linecap="round" stroke-linejoin="round" stroke-width="2.0"/>
    <path d="M-34.6 -14.1 Q-35.85 -16.1 -35.8 -18.35 -35.7 -22.85 -29.45 -24.1 M-39.1 -11.65 Q-41.6 -15.15 -41.95 -19.05 -42.65 -26.65 -32.3 -28.0" fill="none" stroke="#000000" stroke-linecap="round" stroke-linejoin="round" stroke-width="2.0"/>
    <path d="M32.15 15.0 Q32.25 17.35 31.2 19.3 28.95 23.2 22.9 21.35 M37.25 14.95 Q37.75 19.25 36.3 22.85 33.35 29.85 23.6 26.2" fill="none" stroke="#000000" stroke-linecap="round" stroke-linejoin="round" stroke-width="2.0"/>
    <path d="M50.0 -45.0 L50.0 45.0 -50.0 45.0 -50.0 -45.0 50.0 -45.0" fill="#ffffff" fill-rule="evenodd" stroke="none"/>
    <path d="M-29.45 -7.45 L-29.45 -19.1 28.55 -19.1 28.55 -7.6 Q19.55 -7.4 10.55 -7.55 -9.45 -7.95 -29.45 -7.45" fill="url(#gradient16)" fill-rule="evenodd" stroke="none"/>
    <path d="M-29.45 -7.45 Q-9.45 -7.95 10.55 -7.55 19.55 -7.4 28.55 -7.6 L28.55 18.9 -29.45 18.9 -29.45 -7.45" fill="url(#gradient17)" fill-rule="evenodd" stroke="none"/>
    <path d="M28.55 -7.6 L28.55 -19.1 -29.45 -19.1 -29.45 -7.45 M28.55 -7.6 L28.55 18.9 -29.45 18.9 -29.45 -7.45" fill="none" stroke="#000000" stroke-linecap="round" stroke-linejoin="round" stroke-width="2.0"/>
    <path d="M-34.6 -14.1 Q-35.85 -16.1 -35.8 -18.35 -35.7 -22.85 -29.45 -24.1 M-39.1 -11.65 Q-41.6 -15.15 -41.95 -19.05 -42.65 -26.65 -32.3 -28.0" fill="none" stroke="#000000" stroke-linecap="round" stroke-linejoin="round" stroke-width="2.0"/>
    <path d="M32.15 15.0 Q32.25 17.35 31.2 19.3 28.95 23.2 22.9 21.35 M37.25 14.95 Q37.75 19.25 36.3 22.85 33.35 29.85 23.6 26.2" fill="none" stroke="#000000" stroke-linecap="round" stroke-linejoin="round" stroke-width="2.0"/>
    <path d="M50.0 -45.0 L50.0 45.0 -50.0 45.0 -50.0 -45.0 50.0 -45.0" fill="#ffffff" fill-rule="evenodd" stroke="none"/>
    <path d="M-29.45 -7.45 L-29.45 -19.1 28.55 -19.1 28.55 -7.6 Q19.55 -7.4 10.55 -7.55 -9.45 -7.95 -29.45 -7.45" fill="url(#gradient18)" fill-rule="evenodd" stroke="none"/>
    <path d="M-29.45 -7.45 Q-9.45 -7.95 10.55 -7.55 19.55 -7.4 28.55 -7.6 L28.55 18.9 -29.45 18.9 -29.45 -7.45" fill="url(#gradient19)" fill-rule="evenodd" stroke="none"/>
    <path d="M28.55 -7.6 L28.55 -19.1 -29.45 -19.1 -29.45 -7.45 M28.55 -7.6 L28.55 18.9 -29.45 18.9 -29.45 -7.45" fill="none" stroke="#000000" stroke-linecap="round" stroke-linejoin="round" stroke-width="2.0"/>
    <path d="M-34.6 -14.1 Q-35.85 -16.1 -35.8 -18.35 -35.7 -22.85 -29.45 -24.1 M-39.1 -11.65 Q-41.6 -15.15 -41.95 -19.05 -42.65 -26.65 -32.3 -28.0" fill="none" stroke="#000000" stroke-linecap="round" stroke-linejoin="round" stroke-width="2.0"/>
    <path d="M32.15 15.0 Q32.25 17.35 31.2 19.3 28.95 23.2 22.9 21.35 M37.25 14.95 Q37.75 19.25 36.3 22.85 33.35 29.85 23.6 26.2" fill="none" stroke="#000000" stroke-linecap="round" stroke-linejoin="round" stroke-width="2.0"/>
    <path d="M50.0 -45.0 L50.0 45.0 -50.0 45.0 -50.0 -45.0 50.0 -45.0" fill="#ffffff" fill-rule="evenodd" stroke="none"/>
    <path d="M-29.45 -7.45 L-29.45 -19.1 28.55 -19.1 28.55 -7.6 Q19.55 -7.4 10.55 -7.55 -9.45 -7.95 -29.45 -7.45" fill="url(#gradient20)" fill-rule="evenodd" stroke="none"/>
    <path d="M-29.45 -7.45 Q-9.45 -7.95 10.55 -7.55 19.55 -7.4 28.55 -7.6 L28.55 18.9 -29.45 18.9 -29.45 -7.45" fill="url(#gradient21)" fill-rule="evenodd" stroke="none"/>
    <path d="M28.55 -7.6 L28.55 -19.1 -29.45 -19.1 -29.45 -7.45 M28.55 -7.6 L28.55 18.9 -29.45 18.9 -29.45 -7.45" fill="none" stroke="#000000" stroke-linecap="round" stroke-linejoin="round" stroke-width="2.0"/>
    <path d="M-34.6 -14.1 Q-35.85 -16.1 -35.8 -18.35 -35.7 -22.85 -29.45 -24.1 M-39.1 -11.65 Q-41.6 -15.15 -41.95 -19.05 -42.65 -26.65 -32.3 -28.0" fill="none" stroke="#000000" stroke-linecap="round" stroke-linejoin="round" stroke-width="2.0"/>
    <path d="M32.15 15.0 Q32.25 17.35 31.2 19.3 28.95 23.2 22.9 21.35 M37.25 14.95 Q37.75 19.25 36.3 22.85 33.35 29.85 23.6 26.2" fill="none" stroke="#000000" stroke-linecap="round" stroke-linejoin="round" stroke-width="2.0"/>
    <path d="M50.0 -45.0 L50.0 45.0 -50.0 45.0 -50.0 -45.0 50.0 -45.0" fill="#ffffff" fill-rule="evenodd" stroke="none"/>
    <path d="M-29.45 -7.45 L-29.45 -19.1 28.55 -19.1 28.55 -7.6 Q19.55 -7.4 10.55 -7.55 -9.45 -7.95 -29.45 -7.45" fill="url(#gradient22)" fill-rule="evenodd" stroke="none"/>
    <path d="M-29.45 -7.45 Q-9.45 -7.95 10.55 -7.55 19.55 -7.4 28.55 -7.6 L28.55 18.9 -29.45 18.9 -29.45 -7.45" fill="url(#gradient23)" fill-rule="evenodd" stroke="none"/>
    <path d="M28.55 -7.6 L28.55 -19.1 -29.45 -19.1 -29.45 -7.45 M28.55 -7.6 L28.55 18.9 -29.45 18.9 -29.45 -7.45" fill="none" stroke="#000000" stroke-linecap="round" stroke-linejoin="round" stroke-width="2.0"/>
    <path d="M-34.6 -14.1 Q-35.85 -16.1 -35.8 -18.35 -35.7 -22.85 -29.45 -24.1 M-39.1 -11.65 Q-41.6 -15.15 -41.95 -19.05 -42.65 -26.65 -32.3 -28.0" fill="none" stroke="#000000" stroke-linecap="round" stroke-linejoin="round" stroke-width="2.0"/>
    <path d="M32.15 15.0 Q32.25 17.35 31.2 19.3 28.95 23.2 22.9 21.35 M37.25 14.95 Q37.75 19.25 36.3 22.85 33.35 29.85 23.6 26.2" fill="none" stroke="#000000" stroke-linecap="round" stroke-linejoin="round" stroke-width="2.0"/>
    <path d="M50.0 -45.0 L50.0 45.0 -50.0 45.0 -50.0 -45.0 50.0 -45.0" fill="#ffffff" fill-rule="evenodd" stroke="none"/>
    <path d="M-29.45 -7.45 L-29.45 -19.1 28.55 -19.1 28.55 -7.6 Q19.55 -7.4 10.55 -7.55 -9.45 -7.95 -29.45 -7.45" fill="url(#gradient24)" fill-rule="evenodd" stroke="none"/>
    <path d="M-29.45 -7.45 Q-9.45 -7.95 10.55 -7.55 19.55 -7.4 28.55 -7.6 L28.55 18.9 -29.45 18.9 -29.45 -7.45" fill="url(#gradient25)" fill-rule="evenodd" stroke="none"/>
    <path d="M28.55 -7.6 L28.55 -19.1 -29.45 -19.1 -29.45 -7.45 M28.55 -7.6 L28.55 18.9 -29.45 18.9 -29.45 -7.45" fill="none" stroke="#000000" stroke-linecap="round" stroke-linejoin="round" stroke-width="2.0"/>
    <path d="M-34.6 -14.1 Q-35.85 -16.1 -35.8 -18.35 -35.7 -22.85 -29.45 -24.1 M-39.1 -11.65 Q-41.6 -15.15 -41.95 -19.05 -42.65 -26.65 -32.3 -28.0" fill="none" stroke="#000000" stroke-linecap="round" stroke-linejoin="round" stroke-width="2.0"/>
    <path d="M32.15 15.0 Q32.25 17.35 31.2 19.3 28.95 23.2 22.9 21.35 M37.25 14.95 Q37.75 19.25 36.3 22.85 33.35 29.85 23.6 26.2" fill="none" stroke="#000000" stroke-linecap="round" stroke-linejoin="round" stroke-width="2.0"/>
    <path d="M50.0 -45.0 L50.0 45.0 -50.0 45.0 -50.0 -45.0 50.0 -45.0" fill="#ffffff" fill-rule="evenodd" stroke="none"/>
    <path d="M-29.45 -7.45 L-29.45 -19.1 28.55 -19.1 28.55 -7.6 Q19.55 -7.4 10.55 -7.55 -9.45 -7.95 -29.45 -7.45" fill="url(#gradient26)" fill-rule="evenodd" stroke="none"/>
    <path d="M-29.45 -7.45 Q-9.45 -7.95 10.55 -7.55 19.55 -7.4 28.55 -7.6 L28.55 18.9 -29.45 18.9 -29.45 -7.45" fill="url(#gradient27)" fill-rule="evenodd" stroke="none"/>
    <path d="M28.55 -7.6 L28.55 -19.1 -29.45 -19.1 -29.45 -7.45 M28.55 -7.6 L28.55 18.9 -29.45 18.9 -29.45 -7.45" fill="none" stroke="#000000" stroke-linecap="round" stroke-linejoin="round" stroke-width="2.0"/>
    <path d="M-34.6 -14.1 Q-35.85 -16.1 -35.8 -18.35 -35.7 -22.85 -29.45 -24.1 M-39.1 -11.65 Q-41.6 -15.15 -41.95 -19.05 -42.65 -26.65 -32.3 -28.0" fill="none" stroke="#000000" stroke-linecap="round" stroke-linejoin="round" stroke-width="2.0"/>
    <path d="M32.15 15.0 Q32.25 17.35 31.2 19.3 28.95 23.2 22.9 21.35 M37.25 14.95 Q37.75 19.25 36.3 22.85 33.35 29.85 23.6 26.2" fill="none" stroke="#000000" stroke-linecap="round" stroke-linejoin="round" stroke-width="2.0"/>
    <path d="M50.0 -45.0 L50.0 45.0 -50.0 45.0 -50.0 -45.0 50.0 -45.0" fill="#ffffff" fill-rule="evenodd" stroke="none"/>
    <path d="M-29.45 -7.45 L-29.45 -19.1 28.55 -19.1 28.55 -7.6 Q19.55 -7.4 10.55 -7.55 -9.45 -7.95 -29.45 -7.45" fill="url(#gradient28)" fill-rule="evenodd" stroke="none"/>
    <path d="M-29.45 -7.45 Q-9.45 -7.95 10.55 -7.55 19.55 -7.4 28.55 -7.6 L28.55 18.9 -29.45 18.9 -29.45 -7.45" fill="url(#gradient29)" fill-rule="evenodd" stroke="none"/>
    <path d="M28.55 -7.6 L28.55 -19.1 -29.45 -19.1 -29.45 -7.45 M28.55 -7.6 L28.55 18.9 -29.45 18.9 -29.45 -7.45" fill="none" stroke="#000000" stroke-linecap="round" stroke-linejoin="round" stroke-width="2.0"/>
    <path d="M-34.6 -14.1 Q-35.85 -16.1 -35.8 -18.35 -35.7 -22.85 -29.45 -24.1 M-39.1 -11.65 Q-41.6 -15.15 -41.95 -19.05 -42.65 -26.65 -32.3 -28.0" fill="none" stroke="#000000" stroke-linecap="round" stroke-linejoin="round" stroke-width="2.0"/>
    <path d="M32.15 15.0 Q32.25 17.35 31.2 19.3 28.95 23.2 22.9 21.35 M37.25 14.95 Q37.75 19.25 36.3 22.85 33.35 29.85 23.6 26.2" fill="none" stroke="#000000" stroke-linecap="round" stroke-linejoin="round" stroke-width="2.0"/>
    <path d="M50.0 -45.0 L50.0 45.0 -50.0 45.0 -50.0 -45.0 50.0 -45.0" fill="#ffffff" fill-rule="evenodd" stroke="none"/>
    <path d="M-29.45 -7.45 L-29.45 -19.1 28.55 -19.1 28.55 -7.6 Q19.55 -7.4 10.55 -7.55 -9.45 -7.95 -29.45 -7.45" fill="url(#gradient30)" fill-rule="evenodd" stroke="none"/>
    <path d="M-29.45 -7.45 Q-9.45 -7.95 10.55 -7.55 19.55 -7.4 28.55 -7.6 L28.55 18.9 -29.45 18.9 -29.45 -7.45" fill="url(#gradient31)" fill-rule="evenodd" stroke="none"/>
    <path d="M28.55 -7.6 L28.55 -19.1 -29.45 -19.1 -29.45 -7.45 M28.55 -7.6 L28.55 18.9 -29.45 18.9 -29.45 -7.45" fill="none" stroke="#000000" stroke-linecap="round" stroke-linejoin="round" stroke-width="2.0"/>
    <path d="M-34.6 -14.1 Q-35.85 -16.1 -35.8 -18.35 -35.7 -22.85 -29.45 -24.1 M-39.1 -11.65 Q-41.6 -15.15 -41.95 -19.05 -42.65 -26.65 -32.3 -28.0" fill="none" stroke="#000000" stroke-linecap="round" stroke-linejoin="round" stroke-width="2.0"/>
    <path d="M32.15 15.0 Q32.25 17.35 31.2 19.3 28.95 23.2 22.9 21.35 M37.25 14.95 Q37.75 19.25 36.3 22.85 33.35 29.85 23.6 26.2" fill="none" stroke="#000000" stroke-linecap="round" stroke-linejoin="round" stroke-width="2.0"/>
    <path d="M50.0 -45.0 L50.0 45.0 -50.0 45.0 -50.0 -45.0 50.0 -45.0" fill="#ffffff" fill-rule="evenodd" stroke="none"/>
    <path d="M-29.45 -7.45 L-29.45 -19.1 28.55 -19.1 28.55 -7.6 Q19.55 -7.4 10.55 -7.55 -9.45 -7.95 -29.45 -7.45" fill="url(#gradient32)" fill-rule="evenodd" stroke="none"/>
    <path d="M-29.45 -7.45 Q-9.45 -7.95 10.55 -7.55 19.55 -7.4 28.55 -7.6 L28.55 18.9 -29.45 18.9 -29.45 -7.45" fill="url(#gradient33)" fill-rule="evenodd" stroke="none"/>
    <path d="M28.55 -7.6 L28.55 -19.1 -29.45 -19.1 -29.45 -7.45 M28.55 -7.6 L28.55 18.9 -29.45 18.9 -29.45 -7.45" fill="none" stroke="#000000" stroke-linecap="round" stroke-linejoin="round" stroke-width="2.0"/>
    <path d="M-34.6 -14.1 Q-35.85 -16.1 -35.8 -18.35 -35.7 -22.85 -29.45 -24.1 M-39.1 -11.65 Q-41.6 -15.15 -41.95 -19.05 -42.65 -26.65 -32.3 -28.0" fill="none" stroke="#000000" stroke-linecap="round" stroke-linejoin="round" stroke-width="2.0"/>
    <path d="M32.15 15.0 Q32.25 17.35 31.2 19.3 28.95 23.2 22.9 21.35 M37.25 14.95 Q37.75 19.25 36.3 22.85 33.35 29.85 23.6 26.2" fill="none" stroke="#000000" stroke-linecap="round" stroke-linejoin="round" stroke-width="2.0"/>
    <path d="M50.0 -45.0 L50.0 45.0 -50.0 45.0 -50.0 -45.0 50.0 -45.0" fill="#ffffff" fill-rule="evenodd" stroke="none"/>
    <path d="M-29.45 -7.45 L-29.45 -19.1 28.55 -19.1 28.55 -7.6 Q19.55 -7.4 10.55 -7.55 -9.45 -7.95 -29.45 -7.45" fill="url(#gradient34)" fill-rule="evenodd" stroke="none"/>
    <path d="M-29.45 -7.45 Q-9.45 -7.95 10.55 -7.55 19.55 -7.4 28.55 -7.6 L28.55 18.9 -29.45 18.9 -29.45 -7.45" fill="url(#gradient35)" fill-rule="evenodd" stroke="none"/>
    <path d="M28.55 -7.6 L28.55 -19.1 -29.45 -19.1 -29.45 -7.45 M28.55 -7.6 L28.55 18.9 -29.45 18.9 -29.45 -7.45" fill="none" stroke="#000000" stroke-linecap="round" stroke-linejoin="round" stroke-width="2.0"/>
    <path d="M-34.6 -14.1 Q-35.85 -16.1 -35.8 -18.35 -35.7 -22.85 -29.45 -24.1 M-39.1 -11.65 Q-41.6 -15.15 -41.95 -19.05 -42.65 -26.65 -32.3 -28.0" fill="none" stroke="#000000" stroke-linecap="round" stroke-linejoin="round" stroke-width="2.0"/>
    <path d="M32.15 15.0 Q32.25 17.35 31.2 19.3 28.95 23.2 22.9 21.35 M37.25 14.95 Q37.75 19.25 36.3 22.85 33.35 29.85 23.6 26.2" fill="none" stroke="#000000" stroke-linecap="round" stroke-linejoin="round" stroke-width="2.0"/>
    <path d="M50.0 -45.0 L50.0 45.0 -50.0 45.0 -50.0 -45.0 50.0 -45.0" fill="#ffffff" fill-rule="evenodd" stroke="none"/>
    <path d="M-29.45 -7.45 L-29.45 -19.1 28.55 -19.1 28.55 -7.6 Q19.55 -7.4 10.55 -7.55 -9.45 -7.95 -29.45 -7.45" fill="url(#gradient36)" fill-rule="evenodd" stroke="none"/>
    <path d="M-29.45 -7.45 Q-9.45 -7.95 10.55 -7.55 19.55 -7.4 28.55 -7.6 L28.55 18.9 -29.45 18.9 -29.45 -7.45" fill="url(#gradient37)" fill-rule="evenodd" stroke="none"/>
    <path d="M28.55 -7.6 L28.55 -19.1 -29.45 -19.1 -29.45 -7.45 M28.55 -7.6 L28.55 18.9 -29.45 18.9 -29.45 -7.45" fill="none" stroke="#000000" stroke-linecap="round" stroke-linejoin="round" stroke-width="2.0"/>
    <path d="M-34.6 -14.1 Q-35.85 -16.1 -35.8 -18.35 -35.7 -22.85 -29.45 -24.1 M-39.1 -11.65 Q-41.6 -15.15 -41.95 -19.05 -42.65 -26.65 -32.3 -28.0" fill="none" stroke="#000000" stroke-linecap="round" stroke-linejoin="round" stroke-width="2.0"/>
    <path d="M32.15 15.0 Q32.25 17.35 31.2 19.3 28.95 23.2 22.9 21.35 M37.25 14.95 Q37.75 19.25 36.3 22.85 33.35 29.85 23.6 26.2" fill="none" stroke="#000000" stroke-linecap="round" stroke-linejoin="round" stroke-width="2.0"/>
    <path d="M50.0 -45.0 L50.0 45.0 -50.0 45.0 -50.0 -45.0 50.0 -45.0" fill="#ffffff" fill-rule="evenodd" stroke="none"/>
    <path d="M-29.45 -7.45 L-29.45 -19.1 28.55 -19.1 28.55 -7.6 Q19.55 -7.4 10.55 -7.55 -9.45 -7.95 -29.45 -7.45" fill="url(#gradient38)" fill-rule="evenodd" stroke="none"/>
    <path d="M-29.45 -7.45 Q-9.45 -7.95 10.55 -7.55 19.55 -7.4 28.55 -7.6 L28.55 18.9 -29.45 18.9 -29.45 -7.45" fill="url(#gradient39)" fill-rule="evenodd" stroke="none"/>
    <path d="M28.55 -7.6 L28.55 -19.1 -29.45 -19.1 -29.45 -7.45 M28.55 -7.6 L28.55 18.9 -29.45 18.9 -29.45 -7.45" fill="none" stroke="#000000" stroke-linecap="round" stroke-linejoin="round" stroke-width="2.0"/>
    <path d="M-34.6 -14.1 Q-35.85 -16.1 -35.8 -18.35 -35.7 -22.85 -29.45 -24.1 M-39.1 -11.65 Q-41.6 -15.15 -41.95 -19.05 -42.65 -26.65 -32.3 -28.0" fill="none" stroke="#000000" stroke-linecap="round" stroke-linejoin="round" stroke-width="2.0"/>
    <path d="M32.15 15.0 Q32.25 17.35 31.2 19.3 28.95 23.2 22.9 21.35 M37.25 14.95 Q37.75 19.25 36.3 22.85 33.35 29.85 23.6 26.2" fill="none" stroke="#000000" stroke-linecap="round" stroke-linejoin="round" stroke-width="2.0"/>
    <path d="M50.0 -45.0 L50.0 45.0 -50.0 45.0 -50.0 -45.0 50.0 -45.0" fill="#ffffff" fill-rule="evenodd" stroke="none"/>
    <path d="M-29.45 -7.45 L-29.45 -19.1 28.55 -19.1 28.55 -7.6 Q19.55 -7.4 10.55 -7.55 -9.45 -7.95 -29.45 -7.45" fill="url(#gradient40)" fill-rule="evenodd" stroke="none"/>
    <path d="M-29.45 -7.45 Q-9.45 -7.95 10.55 -7.55 19.55 -7.4 28.55 -7.6 L28.55 18.9 -29.45 18.9 -29.45 -7.45" fill="url(#gradient41)" fill-rule="evenodd" stroke="none"/>
    <path d="M28.55 -7.6 L28.55 -19.1 -29.45 -19.1 -29.45 -7.45 M28.55 -7.6 L28.55 18.9 -29.45 18.9 -29.45 -7.45" fill="none" stroke="#000000" stroke-linecap="round" stroke-linejoin="round" stroke-width="2.0"/>
    <path d="M-34.6 -14.1 Q-35.85 -16.1 -35.8 -18.35 -35.7 -22.85 -29.45 -24.1 M-39.1 -11.65 Q-41.6 -15.15 -41.95 -19.05 -42.65 -26.65 -32.3 -28.0" fill="none" stroke="#000000" stroke-linecap="round" stroke-linejoin="round" stroke-width="2.0"/>
    <path d="M32.15 15.0 Q32.25 17.35 31.2 19.3 28.95 23.2 22.9 21.35 M37.25 14.95 Q37.75 19.25 36.3 22.85 33.35 29.85 23.6 26.2" fill="none" stroke="#000000" stroke-linecap="round" stroke-linejoin="round" stroke-width="2.0"/>
  </g>
  <defs>
    <linearGradient gradientTransform="matrix(0.0354, 0.0, 0.0, 0.0071, -0.45, -13.3)" gradientUnits="userSpaceOnUse" id="gradient0" spreadMethod="pad" x1="-819.2" x2="819.2">
      <stop offset="0.0" stop-color="#ffffff"/>
      <stop offset="1.0" stop-color="#bcbdfe"/>
    </linearGradient>
    <linearGradient gradientTransform="matrix(0.0354, 0.0, 0.0, 0.0163, -0.45, 5.55)" gradientUnits="userSpaceOnUse" id="gradient1" spreadMethod="pad" x1="-819.2" x2="819.2">
      <stop offset="0.0" stop-color="#e6e6ff"/>
      <stop offset="1.0" stop-color="#ffffff"/>
    </linearGradient>
    <linearGradient gradientTransform="matrix(0.0354, 0.0, 0.0, 0.0071, -0.45, -13.3)" gradientUnits="userSpaceOnUse" id="gradient2" spreadMethod="pad" x1="-819.2" x2="819.2">
      <stop offset="0.0" stop-color="#ffffff"/>
      <stop offset="1.0" stop-color="#bcbdfe"/>
    </linearGradient>
    <linearGradient gradientTransform="matrix(0.0354, 0.0, 0.0, 0.0163, -0.45, 5.55)" gradientUnits="userSpaceOnUse" id="gradient3" spreadMethod="pad" x1="-819.2" x2="819.2">
      <stop offset="0.0" stop-color="#e6e6ff"/>
      <stop offset="1.0" stop-color="#ffffff"/>
    </linearGradient>
    <linearGradient gradientTransform="matrix(0.0354, 0.0, 0.0, 0.0071, -0.45, -13.3)" gradientUnits="userSpaceOnUse" id="gradient4" spreadMethod="pad" x1="-819.2" x2="819.2">
      <stop offset="0.0" stop-color="#ffffff"/>
      <stop offset="1.0" stop-color="#bcbdfe"/>
    </linearGradient>
    <linearGradient gradientTransform="matrix(0.0354, 0.0, 0.0, 0.0163, -0.45, 5.55)" gradientUnits="userSpaceOnUse" id="gradient5" spreadMethod="pad" x1="-819.2" x2="819.2">
      <stop offset="0.0" stop-color="#e6e6ff"/>
      <stop offset="1.0" stop-color="#ffffff"/>
    </linearGradient>
    <linearGradient gradientTransform="matrix(0.0354, 0.0, 0.0, 0.0071, -0.45, -13.3)" gradientUnits="userSpaceOnUse" id="gradient6" spreadMethod="pad" x1="-819.2" x2="819.2">
      <stop offset="0.0" stop-color="#ffffff"/>
      <stop offset="1.0" stop-color="#bcbdfe"/>
    </linearGradient>
    <linearGradient gradientTransform="matrix(0.0354, 0.0, 0.0, 0.0163, -0.45, 5.55)" gradientUnits="userSpaceOnUse" id="gradient7" spreadMethod="pad" x1="-819.2" x2="819.2">
      <stop offset="0.0" stop-color="#e6e6ff"/>
      <stop offset="1.0" stop-color="#ffffff"/>
    </linearGradient>
    <linearGradient gradientTransform="matrix(0.0354, 0.0, 0.0, 0.0071, -0.45, -13.3)" gradientUnits="userSpaceOnUse" id="gradient8" spreadMethod="pad" x1="-819.2" x2="819.2">
      <stop offset="0.0" stop-color="#ffffff"/>
      <stop offset="1.0" stop-color="#bcbdfe"/>
    </linearGradient>
    <linearGradient gradientTransform="matrix(0.0354, 0.0, 0.0, 0.0163, -0.45, 5.55)" gradientUnits="userSpaceOnUse" id="gradient9" spreadMethod="pad" x1="-819.2" x2="819.2">
      <stop offset="0.0" stop-color="#e6e6ff"/>
      <stop offset="1.0" stop-color="#ffffff"/>
    </linearGradient>
    <linearGradient gradientTransform="matrix(0.0354, 0.0, 0.0, 0.0071, -0.45, -13.3)" gradientUnits="userSpaceOnUse" id="gradient10" spreadMethod="pad" x1="-819.2" x2="819.2">
      <stop offset="0.0" stop-color="#ffffff"/>
      <stop offset="1.0" stop-color="#bcbdfe"/>
    </linearGradient>
    <linearGradient gradientTransform="matrix(0.0354, 0.0, 0.0, 0.0163, -0.45, 5.55)" gradientUnits="userSpaceOnUse" id="gradient11" spreadMethod="pad" x1="-819.2" x2="819.2">
      <stop offset="0.0" stop-color="#e6e6ff"/>
      <stop offset="1.0" stop-color="#ffffff"/>
    </linearGradient>
    <linearGradient gradientTransform="matrix(0.0354, 0.0, 0.0, 0.0071, -0.45, -13.3)" gradientUnits="userSpaceOnUse" id="gradient12" spreadMethod="pad" x1="-819.2" x2="819.2">
      <stop offset="0.0" stop-color="#ffffff"/>
      <stop offset="1.0" stop-color="#bcbdfe"/>
    </linearGradient>
    <linearGradient gradientTransform="matrix(0.0354, 0.0, 0.0, 0.0163, -0.45, 5.55)" gradientUnits="userSpaceOnUse" id="gradient13" spreadMethod="pad" x1="-819.2" x2="819.2">
      <stop offset="0.0" stop-color="#e6e6ff"/>
      <stop offset="1.0" stop-color="#ffffff"/>
    </linearGradient>
    <linearGradient gradientTransform="matrix(0.0354, 0.0, 0.0, 0.0071, -0.45, -13.3)" gradientUnits="userSpaceOnUse" id="gradient14" spreadMethod="pad" x1="-819.2" x2="819.2">
      <stop offset="0.0" stop-color="#ffffff"/>
      <stop offset="1.0" stop-color="#bcbdfe"/>
    </linearGradient>
    <linearGradient gradientTransform="matrix(0.0354, 0.0, 0.0, 0.0163, -0.45, 5.55)" gradientUnits="userSpaceOnUse" id="gradient15" spreadMethod="pad" x1="-819.2" x2="819.2">
      <stop offset="0.0" stop-color="#e6e6ff"/>
      <stop offset="1.0" stop-color="#ffffff"/>
    </linearGradient>
    <linearGradient gradientTransform="matrix(0.0354, 0.0, 0.0, 0.0071, -0.45, -13.3)" gradientUnits="userSpaceOnUse" id="gradient16" spreadMethod="pad" x1="-819.2" x2="819.2">
      <stop offset="0.0" stop-color="#ffffff"/>
      <stop offset="1.0" stop-color="#bcbdfe"/>
    </linearGradient>
    <linearGradient gradientTransform="matrix(0.0354, 0.0, 0.0, 0.0163, -0.45, 5.55)" gradientUnits="userSpaceOnUse" id="gradient17" spreadMethod="pad" x1="-819.2" x2="819.2">
      <stop offset="0.0" stop-color="#e6e6ff"/>
      <stop offset="1.0" stop-color="#ffffff"/>
    </linearGradient>
    <linearGradient gradientTransform="matrix(0.0354, 0.0, 0.0, 0.0071, -0.45, -13.3)" gradientUnits="userSpaceOnUse" id="gradient18" spreadMethod="pad" x1="-819.2" x2="819.2">
      <stop offset="0.0" stop-color="#ffffff"/>
      <stop offset="1.0" stop-color="#bcbdfe"/>
    </linearGradient>
    <linearGradient gradientTransform="matrix(0.0354, 0.0, 0.0, 0.0163, -0.45, 5.55)" gradientUnits="userSpaceOnUse" id="gradient19" spreadMethod="pad" x1="-819.2" x2="819.2">
      <stop offset="0.0" stop-color="#e6e6ff"/>
      <stop offset="1.0" stop-color="#ffffff"/>
    </linearGradient>
    <linearGradient gradientTransform="matrix(0.0354, 0.0, 0.0, 0.0071, -0.45, -13.3)" gradientUnits="userSpaceOnUse" id="gradient20" spreadMethod="pad" x1="-819.2" x2="819.2">
      <stop offset="0.0" stop-color="#ffffff"/>
      <stop offset="1.0" stop-color="#bcbdfe"/>
    </linearGradient>
    <linearGradient gradientTransform="matrix(0.0354, 0.0, 0.0, 0.0163, -0.45, 5.55)" gradientUnits="userSpaceOnUse" id="gradient21" spreadMethod="pad" x1="-819.2" x2="819.2">
      <stop offset="0.0" stop-color="#e6e6ff"/>
      <stop offset="1.0" stop-color="#ffffff"/>
    </linearGradient>
    <linearGradient gradientTransform="matrix(0.0354, 0.0, 0.0, 0.0071, -0.45, -13.3)" gradientUnits="userSpaceOnUse" id="gradient22" spreadMethod="pad" x1="-819.2" x2="819.2">
      <stop offset="0.0" stop-color="#ffffff"/>
      <stop offset="1.0" stop-color="#bcbdfe"/>
    </linearGradient>
    <linearGradient gradientTransform="matrix(0.0354, 0.0, 0.0, 0.0163, -0.45, 5.55)" gradientUnits="userSpaceOnUse" id="gradient23" spreadMethod="pad" x1="-819.2" x2="819.2">
      <stop offset="0.0" stop-color="#e6e6ff"/>
      <stop offset="1.0" stop-color="#ffffff"/>
    </linearGradient>
    <linearGradient gradientTransform="matrix(0.0354, 0.0, 0.0, 0.0071, -0.45, -13.3)" gradientUnits="userSpaceOnUse" id="gradient24" spreadMethod="pad" x1="-819.2" x2="819.2">
      <stop offset="0.0" stop-color="#ffffff"/>
      <stop offset="1.0" stop-color="#bcbdfe"/>
    </linearGradient>
    <linearGradient gradientTransform="matrix(0.0354, 0.0, 0.0, 0.0163, -0.45, 5.55)" gradientUnits="userSpaceOnUse" id="gradient25" spreadMethod="pad" x1="-819.2" x2="819.2">
      <stop offset="0.0" stop-color="#e6e6ff"/>
      <stop offset="1.0" stop-color="#ffffff"/>
    </linearGradient>
    <linearGradient gradientTransform="matrix(0.0354, 0.0, 0.0, 0.0071, -0.45, -13.3)" gradientUnits="userSpaceOnUse" id="gradient26" spreadMethod="pad" x1="-819.2" x2="819.2">
      <stop offset="0.0" stop-color="#ffffff"/>
      <stop offset="1.0" stop-color="#bcbdfe"/>
    </linearGradient>
    <linearGradient gradientTransform="matrix(0.0354, 0.0, 0.0, 0.0163, -0.45, 5.55)" gradientUnits="userSpaceOnUse" id="gradient27" spreadMethod="pad" x1="-819.2" x2="819.2">
      <stop offset="0.0" stop-color="#e6e6ff"/>
      <stop offset="1.0" stop-color="#ffffff"/>
    </linearGradient>
    <linearGradient gradientTransform="matrix(0.0354, 0.0, 0.0, 0.0071, -0.45, -13.3)" gradientUnits="userSpaceOnUse" id="gradient28" spreadMethod="pad" x1="-819.2" x2="819.2">
      <stop offset="0.0" stop-color="#ffffff"/>
      <stop offset="1.0" stop-color="#bcbdfe"/>
    </linearGradient>
    <linearGradient gradientTransform="matrix(0.0354, 0.0, 0.0, 0.0163, -0.45, 5.55)" gradientUnits="userSpaceOnUse" id="gradient29" spreadMethod="pad" x1="-819.2" x2="819.2">
      <stop offset="0.0" stop-color="#e6e6ff"/>
      <stop offset="1.0" stop-color="#ffffff"/>
    </linearGradient>
    <linearGradient gradientTransform="matrix(0.0354, 0.0, 0.0, 0.0071, -0.45, -13.3)" gradientUnits="userSpaceOnUse" id="gradient30" spreadMethod="pad" x1="-819.2" x2="819.2">
      <stop offset="0.0" stop-color="#ffffff"/>
      <stop offset="1.0" stop-color="#bcbdfe"/>
    </linearGradient>
    <linearGradient gradientTransform="matrix(0.0354, 0.0, 0.0, 0.0163, -0.45, 5.55)" gradientUnits="userSpaceOnUse" id="gradient31" spreadMethod="pad" x1="-819.2" x2="819.2">
      <stop offset="0.0" stop-color="#e6e6ff"/>
      <stop offset="1.0" stop-color="#ffffff"/>
    </linearGradient>
    <linearGradient gradientTransform="matrix(0.0354, 0.0, 0.0, 0.0071, -0.45, -13.3)" gradientUnits="userSpaceOnUse" id="gradient32" spreadMethod="pad" x1="-819.2" x2="819.2">
      <stop offset="0.0" stop-color="#ffffff"/>
      <stop offset="1.0" stop-color="#bcbdfe"/>
    </linearGradient>
    <linearGradient gradientTransform="matrix(0.0354, 0.0, 0.0, 0.0163, -0.45, 5.55)" gradientUnits="userSpaceOnUse" id="gradient33" spreadMethod="pad" x1="-819.2" x2="819.2">
      <stop offset="0.0" stop-color="#e6e6ff"/>
      <stop offset="1.0" stop-color="#ffffff"/>
    </linearGradient>
    <linearGradient gradientTransform="matrix(0.0354, 0.0, 0.0, 0.0071, -0.45, -13.3)" gradientUnits="userSpaceOnUse" id="gradient34" spreadMethod="pad" x1="-819.2" x2="819.2">
      <stop offset="0.0" stop-color="#ffffff"/>
      <stop offset="1.0" stop-color="#bcbdfe"/>
    </linearGradient>
    <linearGradient gradientTransform="matrix(0.0354, 0.0, 0.0, 0.0163, -0.45, 5.55)" gradientUnits="userSpaceOnUse" id="gradient35" spreadMethod="pad" x1="-819.2" x2="819.2">
      <stop offset="0.0" stop-color="#e6e6ff"/>
      <stop offset="1.0" stop-color="#ffffff"/>
    </linearGradient>
    <linearGradient gradientTransform="matrix(0.0354, 0.0, 0.0, 0.0071, -0.45, -13.3)" gradientUnits="userSpaceOnUse" id="gradient36" spreadMethod="pad" x1="-819.2" x2="819.2">
      <stop offset="0.0" stop-color="#ffffff"/>
      <stop offset="1.0" stop-color="#bcbdfe"/>
    </linearGradient>
    <linearGradient gradientTransform="matrix(0.0354, 0.0, 0.0, 0.0163, -0.45, 5.55)" gradientUnits="userSpaceOnUse" id="gradient37" spreadMethod="pad" x1="-819.2" x2="819.2">
      <stop offset="0.0" stop-color="#e6e6ff"/>
      <stop offset="1.0" stop-color="#ffffff"/>
    </linearGradient>
    <linearGradient gradientTransform="matrix(0.0354, 0.0, 0.0, 0.0071, -0.45, -13.3)" gradientUnits="userSpaceOnUse" id="gradient38" spreadMethod="pad" x1="-819.2" x2="819.2">
      <stop offset="0.0" stop-color="#ffffff"/>
      <stop offset="1.0" stop-color="#bcbdfe"/>
    </linearGradient>
    <linearGradient gradientTransform="matrix(0.0354, 0.0, 0.0, 0.0163, -0.45, 5.55)" gradientUnits="userSpaceOnUse" id="gradient39" spreadMethod="pad" x1="-819.2" x2="819.2">
      <stop offset="0.0" stop-color="#e6e6ff"/>
      <stop offset="1.0" stop-color="#ffffff"/>
    </linearGradient>
    <linearGradient gradientTransform="matrix(0.0354, 0.0, 0.0, 0.0071, -0.45, -13.3)" gradientUnits="userSpaceOnUse" id="gradient40" spreadMethod="pad" x1="-819.2" x2="819.2">
      <stop offset="0.0" stop-color="#ffffff"/>
      <stop offset="1.0" stop-color="#bcbdfe"/>
    </linearGradient>
    <linearGradient gradientTransform="matrix(0.0354, 0.0, 0.0, 0.0163, -0.45, 5.55)" gradientUnits="userSpaceOnUse" id="gradient41" spreadMethod="pad" x1="-819.2" x2="819.2">
      <stop offset="0.0" stop-color="#e6e6ff"/>
      <stop offset="1.0" stop-color="#ffffff"/>
    </linearGradient>
  </defs>
</svg>
