<?xml version="1.0" encoding="UTF-8" standalone="no"?>
<svg xmlns:xlink="http://www.w3.org/1999/xlink" height="79.0px" width="89.0px" xmlns="http://www.w3.org/2000/svg">
  <g transform="matrix(1.0, 0.0, 0.0, 1.0, 44.5, 39.5)">
    <path d="M-44.5 -39.5 L44.5 -39.5 44.5 39.5 -44.5 39.5 -44.5 -39.5" fill="#ffffff" fill-rule="evenodd" stroke="none"/>
    <path d="M5.1 -4.15 L11.2 -3.65 14.9 -22.25 6.05 -23.3 6.2 -26.3 6.05 -23.3 -6.75 -24.75 -7.2 -5.15 5.1 -4.15 4.3 11.1 5.1 -4.15 M12.75 11.1 Q8.6 10.95 4.3 11.1 L-9.8 11.95 -9.8 9.95 Q-9.9 5.9 -11.8 2.95 -13.7 0.0 -16.15 0.0 -18.75 0.0 -20.45 3.1 -22.25 6.25 -21.85 10.55 L-21.4 13.4 -26.5 14.25 -31.6 -8.9 -10.4 -5.4 -11.6 -29.5 6.2 -26.3 18.9 -24.1 15.7 -3.8 29.55 -5.4 26.6 12.05 23.55 11.65 Q23.65 8.45 22.2 6.25 20.6 3.95 18.45 3.95 16.05 3.95 14.45 6.35 12.95 8.35 12.75 11.1 M15.6 -0.95 L12.75 -0.65 15.6 -0.95 M1.0 -0.95 L-1.55 -1.3 1.0 -0.95" fill="#c9e1f1" fill-rule="evenodd" stroke="none"/>
    <path d="M6.05 -23.3 L14.9 -22.25 11.2 -3.65 5.1 -4.15 -7.2 -5.15 -6.75 -24.75 6.05 -23.3 5.1 -4.15 6.05 -23.3 M16.6 9.2 Q17.3 8.1 18.35 8.1 19.4 8.1 20.15 9.2 20.85 10.2 20.85 11.75 20.85 13.25 20.15 14.35 19.4 15.4 18.35 15.4 17.3 15.4 16.6 14.35 15.85 13.25 15.85 11.75 15.85 10.2 16.6 9.2 M-18.7 10.55 Q-18.7 8.75 -17.9 7.45 -17.1 6.1 -15.95 6.1 -14.85 6.1 -14.05 7.45 -13.25 8.75 -13.25 10.55 -13.25 12.4 -14.05 13.75 -14.85 15.05 -15.95 15.05 -17.1 15.05 -17.9 13.75 -18.7 12.4 -18.7 10.55" fill="#ffffff" fill-rule="evenodd" stroke="none"/>
    <path d="M12.75 11.1 Q12.95 8.35 14.45 6.35 16.05 3.95 18.45 3.95 20.6 3.95 22.2 6.25 23.65 8.45 23.55 11.65 23.4 14.7 21.85 16.9 20.25 19.15 18.05 19.35 15.8 19.45 14.25 17.45 12.55 15.3 12.75 12.05 L12.75 11.1 M16.6 9.2 Q15.85 10.2 15.85 11.75 15.85 13.25 16.6 14.35 17.3 15.4 18.35 15.4 19.4 15.4 20.15 14.35 20.85 13.25 20.85 11.75 20.85 10.2 20.15 9.2 19.4 8.1 18.35 8.1 17.3 8.1 16.6 9.2 M-21.4 13.4 L-21.85 10.55 Q-22.25 6.25 -20.45 3.1 -18.75 0.0 -16.15 0.0 -13.7 0.0 -11.8 2.95 -9.9 5.9 -9.8 9.95 L-9.8 11.95 Q-10.0 14.7 -11.25 16.9 -12.75 19.75 -15.1 19.9 -17.6 20.15 -19.6 17.45 -20.9 15.75 -21.4 13.4 M-18.7 10.55 Q-18.7 12.4 -17.9 13.75 -17.1 15.05 -15.95 15.05 -14.85 15.05 -14.05 13.75 -13.25 12.4 -13.25 10.55 -13.25 8.75 -14.05 7.45 -14.85 6.1 -15.95 6.1 -17.1 6.1 -17.9 7.45 -18.7 8.75 -18.7 10.55" fill="#999999" fill-rule="evenodd" stroke="none"/>
    <path d="M5.1 -4.15 L4.3 11.1 M6.2 -26.3 L6.05 -23.3 M5.1 -4.15 L6.05 -23.3" fill="none" stroke="#cccccc" stroke-linecap="round" stroke-linejoin="round" stroke-width="2.0"/>
    <path d="M12.75 -0.65 L15.6 -0.95 M-1.55 -1.3 L1.0 -0.95" fill="none" stroke="#666666" stroke-linecap="round" stroke-linejoin="round" stroke-width="2.0"/>
    <path d="M15.7 -3.8 Q10.75 -3.45 5.1 -3.6 -2.15 -3.95 -10.4 -5.4 L-31.6 -8.9 -26.5 14.25 -21.4 13.4 -21.85 10.55 Q-22.25 6.25 -20.45 3.1 -18.75 0.0 -16.15 0.0 -13.7 0.0 -11.8 2.95 -9.9 5.9 -9.8 9.95 L-9.8 11.95 4.3 11.1 Q8.6 10.95 12.75 11.1 12.95 8.35 14.45 6.35 16.05 3.95 18.45 3.95 20.6 3.95 22.2 6.25 23.65 8.45 23.55 11.65 L26.6 12.05 29.55 -5.4 15.7 -3.8 18.9 -24.1 -11.6 -29.5 -10.4 -5.4" fill="none" stroke="#48648c" stroke-linecap="round" stroke-linejoin="miter" stroke-miterlimit="3.0" stroke-width="2.0"/>
    <path d="M23.55 11.65 Q23.4 14.7 21.85 16.9 20.9 18.2 19.8 18.85 M18.1 19.35 L18.05 19.35 Q15.8 19.45 14.25 17.45 12.55 15.3 12.75 12.05 L12.75 11.1 M-9.8 11.95 Q-10.0 14.7 -11.25 16.9 -12.75 19.75 -15.1 19.9 -17.6 20.15 -19.6 17.45 -20.9 15.75 -21.4 13.4" fill="none" stroke="#666666" stroke-linecap="round" stroke-linejoin="miter" stroke-miterlimit="3.0" stroke-width="2.0"/>
    <path d="M6.35 23.0 L-5.15 19.05 -13.1 22.55 -23.65 17.25 -33.15 23.0" fill="none" stroke="#666666" stroke-linecap="butt" stroke-linejoin="miter" stroke-miterlimit="3.0" stroke-width="2.0"/>
    <path d="M19.8 18.85 L30.75 23.65 M18.1 19.35 L6.35 23.0" fill="none" stroke="#666666" stroke-linecap="round" stroke-linejoin="miter" stroke-miterlimit="3.0" stroke-width="2.0"/>
    <path d="M19.8 18.85 L18.1 19.35" fill="none" stroke="#666666" stroke-linecap="round" stroke-linejoin="miter" stroke-miterlimit="3.0" stroke-width="2.0"/>
  </g>
</svg>
