<?xml version="1.0" encoding="UTF-8" standalone="no"?>
<svg xmlns:xlink="http://www.w3.org/1999/xlink" height="72.0px" width="80.0px" xmlns="http://www.w3.org/2000/svg">
  <g transform="matrix(1.0, 0.0, 0.0, 1.0, 0.0, 0.0)">
    <path d="M80.0 0.0 L80.0 72.0 0.0 72.0 0.0 0.0 80.0 0.0" fill="#000000" fill-rule="evenodd" stroke="none"/>
    <path d="M53.05 34.5 Q53.5 34.5 53.85 34.85 L54.15 35.6 53.85 36.4 53.05 36.7 52.3 36.4 Q51.95 36.05 51.95 35.6 51.95 35.15 52.3 34.85 52.6 34.5 53.05 34.5 M53.85 25.25 Q54.35 25.25 54.7 25.6 L55.0 26.4 54.7 27.25 53.85 27.55 53.05 27.25 Q52.7 26.9 52.7 26.4 52.7 25.9 53.05 25.6 53.35 25.25 53.85 25.25 M48.25 24.2 L48.45 23.7 48.9 23.5 49.35 23.7 49.55 24.2 49.35 24.7 48.9 24.9 48.45 24.7 48.25 24.2 M44.35 17.95 L44.45 18.35 44.35 18.8 44.05 18.95 43.8 18.8 43.65 18.35 Q43.65 18.1 43.8 17.95 43.9 17.75 44.05 17.75 44.2 17.75 44.35 17.95 M49.05 18.55 Q49.05 18.1 49.35 17.8 49.65 17.5 50.05 17.5 50.45 17.5 50.75 17.8 L51.05 18.55 50.75 19.3 50.05 19.6 Q49.65 19.6 49.35 19.3 49.05 19.0 49.05 18.55 M40.85 11.5 Q41.25 11.5 41.55 11.8 L41.85 12.55 41.55 13.3 40.85 13.6 Q40.45 13.6 40.15 13.3 39.85 13.0 39.85 12.55 39.85 12.1 40.15 11.8 40.45 11.5 40.85 11.5 M41.05 47.4 L40.85 48.1 40.3 48.35 39.8 48.1 39.55 47.4 Q39.55 47.0 39.8 46.75 40.0 46.45 40.3 46.45 40.6 46.45 40.85 46.75 L41.05 47.4 M41.8 42.05 L42.0 41.45 Q42.2 41.2 42.45 41.2 L42.9 41.45 43.1 42.05 42.9 42.65 42.45 42.9 42.0 42.65 41.8 42.05 M49.15 42.3 Q49.5 42.65 49.5 43.2 49.5 43.75 49.15 44.15 L48.25 44.5 Q47.75 44.5 47.4 44.15 47.0 43.75 47.0 43.2 47.0 42.65 47.4 42.3 47.75 41.9 48.25 41.9 48.75 41.9 49.15 42.3 M47.7 36.7 L48.15 36.9 48.35 37.4 48.15 37.9 47.7 38.1 47.25 37.9 47.05 37.4 47.25 36.9 47.7 36.7 M49.65 29.0 Q49.9 29.0 50.1 29.2 L50.3 29.7 50.1 30.2 Q49.9 30.4 49.65 30.4 L49.2 30.2 49.0 29.7 49.2 29.2 49.65 29.0 M19.2 29.55 Q19.2 28.9 19.65 28.45 20.1 27.95 20.75 27.95 21.4 27.95 21.85 28.45 22.3 28.9 22.3 29.55 22.3 30.2 21.85 30.7 21.4 31.15 20.75 31.15 20.1 31.15 19.65 30.7 19.2 30.2 19.2 29.55 M36.45 16.9 L36.25 17.4 35.75 17.6 Q35.45 17.6 35.25 17.4 L35.05 16.9 35.25 16.4 35.75 16.2 36.25 16.4 36.45 16.9 M29.65 19.5 L30.1 19.7 30.3 20.15 30.1 20.6 29.65 20.8 Q29.4 20.8 29.2 20.6 L29.0 20.15 29.2 19.7 Q29.4 19.5 29.65 19.5 M23.2 20.5 Q22.9 20.15 22.9 19.65 22.9 19.15 23.2 18.8 23.45 18.45 23.85 18.45 24.25 18.45 24.55 18.8 L24.8 19.65 24.55 20.5 Q24.25 20.85 23.85 20.85 23.45 20.85 23.2 20.5 M30.35 14.3 L29.75 14.55 29.15 14.3 28.9 13.65 29.15 13.05 Q29.4 12.75 29.75 12.75 30.1 12.75 30.35 13.05 L30.6 13.65 30.35 14.3 M35.9 42.7 Q35.9 42.35 36.15 42.15 36.35 41.9 36.7 41.9 L37.3 42.15 37.5 42.7 37.3 43.3 36.7 43.5 36.15 43.3 35.9 42.7 M29.95 45.95 Q29.95 45.45 30.3 45.1 30.65 44.75 31.15 44.75 31.65 44.75 32.0 45.1 32.35 45.45 32.35 45.95 L32.0 46.8 31.15 47.15 Q30.65 47.15 30.3 46.8 29.95 46.45 29.95 45.95 M24.5 39.2 Q24.85 39.55 24.85 40.05 L24.5 40.95 23.65 41.3 Q23.15 41.3 22.8 40.95 22.45 40.55 22.45 40.05 22.45 39.55 22.8 39.2 23.15 38.8 23.65 38.8 24.15 38.8 24.5 39.2 M29.5 39.3 L29.3 38.8 29.5 38.3 30.0 38.1 30.5 38.3 30.7 38.8 30.5 39.3 Q30.3 39.5 30.0 39.5 L29.5 39.3 M27.2 34.4 L26.75 34.55 26.35 34.4 26.15 33.95 26.35 33.55 26.75 33.35 27.2 33.55 27.35 33.95 27.2 34.4 M25.4 25.2 L26.0 25.45 26.2 26.0 26.0 26.6 25.4 26.8 Q25.05 26.8 24.85 26.6 L24.6 26.0 Q24.6 25.65 24.85 25.45 25.05 25.2 25.4 25.2" fill="#ff9900" fill-rule="evenodd" stroke="none"/>
    <path d="M60.35 33.85 Q60.35 33.6 60.5 33.45 L60.85 33.25 61.25 33.45 61.4 33.85 61.25 34.35 60.85 34.45 60.5 34.35 60.35 33.85 M60.5 37.75 L60.8 37.65 61.1 37.75 61.15 38.05 61.1 38.4 60.8 38.55 60.5 38.4 60.4 38.05 60.5 37.75 M56.45 37.75 L56.65 37.2 Q56.8 37.05 57.05 37.05 L57.5 37.2 57.7 37.75 57.5 38.3 57.05 38.55 56.65 38.3 56.45 37.75 M58.05 41.3 L58.4 41.5 58.5 41.9 58.4 42.3 58.05 42.45 Q57.9 42.45 57.7 42.3 L57.55 41.9 Q57.55 41.65 57.7 41.5 L58.05 41.3 M54.05 44.2 Q54.05 43.75 54.35 43.4 54.65 43.1 54.95 43.1 55.4 43.1 55.65 43.4 L55.95 44.2 55.65 45.0 Q55.4 45.3 54.95 45.3 54.65 45.3 54.35 45.0 54.05 44.65 54.05 44.2 M59.2 47.35 L58.95 47.5 Q58.75 47.5 58.65 47.35 L58.55 47.05 58.65 46.75 Q58.75 46.6 58.95 46.6 L59.2 46.75 59.3 47.05 59.2 47.35 M73.7 36.5 Q73.85 36.25 74.1 36.25 74.35 36.25 74.55 36.5 74.75 36.7 74.75 37.05 L74.55 37.6 74.1 37.75 73.7 37.6 73.5 37.05 73.7 36.5 M65.15 35.95 L65.05 36.25 64.75 36.4 64.45 36.25 64.35 35.95 64.45 35.6 64.75 35.5 65.05 35.6 65.15 35.95 M68.75 33.15 L68.55 33.7 68.1 33.85 67.7 33.7 67.5 33.15 67.7 32.6 Q67.85 32.4 68.1 32.4 L68.55 32.6 68.75 33.15 M70.05 36.7 L70.15 36.5 Q70.35 36.5 70.4 36.7 L70.45 36.9 70.4 37.2 70.15 37.3 70.05 37.2 69.9 36.9 70.05 36.7 M76.6 41.3 Q76.9 41.3 77.05 41.6 L77.25 42.15 77.05 42.7 Q76.9 42.9 76.6 42.9 76.3 42.9 76.05 42.7 L75.85 42.15 76.05 41.6 76.6 41.3 M73.4 40.3 L73.65 40.4 73.8 40.7 73.65 41.05 73.4 41.2 73.05 41.05 Q72.9 40.95 72.9 40.7 72.9 40.5 73.05 40.4 L73.4 40.3 M74.1 44.0 L74.25 44.35 74.1 44.65 73.85 44.8 73.5 44.65 73.45 44.35 73.5 44.0 Q73.7 43.8 73.85 43.8 L74.1 44.0 M72.55 48.85 L72.9 49.0 72.95 49.3 72.9 49.65 72.55 49.8 72.3 49.65 72.15 49.3 72.3 49.0 Q72.4 48.85 72.55 48.85 M75.6 47.6 Q75.75 47.35 76.05 47.35 L76.55 47.6 76.75 48.15 76.55 48.7 76.05 48.9 Q75.75 48.9 75.6 48.7 L75.45 48.15 Q75.45 47.8 75.6 47.6 M72.9 52.2 Q73.2 52.2 73.45 52.5 L73.7 53.1 73.45 53.7 72.9 53.95 72.35 53.7 72.15 53.1 72.35 52.5 Q72.55 52.2 72.9 52.2 M68.85 52.0 L69.15 51.85 69.45 52.0 69.6 52.35 69.45 52.7 69.15 52.9 68.85 52.7 68.75 52.35 68.85 52.0 M67.75 55.2 L68.1 55.4 68.25 55.8 68.1 56.25 67.75 56.4 67.35 56.25 67.25 55.8 67.35 55.4 67.75 55.2 M65.75 52.45 L65.8 52.75 65.75 53.2 65.4 53.3 65.05 53.2 64.9 52.75 65.05 52.45 Q65.2 52.3 65.4 52.3 L65.75 52.45 M61.05 49.8 L61.35 49.95 61.45 50.25 61.35 50.6 61.05 50.7 60.75 50.6 60.6 50.25 Q60.6 50.05 60.75 49.95 60.85 49.8 61.05 49.8 M61.05 54.85 L61.25 54.25 Q61.5 54.0 61.8 54.0 62.05 54.0 62.3 54.25 L62.55 54.85 62.3 55.45 61.8 55.7 61.25 55.45 61.05 54.85 M56.9 50.1 Q57.2 50.1 57.4 50.4 L57.65 51.0 57.4 51.6 56.9 51.85 56.4 51.6 56.2 51.0 56.4 50.4 56.9 50.1" fill="#ff0000" fill-rule="evenodd" stroke="none"/>
    <path d="M15.7 29.85 Q15.7 29.0 17.0 29.25 L17.15 29.4 17.15 29.85 Q17.15 30.8 16.55 30.8 L15.9 30.4 15.7 29.85 M10.8 28.6 L10.5 30.3 10.15 31.8 Q9.9 31.5 9.9 30.6 L10.25 27.7 10.6 27.7 10.8 28.6 M12.5 34.5 Q12.5 33.7 13.65 33.35 L16.25 33.4 16.35 33.7 Q15.45 34.4 13.0 35.0 L12.65 34.95 12.5 34.5 M11.85 36.4 Q12.45 36.45 13.9 38.15 L16.1 40.8 15.95 41.2 15.7 41.25 Q14.9 41.25 13.25 39.05 L11.75 36.75 11.85 36.4 M7.8 27.0 L7.25 26.25 Q7.25 25.3 8.25 25.6 L8.35 26.25 Q8.35 26.85 8.1 26.8 L7.8 27.0 M3.25 35.0 L3.15 35.45 2.7 35.7 2.0 35.1 Q2.0 33.95 3.1 34.4 L3.2 34.6 3.25 35.0 M7.75 34.3 L7.7 34.5 6.2 33.3 4.75 31.5 Q5.55 30.65 6.4 32.1 L7.75 34.3 M4.6 40.8 Q6.8 37.55 8.35 36.45 L6.95 39.0 Q5.9 40.5 4.6 40.8 M9.4 39.3 Q9.55 36.15 10.15 35.75 10.7 36.4 10.85 39.65 L10.85 43.8 10.8 50.1 10.4 58.3 Q10.0 58.45 9.75 52.1 L9.35 43.8 9.4 39.3 M5.9 42.15 Q6.7 42.15 6.7 43.1 6.65 44.0 5.9 44.0 L5.2 43.6 5.1 43.1 Q5.1 42.15 5.9 42.15 M18.55 38.35 L18.45 38.8 Q18.35 39.1 17.9 39.1 L17.5 39.0 17.2 38.8 17.2 38.3 Q17.2 37.8 17.9 37.7 18.55 37.5 18.55 38.35" fill="#00ff00" fill-rule="evenodd" stroke="none"/>
    <path d="M40.85 11.5 Q40.45 11.5 40.15 11.8 39.85 12.1 39.85 12.55 39.85 13.0 40.15 13.3 40.45 13.6 40.85 13.6 L41.55 13.3 41.85 12.55 41.55 11.8 Q41.25 11.5 40.85 11.5 M49.05 18.55 Q49.05 19.0 49.35 19.3 49.65 19.6 50.05 19.6 L50.75 19.3 51.05 18.55 50.75 17.8 Q50.45 17.5 50.05 17.5 49.65 17.5 49.35 17.8 49.05 18.1 49.05 18.55 M44.35 17.95 Q44.2 17.75 44.05 17.75 43.9 17.75 43.8 17.95 43.65 18.1 43.65 18.35 L43.8 18.8 44.05 18.95 44.35 18.8 44.45 18.35 44.35 17.95 M48.25 24.2 L48.45 24.7 48.9 24.9 49.35 24.7 49.55 24.2 49.35 23.7 48.9 23.5 48.45 23.7 48.25 24.2 M53.85 25.25 Q53.35 25.25 53.05 25.6 52.7 25.9 52.7 26.4 52.7 26.9 53.05 27.25 L53.85 27.55 54.7 27.25 55.0 26.4 54.7 25.6 Q54.35 25.25 53.85 25.25 M53.05 34.5 Q52.6 34.5 52.3 34.85 51.95 35.15 51.95 35.6 51.95 36.05 52.3 36.4 L53.05 36.7 53.85 36.4 54.15 35.6 53.85 34.85 Q53.5 34.5 53.05 34.5 M49.65 29.0 L49.2 29.2 49.0 29.7 49.2 30.2 49.65 30.4 Q49.9 30.4 50.1 30.2 L50.3 29.7 50.1 29.2 Q49.9 29.0 49.65 29.0 M47.7 36.7 L47.25 36.9 47.05 37.4 47.25 37.9 47.7 38.1 48.15 37.9 48.35 37.4 48.15 36.9 47.7 36.7 M49.15 42.3 Q48.75 41.9 48.25 41.9 47.75 41.9 47.4 42.3 47.0 42.65 47.0 43.2 47.0 43.75 47.4 44.15 47.75 44.5 48.25 44.5 L49.15 44.15 Q49.5 43.75 49.5 43.2 49.5 42.65 49.15 42.3 M41.8 42.05 L42.0 42.65 42.45 42.9 42.9 42.65 43.1 42.05 42.9 41.45 42.45 41.2 Q42.2 41.2 42.0 41.45 L41.8 42.05 M41.05 47.4 L40.85 46.75 Q40.6 46.45 40.3 46.45 40.0 46.45 39.8 46.75 39.55 47.0 39.55 47.4 L39.8 48.1 40.3 48.35 40.85 48.1 41.05 47.4 M30.35 14.3 L30.6 13.65 30.35 13.05 Q30.1 12.75 29.75 12.75 29.4 12.75 29.15 13.05 L28.9 13.65 29.15 14.3 29.75 14.55 30.35 14.3 M23.2 20.5 Q23.45 20.85 23.85 20.85 24.25 20.85 24.55 20.5 L24.8 19.65 24.55 18.8 Q24.25 18.45 23.85 18.45 23.45 18.45 23.2 18.8 22.9 19.15 22.9 19.65 22.9 20.15 23.2 20.5 M29.65 19.5 Q29.4 19.5 29.2 19.7 L29.0 20.15 29.2 20.6 Q29.4 20.8 29.65 20.8 L30.1 20.6 30.3 20.15 30.1 19.7 29.65 19.5 M36.45 16.9 L36.25 16.4 35.75 16.2 35.25 16.4 35.05 16.9 35.25 17.4 Q35.45 17.6 35.75 17.6 L36.25 17.4 36.45 16.9 M19.2 29.55 Q19.2 30.2 19.65 30.7 20.1 31.15 20.75 31.15 21.4 31.15 21.85 30.7 22.3 30.2 22.3 29.55 22.3 28.9 21.85 28.45 21.4 27.95 20.75 27.95 20.1 27.95 19.65 28.45 19.2 28.9 19.2 29.55 M25.4 25.2 Q25.05 25.2 24.85 25.45 24.6 25.65 24.6 26.0 L24.85 26.6 Q25.05 26.8 25.4 26.8 L26.0 26.6 26.2 26.0 26.0 25.45 25.4 25.2 M27.2 34.4 L27.35 33.95 27.2 33.55 26.75 33.35 26.35 33.55 26.15 33.95 26.35 34.4 26.75 34.55 27.2 34.4 M29.5 39.3 L30.0 39.5 Q30.3 39.5 30.5 39.3 L30.7 38.8 30.5 38.3 30.0 38.1 29.5 38.3 29.3 38.8 29.5 39.3 M24.5 39.2 Q24.15 38.8 23.65 38.8 23.15 38.8 22.8 39.2 22.45 39.55 22.45 40.05 22.45 40.55 22.8 40.95 23.15 41.3 23.65 41.3 L24.5 40.95 24.85 40.05 Q24.85 39.55 24.5 39.2 M29.95 45.95 Q29.95 46.45 30.3 46.8 30.65 47.15 31.15 47.15 L32.0 46.8 32.35 45.95 Q32.35 45.45 32.0 45.1 31.65 44.75 31.15 44.75 30.65 44.75 30.3 45.1 29.95 45.45 29.95 45.95 M35.9 42.7 L36.15 43.3 36.7 43.5 37.3 43.3 37.5 42.7 37.3 42.15 36.7 41.9 Q36.35 41.9 36.15 42.15 35.9 42.35 35.9 42.7" fill="none" stroke="#ff9900" stroke-linecap="round" stroke-linejoin="round" stroke-width="1.0"/>
    <path d="M60.35 33.85 Q60.35 33.6 60.5 33.45 L60.85 33.25 61.25 33.45 61.4 33.85 61.25 34.35 60.85 34.45 60.5 34.35 60.35 33.85 M60.5 37.75 L60.8 37.65 61.1 37.75 61.15 38.05 61.1 38.4 60.8 38.55 60.5 38.4 60.4 38.05 60.5 37.75 M56.45 37.75 L56.65 37.2 Q56.8 37.05 57.05 37.05 L57.5 37.2 57.7 37.75 57.5 38.3 57.05 38.55 56.65 38.3 56.45 37.75 M58.05 41.3 L58.4 41.5 58.5 41.9 58.4 42.3 58.05 42.45 Q57.9 42.45 57.7 42.3 L57.55 41.9 Q57.55 41.65 57.7 41.5 L58.05 41.3 M54.05 44.2 Q54.05 43.75 54.35 43.4 54.65 43.1 54.95 43.1 55.4 43.1 55.65 43.4 L55.95 44.2 55.65 45.0 Q55.4 45.3 54.95 45.3 54.65 45.3 54.35 45.0 54.05 44.65 54.05 44.2 M59.2 47.35 L58.95 47.5 Q58.75 47.5 58.65 47.35 L58.55 47.05 58.65 46.75 Q58.75 46.6 58.95 46.6 L59.2 46.75 59.3 47.05 59.2 47.35 M73.7 36.5 Q73.85 36.25 74.1 36.25 74.35 36.25 74.55 36.5 74.75 36.7 74.75 37.05 L74.55 37.6 74.1 37.75 73.7 37.6 73.5 37.05 73.7 36.5 M65.15 35.95 L65.05 36.25 64.75 36.4 64.45 36.25 64.35 35.95 64.45 35.6 64.75 35.5 65.05 35.6 65.15 35.95 M68.75 33.15 L68.55 33.7 68.1 33.85 67.7 33.7 67.5 33.15 67.7 32.6 Q67.85 32.4 68.1 32.4 L68.55 32.6 68.75 33.15 M70.05 36.7 L70.15 36.5 Q70.35 36.5 70.4 36.7 L70.45 36.9 70.4 37.2 70.15 37.3 70.05 37.2 69.9 36.9 70.05 36.7 M76.6 41.3 Q76.9 41.3 77.05 41.6 L77.25 42.15 77.05 42.7 Q76.9 42.9 76.6 42.9 76.3 42.9 76.05 42.7 L75.85 42.15 76.05 41.6 76.6 41.3 M73.4 40.3 L73.65 40.4 73.8 40.7 73.65 41.05 73.4 41.2 73.05 41.05 Q72.9 40.95 72.9 40.7 72.9 40.5 73.05 40.4 L73.4 40.3 M74.1 44.0 L74.25 44.35 74.1 44.65 73.85 44.8 73.5 44.65 73.45 44.35 73.5 44.0 Q73.7 43.8 73.85 43.8 L74.1 44.0 M72.55 48.85 L72.9 49.0 72.95 49.3 72.9 49.65 72.55 49.8 72.3 49.65 72.15 49.3 72.3 49.0 Q72.4 48.85 72.55 48.85 M75.6 47.6 Q75.75 47.35 76.05 47.35 L76.55 47.6 76.75 48.15 76.55 48.7 76.05 48.9 Q75.75 48.9 75.6 48.7 L75.45 48.15 Q75.45 47.8 75.6 47.6 M72.9 52.2 Q73.2 52.2 73.45 52.5 L73.7 53.1 73.45 53.7 72.9 53.95 72.35 53.7 72.15 53.1 72.35 52.5 Q72.55 52.2 72.9 52.2 M68.85 52.0 L69.15 51.85 69.45 52.0 69.6 52.35 69.45 52.7 69.15 52.9 68.85 52.7 68.75 52.35 68.85 52.0 M67.75 55.2 L68.1 55.4 68.25 55.8 68.1 56.25 67.75 56.4 67.35 56.25 67.25 55.8 67.35 55.4 67.75 55.2 M65.75 52.45 L65.8 52.75 65.75 53.2 65.4 53.3 65.05 53.2 64.9 52.75 65.05 52.45 Q65.2 52.3 65.4 52.3 L65.75 52.45 M61.05 49.8 L61.35 49.95 61.45 50.25 61.35 50.6 61.05 50.7 60.75 50.6 60.6 50.25 Q60.6 50.05 60.75 49.95 60.85 49.8 61.05 49.8 M61.05 54.85 L61.25 54.25 Q61.5 54.0 61.8 54.0 62.05 54.0 62.3 54.25 L62.55 54.85 62.3 55.45 61.8 55.7 61.25 55.45 61.05 54.85 M56.9 50.1 Q57.2 50.1 57.4 50.4 L57.65 51.0 57.4 51.6 56.9 51.85 56.4 51.6 56.2 51.0 56.4 50.4 56.9 50.1" fill="none" stroke="#ff0000" stroke-linecap="round" stroke-linejoin="round" stroke-width="1.0"/>
    <path d="M10.8 28.6 L10.5 30.3 10.15 31.8 Q9.9 31.5 9.9 30.6 L10.25 27.7 10.6 27.7 10.8 28.6 M12.5 34.5 Q12.5 33.7 13.65 33.35 L16.25 33.4 16.35 33.7 Q15.45 34.4 13.0 35.0 L12.65 34.95 12.5 34.5 M7.8 27.0 L7.25 26.25 Q7.25 25.3 8.25 25.6 L8.35 26.25 Q8.35 26.85 8.1 26.8 L7.8 27.0 M7.75 34.3 L7.7 34.5 6.2 33.3 4.75 31.5 Q5.55 30.65 6.4 32.1 L7.75 34.3 M5.9 42.15 Q6.7 42.15 6.7 43.1 6.65 44.0 5.9 44.0 L5.2 43.6 5.1 43.1 Q5.1 42.15 5.9 42.15" fill="none" stroke="#00ff00" stroke-linecap="round" stroke-linejoin="round" stroke-width="1.0"/>
  </g>
</svg>
