<?xml version="1.0" encoding="UTF-8" standalone="no"?>
<svg xmlns:xlink="http://www.w3.org/1999/xlink" height="42.6px" width="63.1px" xmlns="http://www.w3.org/2000/svg">
  <g transform="matrix(1.0, 0.0, 0.0, 1.0, 0.0, 0.0)">
    <path d="M45.2 22.55 L54.15 0.0 45.2 22.55 0.0 23.75 0.0 0.0 54.15 0.0 63.1 0.0 62.75 42.45 49.25 42.55 48.95 35.1 49.25 42.55 47.05 42.55 49.25 42.55 49.25 42.6 47.05 42.6 47.05 42.55 47.0 38.95 47.05 42.55 45.6 42.6 47.0 38.95 47.0 35.3 48.95 35.1 51.25 34.8 51.25 31.3 45.2 22.55 M43.9 24.5 L44.4 24.65 44.85 25.1 44.95 25.5 44.65 25.65 44.1 25.5 43.7 25.05 Q43.5 24.8 43.6 24.65 43.65 24.5 43.9 24.5 M46.2 27.55 L46.5 27.8 46.5 27.85 46.6 28.0 46.7 28.4 46.4 28.55 45.9 28.4 45.55 28.05 45.5 28.0 45.4 27.55 45.55 27.4 45.7 27.35 46.2 27.55 M45.75 26.55 L45.85 26.95 45.55 27.1 45.0 26.95 44.8 26.8 44.6 26.55 44.5 26.1 Q44.6 25.95 44.8 25.95 L45.3 26.1 45.7 26.5 45.75 26.55 M47.5 29.35 L47.5 29.4 47.55 29.7 47.25 29.9 46.75 29.7 46.45 29.5 46.4 29.4 46.35 29.3 46.3 29.3 46.3 29.0 Q46.35 28.85 46.6 28.85 L47.1 29.0 47.5 29.35 M46.1 29.95 L45.8 30.1 45.3 29.95 44.95 29.65 44.9 29.55 44.8 29.15 Q44.85 29.0 45.1 29.0 L45.6 29.15 46.0 29.55 46.1 29.95 M43.4 25.65 L43.1 25.8 42.65 25.65 42.55 25.6 42.1 25.2 42.0 24.75 Q42.1 24.6 42.35 24.6 L42.85 24.75 43.3 25.2 43.4 25.65 M43.8 26.25 L44.2 26.7 44.3 26.85 44.35 26.95 44.3 27.05 44.0 27.25 Q43.8 27.25 43.5 27.05 L43.35 26.95 43.05 26.65 42.95 26.45 42.95 26.25 Q43.05 26.05 43.25 26.1 L43.8 26.25 M44.2 27.5 L44.7 27.7 45.05 28.05 45.15 28.15 45.2 28.55 44.95 28.7 44.4 28.55 44.0 28.15 43.9 28.0 43.9 27.7 Q43.95 27.5 44.2 27.5 M41.5 25.85 L41.05 25.75 40.95 25.7 40.45 25.25 40.35 24.8 Q40.45 24.65 40.7 24.65 L41.25 24.85 41.65 25.3 41.75 25.7 41.5 25.85 M40.8 27.45 L40.3 27.25 40.05 27.05 39.85 26.85 39.7 26.4 Q39.8 26.25 40.05 26.25 L40.55 26.45 41.05 26.85 41.15 27.0 41.15 27.25 40.8 27.45 M41.45 26.75 L41.35 26.3 Q41.4 26.15 41.65 26.15 L42.2 26.3 42.65 26.75 42.7 27.0 42.7 27.15 42.4 27.3 41.9 27.15 41.7 27.0 41.45 26.75 M42.6 27.6 L43.15 27.8 43.35 28.0 43.55 28.25 43.65 28.6 43.35 28.8 42.85 28.6 42.4 28.25 42.3 28.0 42.3 27.8 Q42.35 27.6 42.6 27.6 M42.45 29.35 L42.9 29.75 42.95 29.85 43.0 30.15 42.7 30.3 42.2 30.15 41.9 29.95 41.75 29.75 41.65 29.35 Q41.7 29.2 41.95 29.2 L42.45 29.35 M42.05 28.75 Q42.0 28.9 41.75 28.9 L41.25 28.75 40.8 28.35 40.7 28.05 40.7 27.95 41.0 27.7 Q41.25 27.7 41.5 27.95 L41.6 28.0 42.0 28.35 42.05 28.75 M41.35 29.8 L41.35 29.85 41.4 30.0 41.4 30.15 41.1 30.35 40.55 30.15 40.45 30.1 40.15 29.8 40.15 29.75 40.1 29.75 40.1 29.7 40.05 29.4 Q40.15 29.25 40.35 29.25 L40.9 29.4 41.35 29.8 M44.05 29.25 L44.45 29.65 44.5 29.7 44.55 30.05 Q44.5 30.2 44.25 30.2 L43.75 30.05 43.45 29.8 43.35 29.65 43.2 29.2 43.55 29.1 44.05 29.25 M3.2 26.4 L18.1 25.95 22.35 32.25 7.2 33.5 3.2 26.4 M39.85 25.95 L39.6 25.9 39.3 25.8 38.85 25.35 38.75 25.05 38.75 24.9 Q38.8 24.75 39.05 24.75 L39.6 24.95 Q39.9 25.1 40.05 25.35 L40.1 25.45 40.15 25.8 40.15 25.85 39.85 25.95 M38.55 25.85 L38.2 26.0 Q37.95 26.0 37.65 25.8 L37.2 25.4 37.05 25.05 37.05 24.95 Q37.15 24.8 37.4 24.8 L37.95 24.95 38.05 25.0 38.4 25.4 38.55 25.85 M38.1 26.45 Q38.15 26.3 38.4 26.3 38.65 26.3 38.95 26.45 L39.4 26.9 39.5 27.05 39.5 27.3 39.2 27.45 38.65 27.3 38.35 27.1 38.2 26.9 Q38.0 26.65 38.1 26.45 M36.85 25.85 L36.55 26.05 35.95 25.85 35.5 25.4 35.4 25.15 35.4 24.95 Q35.45 24.8 35.7 24.8 L36.25 25.0 36.35 25.05 36.75 25.45 36.85 25.85 M36.4 26.5 Q36.5 26.3 36.75 26.35 37.0 26.35 37.3 26.5 L37.75 26.95 37.9 27.15 37.9 27.35 37.6 27.55 37.0 27.35 36.75 27.2 36.55 26.95 36.4 26.5 M36.2 27.45 L35.85 27.6 35.3 27.45 35.15 27.35 34.85 27.05 34.7 26.65 34.7 26.6 Q34.8 26.4 35.05 26.4 L35.45 26.55 35.55 26.6 36.05 27.05 36.2 27.25 36.2 27.45 M37.75 27.85 L38.3 28.05 38.45 28.15 38.8 28.45 38.85 28.85 38.6 29.05 38.0 28.85 37.6 28.45 37.5 28.25 37.45 28.05 37.75 27.85 M37.2 28.95 L36.9 29.15 36.35 28.95 35.9 28.55 35.85 28.5 35.75 28.1 Q35.8 27.95 36.05 27.95 L36.65 28.15 36.9 28.3 37.1 28.55 37.2 28.95 M35.55 29.05 L35.25 29.25 34.65 29.05 34.45 28.95 34.2 28.7 34.05 28.25 Q34.15 28.05 34.4 28.05 L34.95 28.25 35.4 28.6 35.45 28.65 35.55 29.05 M36.0 29.7 Q36.3 29.85 36.45 30.1 L36.55 30.3 36.55 30.5 36.3 30.7 35.7 30.5 35.35 30.25 35.25 30.15 35.1 29.7 Q35.2 29.55 35.45 29.55 L36.0 29.7 M36.8 29.6 Q36.85 29.4 37.1 29.45 L37.65 29.6 38.1 30.0 38.25 30.25 38.2 30.4 37.9 30.6 37.35 30.4 37.2 30.3 36.9 30.0 Q36.7 29.75 36.8 29.6 M40.1 28.05 L40.4 28.4 40.45 28.8 Q40.45 28.95 40.2 28.95 L39.65 28.8 39.2 28.4 39.1 28.1 39.1 27.95 Q39.15 27.8 39.4 27.8 L39.95 27.95 40.1 28.05 M38.45 29.5 Q38.5 29.3 38.75 29.3 L39.3 29.5 39.75 29.9 39.85 30.15 39.85 30.3 Q39.8 30.45 39.55 30.45 L39.0 30.3 38.85 30.2 38.6 29.9 38.45 29.5 M34.8 26.1 L34.25 25.95 33.8 25.55 33.75 25.5 33.65 25.05 Q33.7 24.9 33.95 24.9 L34.55 25.05 34.8 25.25 35.0 25.5 35.15 25.95 34.8 26.1 M33.4 25.75 L33.4 26.05 33.1 26.2 32.85 26.2 32.5 26.05 32.0 25.6 31.9 25.15 Q31.95 24.95 32.2 24.95 32.5 25.0 32.8 25.2 33.15 25.35 33.3 25.6 L33.4 25.75 M33.3 26.5 L33.9 26.7 34.0 26.75 34.4 27.15 34.5 27.45 34.5 27.55 34.2 27.8 33.65 27.55 33.15 27.15 33.05 26.95 33.0 26.7 Q33.05 26.5 33.3 26.5 M33.2 29.55 L30.75 29.75 27.4 24.9 29.9 24.8 33.2 29.55 M29.95 29.75 L27.5 29.95 24.15 25.0 26.6 24.9 29.95 29.75 M24.25 30.1 L20.75 25.1 23.25 25.0 26.65 29.95 24.25 30.1" fill="#f00000" fill-rule="evenodd" stroke="none"/>
    <path d="M45.2 22.55 L51.25 31.3 51.25 34.8 48.95 35.1 47.0 35.3 47.0 38.95 45.6 42.6 44.4 42.6 0.05 42.6 0.0 41.3 0.0 36.35 0.0 23.75 45.2 22.55 M44.05 29.25 L43.55 29.1 43.2 29.2 43.35 29.65 43.45 29.8 43.75 30.05 44.25 30.2 Q44.5 30.2 44.55 30.05 L44.5 29.7 44.45 29.65 44.05 29.25 M41.35 29.8 L40.9 29.4 40.35 29.25 Q40.15 29.25 40.05 29.4 L40.1 29.7 40.1 29.75 40.15 29.75 40.15 29.8 40.45 30.1 40.55 30.15 41.1 30.35 41.4 30.15 41.4 30.0 41.35 29.85 41.35 29.8 M42.05 28.75 L42.0 28.35 41.6 28.0 41.5 27.95 Q41.25 27.7 41.0 27.7 L40.7 27.95 40.7 28.05 40.8 28.35 41.25 28.75 41.75 28.9 Q42.0 28.9 42.05 28.75 M42.45 29.35 L41.95 29.2 Q41.7 29.2 41.65 29.35 L41.75 29.75 41.9 29.95 42.2 30.15 42.7 30.3 43.0 30.15 42.95 29.85 42.9 29.75 42.45 29.35 M42.6 27.6 Q42.35 27.6 42.3 27.8 L42.3 28.0 42.4 28.25 42.85 28.6 43.35 28.8 43.65 28.6 43.55 28.25 43.35 28.0 43.15 27.8 42.6 27.6 M41.45 26.75 L41.7 27.0 41.9 27.15 42.4 27.3 42.7 27.15 42.7 27.0 42.65 26.75 42.2 26.3 41.65 26.15 Q41.4 26.15 41.35 26.3 L41.45 26.75 M40.8 27.45 L41.15 27.25 41.15 27.0 41.05 26.85 40.55 26.45 40.05 26.25 Q39.8 26.25 39.7 26.4 L39.85 26.85 40.05 27.05 40.3 27.25 40.8 27.45 M41.5 25.85 L41.75 25.7 41.65 25.3 41.25 24.85 40.7 24.65 Q40.45 24.65 40.35 24.8 L40.45 25.25 40.95 25.7 41.05 25.75 41.5 25.85 M44.2 27.5 Q43.95 27.5 43.9 27.7 L43.9 28.0 44.0 28.15 44.4 28.55 44.95 28.7 45.2 28.55 45.15 28.15 45.05 28.05 44.7 27.7 44.2 27.5 M43.8 26.25 L43.25 26.1 Q43.05 26.05 42.95 26.25 L42.95 26.45 43.05 26.65 43.35 26.95 43.5 27.05 Q43.8 27.25 44.0 27.25 L44.3 27.05 44.35 26.95 44.3 26.85 44.2 26.7 43.8 26.25 M43.4 25.65 L43.3 25.2 42.85 24.75 42.35 24.6 Q42.1 24.6 42.0 24.75 L42.1 25.2 42.55 25.6 42.65 25.65 43.1 25.8 43.4 25.65 M46.1 29.95 L46.0 29.55 45.6 29.15 45.1 29.0 Q44.85 29.0 44.8 29.15 L44.9 29.55 44.95 29.65 45.3 29.95 45.8 30.1 46.1 29.95 M47.5 29.35 L47.1 29.0 46.6 28.85 Q46.35 28.85 46.3 29.0 L46.3 29.3 46.35 29.3 46.4 29.4 46.45 29.5 46.75 29.7 47.25 29.9 47.55 29.7 47.5 29.4 47.5 29.35 M45.75 26.55 L45.7 26.5 45.3 26.1 44.8 25.95 Q44.6 25.95 44.5 26.1 L44.6 26.55 44.8 26.8 45.0 26.95 45.55 27.1 45.85 26.95 45.75 26.55 M46.2 27.55 L45.7 27.35 45.55 27.4 45.4 27.55 45.5 28.0 45.55 28.05 45.9 28.4 46.4 28.55 46.7 28.4 46.6 28.0 46.5 27.85 46.5 27.8 46.2 27.55 M43.9 24.5 Q43.65 24.5 43.6 24.65 43.5 24.8 43.7 25.05 L44.1 25.5 44.65 25.65 44.95 25.5 44.85 25.1 44.4 24.65 43.9 24.5 M3.2 26.4 L7.2 33.5 22.35 32.25 23.05 32.2 18.35 25.25 2.9 25.75 3.2 26.4 M33.3 26.5 Q33.05 26.5 33.0 26.7 L33.05 26.95 33.15 27.15 33.65 27.55 34.2 27.8 34.5 27.55 34.5 27.45 34.4 27.15 34.0 26.75 33.9 26.7 33.3 26.5 M33.4 25.75 L33.3 25.6 Q33.15 25.35 32.8 25.2 32.5 25.0 32.2 24.95 31.95 24.95 31.9 25.15 L32.0 25.6 32.5 26.05 32.85 26.2 33.1 26.2 33.4 26.05 33.4 25.75 M34.8 26.1 L35.15 25.95 35.0 25.5 34.8 25.25 34.55 25.05 33.95 24.9 Q33.7 24.9 33.65 25.05 L33.75 25.5 33.8 25.55 34.25 25.95 34.8 26.1 M38.45 29.5 L38.6 29.9 38.85 30.2 39.0 30.3 39.55 30.45 Q39.8 30.45 39.85 30.3 L39.85 30.15 39.75 29.9 39.3 29.5 38.75 29.3 Q38.5 29.3 38.45 29.5 M40.1 28.05 L39.95 27.95 39.4 27.8 Q39.15 27.8 39.1 27.95 L39.1 28.1 39.2 28.4 39.65 28.8 40.2 28.95 Q40.45 28.95 40.45 28.8 L40.4 28.4 40.1 28.05 M36.8 29.6 Q36.7 29.75 36.9 30.0 L37.2 30.3 37.35 30.4 37.9 30.6 38.2 30.4 38.25 30.25 38.1 30.0 37.65 29.6 37.1 29.45 Q36.85 29.4 36.8 29.6 M36.0 29.7 L35.45 29.55 Q35.2 29.55 35.1 29.7 L35.25 30.15 35.35 30.25 35.7 30.5 36.3 30.7 36.55 30.5 36.55 30.3 36.45 30.1 Q36.3 29.85 36.0 29.7 M35.55 29.05 L35.45 28.65 35.4 28.6 34.95 28.25 34.4 28.05 Q34.15 28.05 34.05 28.25 L34.2 28.7 34.45 28.95 34.65 29.05 35.25 29.25 35.55 29.05 M37.2 28.95 L37.1 28.55 36.9 28.3 36.65 28.15 36.05 27.95 Q35.8 27.95 35.75 28.1 L35.85 28.5 35.9 28.55 36.35 28.95 36.9 29.15 37.2 28.95 M37.75 27.85 L37.45 28.05 37.5 28.25 37.6 28.45 38.0 28.85 38.6 29.05 38.85 28.85 38.8 28.45 38.45 28.15 38.3 28.05 37.75 27.85 M36.2 27.45 L36.2 27.25 36.05 27.05 35.55 26.6 35.45 26.55 35.05 26.4 Q34.8 26.4 34.7 26.6 L34.7 26.65 34.85 27.05 35.15 27.35 35.3 27.45 35.85 27.6 36.2 27.45 M36.4 26.5 L36.55 26.95 36.75 27.2 37.0 27.35 37.6 27.55 37.9 27.35 37.9 27.15 37.75 26.95 37.3 26.5 Q37.0 26.35 36.75 26.35 36.5 26.3 36.4 26.5 M36.85 25.85 L36.75 25.45 36.35 25.05 36.25 25.0 35.7 24.8 Q35.45 24.8 35.4 24.95 L35.4 25.15 35.5 25.4 35.95 25.85 36.55 26.05 36.85 25.85 M38.1 26.45 Q38.0 26.65 38.2 26.9 L38.35 27.1 38.65 27.3 39.2 27.45 39.5 27.3 39.5 27.05 39.4 26.9 38.95 26.45 Q38.65 26.3 38.4 26.3 38.15 26.3 38.1 26.45 M38.55 25.85 L38.4 25.4 38.05 25.0 37.95 24.95 37.4 24.8 Q37.15 24.8 37.05 24.95 L37.05 25.05 37.2 25.4 37.65 25.8 Q37.95 26.0 38.2 26.0 L38.55 25.85 M39.85 25.95 L40.15 25.85 40.15 25.8 40.1 25.45 40.05 25.35 Q39.9 25.1 39.6 24.95 L39.05 24.75 Q38.8 24.75 38.75 24.9 L38.75 25.05 38.85 25.35 39.3 25.8 39.6 25.9 39.85 25.95 M33.2 29.55 L29.9 24.8 27.4 24.9 30.75 29.75 31.75 31.2 34.2 31.05 33.2 29.55 M29.95 29.75 L26.6 24.9 24.15 25.0 27.5 29.95 28.55 31.45 31.0 31.3 29.95 29.75 M26.65 29.95 L23.25 25.0 20.75 25.1 24.25 30.1 25.35 31.7 27.75 31.5 26.65 29.95 M0.0 36.35 L51.25 31.3 0.0 36.35 M47.0 35.3 L23.4 38.4 0.0 41.3 23.4 38.4 47.0 35.3" fill="#000000" fill-rule="evenodd" stroke="none"/>
    <path d="M22.35 32.25 L18.1 25.95 3.2 26.4 2.9 25.75 18.35 25.25 23.05 32.2 22.35 32.25 M30.75 29.75 L33.2 29.55 34.2 31.05 31.75 31.2 30.75 29.75 M27.5 29.95 L29.95 29.75 31.0 31.3 28.55 31.45 27.5 29.95 M26.65 29.95 L27.75 31.5 25.35 31.7 24.25 30.1 26.65 29.95" fill="#990000" fill-rule="evenodd" stroke="none"/>
    <path d="M54.15 0.0 L45.2 22.55 51.25 31.3 51.25 34.8 48.95 35.1 49.25 42.55 62.75 42.45 63.1 0.0 54.15 0.0 M0.0 0.0 L0.0 23.75 45.2 22.55 M47.0 35.3 L48.95 35.1 M45.6 42.6 L44.4 42.6 M0.05 42.6 L0.0 41.3 0.0 36.35 0.0 23.75 M47.05 42.55 L47.0 38.95 45.6 42.6 47.05 42.55 49.25 42.55 49.25 42.6 M47.05 42.6 L47.05 42.55 M47.0 35.3 L47.0 38.95 M0.0 41.3 L23.4 38.4 47.0 35.3 M51.25 31.3 L0.0 36.35" fill="none" stroke="#000000" stroke-linecap="round" stroke-linejoin="round" stroke-width="0.05"/>
  </g>
</svg>
