<?xml version="1.0" encoding="UTF-8" standalone="no"?>
<svg xmlns:xlink="http://www.w3.org/1999/xlink" height="95.35px" width="105.3px" xmlns="http://www.w3.org/2000/svg">
  <g transform="matrix(1.0, 0.0, 0.0, 1.0, 2.5, 2.1)">
    <path d="M100.15 0.55 L0.15 0.55 0.15 90.6 100.15 90.6 100.15 0.55 Z" fill="none" stroke="#000000" stroke-linecap="square" stroke-linejoin="miter" stroke-miterlimit="3.0" stroke-width="4.0"/>
    <path d="M100.15 0.55 L0.15 0.55 0.15 90.6 100.15 90.6 100.15 0.55 Z" fill="none" stroke="#000000" stroke-linecap="square" stroke-linejoin="miter" stroke-miterlimit="3.0" stroke-width="4.0"/>
    <path d="M100.15 0.55 L0.15 0.55 0.15 90.6 100.15 90.6 100.15 0.55 Z" fill="none" stroke="#000000" stroke-linecap="square" stroke-linejoin="miter" stroke-miterlimit="3.0" stroke-width="4.0"/>
    <path d="M100.15 0.55 L0.15 0.55 0.15 90.6 100.15 90.6 100.15 0.55 Z" fill="none" stroke="#000000" stroke-linecap="square" stroke-linejoin="miter" stroke-miterlimit="3.0" stroke-width="4.0"/>
    <path d="M100.15 0.55 L0.15 0.55 0.15 90.6 100.15 90.6 100.15 0.55 Z" fill="none" stroke="#000000" stroke-linecap="square" stroke-linejoin="miter" stroke-miterlimit="3.0" stroke-width="4.0"/>
    <path d="M100.15 0.55 L0.15 0.55 0.15 90.6 100.15 90.6 100.15 0.55 Z" fill="none" stroke="#000000" stroke-linecap="square" stroke-linejoin="miter" stroke-miterlimit="3.0" stroke-width="4.0"/>
    <path d="M100.15 0.55 L0.15 0.55 0.15 90.6 100.15 90.6 100.15 0.55 Z" fill="none" stroke="#000000" stroke-linecap="square" stroke-linejoin="miter" stroke-miterlimit="3.0" stroke-width="4.0"/>
    <path d="M100.15 0.55 L0.15 0.55 0.15 90.6 100.15 90.6 100.15 0.55 Z" fill="none" stroke="#000000" stroke-linecap="square" stroke-linejoin="miter" stroke-miterlimit="3.0" stroke-width="4.0"/>
    <path d="M100.15 0.55 L0.15 0.55 0.15 90.6 100.15 90.6 100.15 0.55 Z" fill="none" stroke="#000000" stroke-linecap="square" stroke-linejoin="miter" stroke-miterlimit="3.0" stroke-width="4.0"/>
    <path d="M100.15 0.55 L0.15 0.55 0.15 90.6 100.15 90.6 100.15 0.55 Z" fill="none" stroke="#000000" stroke-linecap="square" stroke-linejoin="miter" stroke-miterlimit="3.0" stroke-width="4.0"/>
    <path d="M100.15 0.55 L0.15 0.55 0.15 90.6 100.15 90.6 100.15 0.55 Z" fill="none" stroke="#000000" stroke-linecap="square" stroke-linejoin="miter" stroke-miterlimit="3.0" stroke-width="4.0"/>
    <path d="M100.15 0.55 L0.15 0.55 0.15 90.6 100.15 90.6 100.15 0.55 Z" fill="none" stroke="#000000" stroke-linecap="square" stroke-linejoin="miter" stroke-miterlimit="3.0" stroke-width="4.0"/>
    <path d="M100.15 0.55 L0.15 0.55 0.15 90.6 100.15 90.6 100.15 0.55 Z" fill="none" stroke="#000000" stroke-linecap="square" stroke-linejoin="miter" stroke-miterlimit="3.0" stroke-width="4.0"/>
    <path d="M100.15 0.55 L0.15 0.55 0.15 90.6 100.15 90.6 100.15 0.55 Z" fill="none" stroke="#000000" stroke-linecap="square" stroke-linejoin="miter" stroke-miterlimit="3.0" stroke-width="4.0"/>
    <path d="M100.15 0.55 L0.15 0.55 0.15 90.6 100.15 90.6 100.15 0.55 Z" fill="none" stroke="#000000" stroke-linecap="square" stroke-linejoin="miter" stroke-miterlimit="3.0" stroke-width="4.0"/>
    <path d="M100.15 0.55 L0.15 0.55 0.15 90.6 100.15 90.6 100.15 0.55 Z" fill="none" stroke="#000000" stroke-linecap="square" stroke-linejoin="miter" stroke-miterlimit="3.0" stroke-width="4.0"/>
    <path d="M100.15 0.55 L0.15 0.55 0.15 90.6 100.15 90.6 100.15 0.55 Z" fill="none" stroke="#000000" stroke-linecap="square" stroke-linejoin="miter" stroke-miterlimit="3.0" stroke-width="4.0"/>
    <path d="M100.15 0.55 L0.15 0.55 0.15 90.6 100.15 90.6 100.15 0.55 Z" fill="none" stroke="#000000" stroke-linecap="square" stroke-linejoin="miter" stroke-miterlimit="3.0" stroke-width="4.0"/>
    <path d="M100.15 0.55 L0.15 0.55 0.15 90.6 100.15 90.6 100.15 0.55 Z" fill="none" stroke="#000000" stroke-linecap="square" stroke-linejoin="miter" stroke-miterlimit="3.0" stroke-width="4.0"/>
    <path d="M100.15 0.55 L0.15 0.55 0.15 90.6 100.15 90.6 100.15 0.55 Z" fill="none" stroke="#000000" stroke-linecap="square" stroke-linejoin="miter" stroke-miterlimit="3.0" stroke-width="4.0"/>
    <path d="M100.15 0.55 L0.15 0.55 0.15 90.6 100.15 90.6 100.15 0.55 Z" fill="none" stroke="#000000" stroke-linecap="square" stroke-linejoin="miter" stroke-miterlimit="3.0" stroke-width="4.0"/>
  </g>
</svg>
