<?xml version="1.0" encoding="UTF-8" standalone="no"?>
<svg xmlns:xlink="http://www.w3.org/1999/xlink" height="129.15px" width="191.6px" xmlns="http://www.w3.org/2000/svg">
  <g transform="matrix(1.0, 0.0, 0.0, 1.0, 0.0, 0.0)">
    <path d="M184.5 45.1 Q205.2 77.7 165.4 89.2 165.4 93.65 164.4 96.0 160.3 105.25 152.1 110.2 143.9 115.1 126.0 109.25 L122.55 115.65 Q116.55 126.2 100.45 128.85 86.2 131.15 73.3 116.05 38.8 127.9 26.35 104.1 -0.75 100.75 5.1 83.45 5.6 81.9 6.4 80.25 7.4 78.1 9.15 74.9 2.05 71.3 0.75 66.05 -1.35 57.6 2.4 51.95 6.1 46.3 18.1 43.2 20.55 2.45 60.85 17.15 73.6 -11.9 99.8 9.9 110.45 -5.85 126.75 3.45 L132.8 6.65 Q138.45 -1.1 154.05 1.05 167.6 2.85 168.45 15.95 192.8 26.2 184.5 45.1" fill="#ffffcc" fill-rule="evenodd" stroke="none"/>
  </g>
</svg>
