<?xml version="1.0" encoding="UTF-8" standalone="no"?>
<svg xmlns:xlink="http://www.w3.org/1999/xlink" height="154.8px" width="174.9px" xmlns="http://www.w3.org/2000/svg">
  <g transform="matrix(1.0, 0.0, 0.0, 1.0, 7.9, 7.05)">
    <path d="M66.95 -0.5 L79.5 5.5 Q98.85 -3.55 119.65 -6.7 131.7 -8.5 141.7 -1.55 159.15 10.9 164.65 31.85 170.65 54.5 161.25 75.5 152.55 94.9 137.6 110.3 122.25 126.0 103.8 137.25 92.5 144.25 79.5 147.75 55.55 141.0 36.65 125.05 9.85 102.35 -3.2 70.75 -11.35 51.2 -5.4 30.7 -1.8 18.2 6.55 8.2 15.1 -2.0 27.8 -5.25 47.75 -10.05 66.95 -0.5" fill="#ff0000" fill-rule="evenodd" stroke="none"/>
  </g>
</svg>
