<?xml version="1.0" encoding="UTF-8" standalone="no"?>
<svg xmlns:xlink="http://www.w3.org/1999/xlink" height="9.0px" width="9.0px" xmlns="http://www.w3.org/2000/svg">
  <g transform="matrix(1.0, 0.0, 0.0, 1.0, 4.5, 4.5)">
    <path d="M2.45 -2.5 Q3.5 -1.45 3.5 0.0 3.5 1.4 2.45 2.45 1.45 3.5 0.0 3.5 -1.45 3.5 -2.5 2.45 -3.5 1.4 -3.5 0.0 -3.5 -1.45 -2.5 -2.5 -1.45 -3.5 0.0 -3.5 1.45 -3.5 2.45 -2.5" fill="#000000" fill-rule="evenodd" stroke="none"/>
    <path d="M2.45 -2.5 Q3.5 -1.45 3.5 0.0 3.5 1.4 2.45 2.45 1.45 3.5 0.0 3.5 -1.45 3.5 -2.5 2.45 -3.5 1.4 -3.5 0.0 -3.5 -1.45 -2.5 -2.5 -1.45 -3.5 0.0 -3.5 1.45 -3.5 2.45 -2.5 Z" fill="none" stroke="#000000" stroke-linecap="round" stroke-linejoin="round" stroke-opacity="0.5019608" stroke-width="2.0"/>
  </g>
</svg>
