<?xml version="1.0" encoding="UTF-8" standalone="no"?>
<svg xmlns:xlink="http://www.w3.org/1999/xlink" height="13.0px" width="13.05px" xmlns="http://www.w3.org/2000/svg">
  <g transform="matrix(1.0, 0.0, 0.0, 1.0, -10.0, -5.0)">
    <path d="M16.55 18.0 Q13.8 17.95 11.9 16.1 10.0 14.2 10.05 11.5 10.0 8.75 11.9 6.9 13.8 5.0 16.55 5.0 19.25 5.0 21.15 6.9 23.0 8.75 23.05 11.5 23.0 14.2 21.15 16.1 19.25 17.95 16.55 18.0" fill="#000000" fill-opacity="0.2" fill-rule="evenodd" stroke="none"/>
    <path d="M16.0 5.0 Q18.45 5.0 20.2 6.75 21.95 8.5 22.0 11.0 22.0 13.45 20.2 15.2 18.45 16.95 16.0 17.0 L13.65 16.5 Q12.55 16.05 11.75 15.2 10.9 14.4 10.45 13.3 10.0 12.2 10.0 11.0 10.0 9.75 10.45 8.65 10.9 7.55 11.75 6.75 12.55 5.9 13.65 5.45 14.75 5.0 16.0 5.0" fill="url(#gradient0)" fill-rule="evenodd" stroke="none"/>
  </g>
  <defs>
    <radialGradient cx="0" cy="0" gradientTransform="matrix(0.0073, 0.0, 0.0, 0.0073, 16.0, 11.0)" gradientUnits="userSpaceOnUse" id="gradient0" r="819.2" spreadMethod="pad">
      <stop offset="0.0" stop-color="#fe5050"/>
      <stop offset="1.0" stop-color="#cc0000"/>
    </radialGradient>
  </defs>
</svg>
