<?xml version="1.0" encoding="UTF-8" standalone="no"?>
<svg xmlns:xlink="http://www.w3.org/1999/xlink" height="6.0px" width="6.0px" xmlns="http://www.w3.org/2000/svg">
  <g transform="matrix(1.0, 0.0, 0.0, 1.0, 3.0, 3.0)">
    <path d="M1.8 -1.85 Q1.05 -2.65 0.0 -2.65 -1.1 -2.65 -1.9 -1.85 -2.65 -1.15 -2.65 0.0 -2.65 1.05 -1.95 1.85 L-1.85 1.9 Q-1.1 2.6 0.0 2.6 1.05 2.6 1.8 1.9 L1.8 1.85 Q2.6 1.05 2.6 0.0 2.6 -1.15 1.8 -1.9 L1.8 -1.85 M2.05 -2.15 L2.1 -2.1 Q3.0 -1.3 3.0 0.0 3.0 1.25 2.1 2.15 L2.05 2.2 Q1.15 3.0 0.0 3.0 -1.25 3.0 -2.1 2.2 L-2.2 2.1 Q-3.0 1.2 -3.0 0.0 -3.0 -1.3 -2.15 -2.1 -1.3 -3.0 0.0 -3.0 1.15 -3.0 2.05 -2.15" fill="#000000" fill-opacity="0.24705882" fill-rule="evenodd" stroke="none"/>
    <path d="M1.55 -1.6 Q0.9 -2.25 0.0 -2.25 -0.95 -2.25 -1.65 -1.6 -2.25 -1.0 -2.25 0.0 -2.25 0.9 -1.65 1.6 L-1.6 1.65 Q-0.95 2.25 0.0 2.25 0.9 2.25 1.55 1.65 L1.55 1.6 Q2.25 0.9 2.25 0.0 2.25 -0.95 1.55 -1.6 M1.8 -1.85 L1.8 -1.9 Q2.6 -1.15 2.6 0.0 2.6 1.05 1.8 1.85 L1.8 1.9 Q1.05 2.6 0.0 2.6 -1.1 2.6 -1.85 1.9 L-1.95 1.85 Q-2.65 1.05 -2.65 0.0 -2.65 -1.15 -1.9 -1.85 -1.1 -2.65 0.0 -2.65 1.05 -2.65 1.8 -1.85" fill="#000000" fill-opacity="0.49803922" fill-rule="evenodd" stroke="none"/>
    <path d="M1.3 -1.35 Q0.75 -1.9 0.0 -1.9 -0.8 -1.9 -1.35 -1.35 -1.9 -0.8 -1.9 0.0 -1.9 0.75 -1.35 1.35 -0.8 1.85 0.0 1.85 0.75 1.85 1.3 1.35 1.85 0.75 1.85 0.0 1.85 -0.85 1.3 -1.35 M1.55 -1.6 Q2.25 -0.95 2.25 0.0 2.25 0.9 1.55 1.6 L1.55 1.65 Q0.9 2.25 0.0 2.25 -0.95 2.25 -1.6 1.65 L-1.65 1.6 Q-2.25 0.9 -2.25 0.0 -2.25 -1.0 -1.65 -1.6 -0.95 -2.25 0.0 -2.25 0.9 -2.25 1.55 -1.6" fill="#000000" fill-opacity="0.7490196" fill-rule="evenodd" stroke="none"/>
    <path d="M1.3 -1.35 Q1.85 -0.85 1.85 0.0 1.85 0.75 1.3 1.35 0.75 1.85 0.0 1.85 -0.8 1.85 -1.35 1.35 -1.9 0.75 -1.9 0.0 -1.9 -0.8 -1.35 -1.35 -0.8 -1.9 0.0 -1.9 0.75 -1.9 1.3 -1.35" fill="#000000" fill-rule="evenodd" stroke="none"/>
  </g>
</svg>
