<?xml version="1.0" encoding="UTF-8" standalone="no"?>
<svg xmlns:xlink="http://www.w3.org/1999/xlink" height="48.0px" width="53.0px" xmlns="http://www.w3.org/2000/svg">
  <g transform="matrix(1.0, 0.0, 0.0, 1.0, 1.2, 1.4)">
    <path d="M50.3 45.05 L0.3 45.05 0.3 0.05 50.3 0.05 50.3 45.05" fill="#ffffff" fill-rule="evenodd" stroke="none"/>
    <path d="M50.3 10.1 L50.3 4.1 M50.3 22.1 L50.3 16.1 M50.3 34.1 L50.3 28.1 M49.3 45.1 L50.3 45.1 50.3 40.1 M50.3 0.1 L44.3 0.1 M38.3 0.1 L32.3 0.1 M26.3 0.1 L20.3 0.1 M14.3 0.1 L8.3 0.1 M2.3 0.1 L0.3 0.1 0.3 4.1 M0.3 10.1 L0.3 16.1 M13.3 45.1 L19.3 45.1 M0.3 34.1 L0.3 40.1 M1.3 45.1 L7.3 45.1 M25.3 45.1 L31.3 45.1 M0.3 22.1 L0.3 28.1 M37.3 45.1 L43.3 45.1" fill="none" stroke="#000000" stroke-linecap="round" stroke-linejoin="round" stroke-width="3.0"/>
    <path d="M43.8 17.95 L44.0 18.2 44.0 18.45 44.1 20.55 44.45 23.2 44.8 25.6 45.0 26.9 45.1 27.2 45.25 27.55 44.9 27.8 44.75 28.0 44.35 28.05 44.1 28.15 Q43.9 28.15 43.85 27.95 L43.8 27.7 43.75 27.3 43.7 26.05 43.65 25.1 43.45 23.5 43.3 22.15 43.1 20.55 43.05 20.2 40.6 25.15 40.6 25.35 40.5 25.5 40.55 25.75 40.05 26.5 39.75 26.65 39.35 26.4 39.05 25.85 38.95 25.8 38.85 25.65 38.8 25.5 38.75 25.25 38.75 25.05 37.8 22.95 36.8 20.6 36.75 20.75 36.3 22.95 36.0 24.5 35.75 26.2 35.7 26.45 35.65 26.75 35.65 26.85 35.7 27.1 35.45 27.9 35.15 28.0 34.95 28.1 34.9 28.1 34.6 27.95 34.35 27.7 Q34.85 27.05 35.45 23.15 L35.8 21.5 36.1 19.9 36.05 19.3 36.25 18.45 Q36.4 18.15 36.75 18.15 37.2 18.15 37.3 18.85 L37.5 19.1 37.55 19.6 38.0 20.75 38.4 21.55 38.4 21.8 39.0 23.15 39.65 24.45 39.9 24.65 Q40.2 24.65 40.7 23.3 L41.25 22.2 41.85 20.75 Q42.05 20.2 42.4 19.7 L42.65 19.05 Q42.8 18.45 43.05 18.2 L43.6 17.9 43.8 17.95 M29.85 18.35 L31.45 18.7 Q31.95 18.65 32.7 19.8 33.4 20.9 33.4 22.2 L33.3 23.45 32.9 24.65 32.2 25.8 31.05 27.15 29.8 27.75 28.35 27.95 Q26.4 27.95 26.25 27.6 L25.85 27.5 25.55 27.3 25.4 27.15 25.2 27.1 Q24.4 26.65 24.05 25.85 23.75 25.05 23.75 23.6 23.75 22.5 24.45 21.0 L24.55 20.8 24.7 20.55 24.85 20.4 25.55 19.55 26.05 19.25 26.5 18.95 26.75 18.8 26.85 18.85 26.95 18.7 27.1 18.65 27.6 18.5 28.2 18.35 28.75 18.3 29.2 18.2 29.6 18.25 29.85 18.35 M22.3 19.8 Q23.0 20.9 23.0 22.2 L22.9 23.45 22.5 24.65 21.8 25.8 20.65 27.15 Q20.05 27.55 19.4 27.75 L17.95 27.95 Q16.0 27.95 15.85 27.6 L15.45 27.5 15.15 27.3 15.0 27.15 14.8 27.1 Q14.0 26.65 13.65 25.85 13.35 25.05 13.35 23.6 13.35 22.5 14.05 21.0 L14.15 20.8 14.3 20.55 14.45 20.4 15.15 19.55 Q15.25 19.4 15.65 19.25 L16.1 18.95 Q16.2 18.8 16.35 18.8 L16.45 18.85 16.55 18.7 16.7 18.65 17.2 18.5 17.8 18.35 18.35 18.3 18.8 18.2 19.2 18.25 19.45 18.35 Q20.75 18.45 21.05 18.7 21.55 18.65 22.3 19.8 M21.15 20.25 L20.35 19.55 19.1 19.2 18.2 19.1 18.2 19.15 18.0 19.3 17.7 19.35 17.45 19.35 17.2 19.5 17.05 19.6 17.05 19.65 16.8 19.6 16.8 19.55 Q16.25 19.75 16.1 19.9 L15.85 20.0 15.65 20.3 15.35 20.6 15.2 20.8 15.1 21.1 Q14.75 21.4 14.55 22.15 L14.35 23.65 14.55 24.9 Q14.75 25.5 15.1 25.65 L15.1 25.8 15.5 26.2 16.15 26.55 16.9 26.8 17.55 26.95 18.35 27.0 18.65 27.0 19.1 26.9 19.5 26.8 20.3 26.35 20.35 26.25 20.35 26.2 20.7 25.9 21.05 25.7 21.1 25.65 21.05 25.5 Q21.9 24.0 21.9 22.8 L21.7 21.35 21.15 20.25 M24.75 23.65 L24.95 24.9 Q25.15 25.5 25.5 25.65 L25.5 25.8 25.9 26.2 26.55 26.55 27.3 26.8 27.95 26.95 28.75 27.0 29.05 27.0 29.5 26.9 29.9 26.8 30.7 26.35 30.75 26.25 30.75 26.2 31.1 25.9 31.45 25.7 31.5 25.65 31.45 25.5 Q32.3 24.0 32.3 22.8 L32.1 21.35 31.55 20.25 30.75 19.55 29.5 19.2 28.6 19.1 28.6 19.15 28.4 19.3 28.1 19.35 27.85 19.35 Q27.7 19.35 27.6 19.5 L27.45 19.6 27.45 19.65 27.2 19.6 27.2 19.55 Q26.65 19.75 26.5 19.9 L26.25 20.0 26.05 20.3 25.75 20.6 25.6 20.8 25.5 21.1 Q25.15 21.4 24.95 22.15 L24.75 23.65 M27.45 19.5 L27.3 19.5 27.45 19.6 27.45 19.5 M10.1 18.45 L11.45 18.1 11.5 18.2 Q11.6 18.0 11.85 18.05 L12.25 18.05 Q12.6 18.05 12.6 18.4 L12.05 19.1 11.15 20.2 9.85 22.0 8.4 24.15 7.35 25.7 6.75 26.65 6.55 27.0 8.0 26.95 8.5 27.0 10.25 26.9 12.1 26.8 12.65 26.85 12.8 27.25 12.65 28.0 11.95 28.1 11.65 28.1 11.5 28.05 11.45 28.05 11.2 27.95 8.85 27.8 6.45 27.9 5.45 28.1 4.75 28.0 Q4.8 27.45 5.0 27.2 L5.2 26.95 5.2 26.85 5.4 26.65 5.5 26.45 6.05 26.0 6.15 25.85 6.15 25.65 6.3 25.7 6.3 25.65 6.4 25.55 6.55 25.35 6.75 25.0 6.9 24.65 7.1 24.4 7.3 24.2 9.7 20.65 10.0 20.2 10.1 20.0 10.3 19.65 10.45 19.4 9.0 19.5 8.4 19.55 8.15 19.5 7.95 19.5 7.8 19.55 7.0 19.45 6.8 19.45 6.6 19.5 6.25 19.4 6.2 19.15 6.4 18.65 6.7 18.4 8.45 18.5 9.25 18.4 9.9 18.35 10.0 18.45 10.1 18.45 M17.05 19.5 L16.9 19.5 17.05 19.6 17.05 19.5" fill="#000000" fill-rule="evenodd" stroke="none"/>
  </g>
</svg>
