<?xml version="1.0" encoding="UTF-8" standalone="no"?>
<svg xmlns:xlink="http://www.w3.org/1999/xlink" height="50.0px" width="50.0px" xmlns="http://www.w3.org/2000/svg">
  <g transform="matrix(1.0, 0.0, 0.0, 1.0, 1.2, 1.4)">
    <path d="M47.3 47.1 L0.3 47.1 0.3 0.1 47.3 0.1 47.3 47.1" fill="#ffffff" fill-rule="evenodd" stroke="none"/>
    <path d="M47.3 8.1 L47.3 2.1 M47.3 20.1 L47.3 14.1 M47.3 32.1 L47.3 26.1 M47.3 44.1 L47.3 38.1 M47.3 0.1 L41.3 0.1 M35.3 0.1 L29.3 0.1 M11.3 0.1 L5.3 0.1 M0.3 1.1 L0.3 7.1 M0.3 13.1 L0.3 19.1 M0.3 25.1 L0.3 31.1 M0.3 37.1 L0.3 43.1 M2.3 47.1 L8.3 47.1 M26.3 47.1 L32.3 47.1 M23.3 0.1 L17.3 0.1 M14.3 47.1 L20.3 47.1 M38.3 47.1 L44.3 47.1" fill="none" stroke="#000000" stroke-linecap="round" stroke-linejoin="round" stroke-width="3.0"/>
    <path d="M29.2 18.3 Q29.4 18.3 29.8 18.85 L31.0 20.55 31.0 20.45 31.7 21.25 33.4 23.3 34.0 24.0 34.6 24.75 35.35 25.55 35.75 26.0 35.75 23.55 35.8 21.75 35.8 20.75 35.75 20.35 35.7 20.2 35.75 20.0 35.75 19.9 35.75 19.8 35.75 19.55 35.7 19.3 35.65 19.0 Q35.65 18.7 35.9 18.55 L36.4 18.4 36.75 18.4 37.05 18.55 36.95 19.1 36.7 20.25 36.65 21.75 36.6 23.25 36.55 24.4 36.55 25.45 36.65 26.4 36.75 27.05 36.6 27.8 36.15 28.1 35.2 27.25 35.2 27.15 32.75 24.4 30.65 21.85 29.55 20.5 29.55 20.6 29.4 21.45 29.3 23.35 29.45 26.15 29.55 26.35 29.55 26.55 29.45 26.85 29.55 27.05 29.6 27.45 29.6 27.55 Q29.4 27.9 28.9 27.9 L28.7 27.8 28.35 27.95 28.15 27.4 28.3 26.35 28.4 26.35 28.4 26.05 28.45 25.65 28.35 25.4 28.35 25.3 28.5 25.1 28.5 23.2 28.55 22.2 28.6 21.85 28.6 21.55 28.55 21.25 28.6 20.5 28.65 19.8 28.6 19.55 28.6 19.25 28.6 18.7 28.75 18.55 28.85 18.45 28.95 18.35 29.2 18.3 M22.55 18.15 L22.85 17.9 23.1 18.25 23.05 18.45 Q23.6 20.2 26.45 26.3 L26.85 27.35 26.75 27.6 26.2 27.85 25.6 28.0 25.4 27.65 25.4 27.4 25.45 27.3 25.25 26.45 24.5 24.75 24.4 24.6 24.2 24.5 23.9 24.65 23.65 24.55 23.45 24.5 23.3 24.5 22.35 24.55 22.05 24.65 21.85 24.55 21.3 24.65 20.9 24.6 20.1 24.7 19.65 24.8 19.45 25.0 19.35 24.9 18.4 27.05 18.2 27.95 17.75 28.35 17.7 28.35 16.8 28.1 16.55 27.85 16.8 27.4 17.1 27.1 17.5 26.5 18.1 25.55 18.7 24.7 Q18.7 24.4 19.35 23.45 L20.45 21.6 20.95 20.65 21.85 18.95 21.85 18.75 Q22.0 18.75 22.0 18.85 L22.0 18.75 Q22.0 18.45 22.45 18.1 L22.55 18.15 M21.75 20.7 L20.7 22.55 20.1 23.7 20.25 23.8 20.4 23.85 20.55 23.8 20.85 23.85 21.1 23.9 21.6 23.85 22.1 23.8 22.3 23.8 22.5 23.85 22.55 23.75 22.95 23.8 23.15 23.8 23.25 23.8 23.65 23.75 23.95 23.6 23.2 21.7 22.3 19.8 21.75 20.7 M12.85 18.25 L14.4 18.35 Q15.1 18.5 15.6 18.8 L16.35 19.4 16.65 20.05 16.75 21.0 16.6 21.85 16.1 22.75 15.25 23.75 14.25 24.4 13.0 24.75 Q12.55 24.8 12.4 24.95 12.25 25.05 12.25 25.5 L12.3 26.0 12.35 26.55 12.35 26.85 12.4 27.15 12.4 27.45 12.35 27.65 12.05 27.75 11.65 27.9 11.45 27.95 11.25 27.9 10.95 27.8 10.8 27.6 10.95 27.4 11.05 27.15 11.05 27.1 11.15 26.55 11.25 25.9 11.2 25.35 11.15 25.05 11.1 24.95 11.0 24.8 11.15 24.4 11.2 23.5 11.2 21.25 11.15 19.7 11.1 19.2 11.1 19.0 11.15 18.9 11.1 18.8 Q11.1 18.4 11.5 18.35 L12.85 18.25 M13.2 19.0 L12.7 19.0 12.35 19.1 12.25 19.55 12.35 20.55 12.3 23.25 12.3 24.1 13.15 23.85 14.0 23.55 14.55 23.2 14.95 22.8 15.25 22.4 15.45 21.95 15.6 21.45 15.65 20.9 Q15.65 20.2 15.3 19.9 L14.5 19.25 13.2 19.0" fill="#000000" fill-rule="evenodd" stroke="none"/>
  </g>
</svg>
