<?xml version="1.0" encoding="UTF-8" standalone="no"?>
<svg xmlns:xlink="http://www.w3.org/1999/xlink" height="48.0px" width="53.0px" xmlns="http://www.w3.org/2000/svg">
  <g transform="matrix(1.0, 0.0, 0.0, 1.0, 1.2, 1.4)">
    <path d="M50.3 45.05 L0.3 45.05 0.3 0.05 50.3 0.05 50.3 45.05" fill="#ffffff" fill-rule="evenodd" stroke="none"/>
    <path d="M50.3 10.1 L50.3 4.1 M50.3 22.1 L50.3 16.1 M50.3 34.1 L50.3 28.1 M49.3 45.1 L50.3 45.1 50.3 40.1 M50.3 0.1 L44.3 0.1 M38.3 0.1 L32.3 0.1 M26.3 0.1 L20.3 0.1 M14.3 0.1 L8.3 0.1 M2.3 0.1 L0.3 0.1 0.3 4.1 M0.3 10.1 L0.3 16.1 M13.3 45.1 L19.3 45.1 M0.3 34.1 L0.3 40.1 M1.3 45.1 L7.3 45.1 M25.3 45.1 L31.3 45.1 M0.3 22.1 L0.3 28.1 M37.3 45.1 L43.3 45.1" fill="none" stroke="#000000" stroke-linecap="round" stroke-linejoin="round" stroke-width="3.0"/>
    <path d="M50.3 45.05 L0.3 45.05 0.3 0.05 50.3 0.05 50.3 45.05" fill="#ffffff" fill-rule="evenodd" stroke="none"/>
    <path d="M50.3 10.1 L50.3 4.1 M50.3 22.1 L50.3 16.1 M50.3 34.1 L50.3 28.1 M49.3 45.1 L50.3 45.1 50.3 40.1 M50.3 0.1 L44.3 0.1 M38.3 0.1 L32.3 0.1 M26.3 0.1 L20.3 0.1 M14.3 0.1 L8.3 0.1 M2.3 0.1 L0.3 0.1 0.3 4.1 M0.3 10.1 L0.3 16.1 M13.3 45.1 L19.3 45.1 M0.3 34.1 L0.3 40.1 M1.3 45.1 L7.3 45.1 M25.3 45.1 L31.3 45.1 M0.3 22.1 L0.3 28.1 M37.3 45.1 L43.3 45.1" fill="none" stroke="#000000" stroke-linecap="round" stroke-linejoin="round" stroke-width="3.0"/>
    <path d="M50.3 45.05 L0.3 45.05 0.3 0.05 50.3 0.05 50.3 45.05" fill="#ffffff" fill-rule="evenodd" stroke="none"/>
    <path d="M50.3 10.1 L50.3 4.1 M50.3 22.1 L50.3 16.1 M50.3 34.1 L50.3 28.1 M49.3 45.1 L50.3 45.1 50.3 40.1 M50.3 0.1 L44.3 0.1 M38.3 0.1 L32.3 0.1 M26.3 0.1 L20.3 0.1 M14.3 0.1 L8.3 0.1 M2.3 0.1 L0.3 0.1 0.3 4.1 M0.3 10.1 L0.3 16.1 M13.3 45.1 L19.3 45.1 M0.3 34.1 L0.3 40.1 M1.3 45.1 L7.3 45.1 M25.3 45.1 L31.3 45.1 M0.3 22.1 L0.3 28.1 M37.3 45.1 L43.3 45.1" fill="none" stroke="#000000" stroke-linecap="round" stroke-linejoin="round" stroke-width="3.0"/>
    <path d="M50.3 45.05 L0.3 45.05 0.3 0.05 50.3 0.05 50.3 45.05" fill="#ffffff" fill-rule="evenodd" stroke="none"/>
    <path d="M50.3 10.1 L50.3 4.1 M50.3 22.1 L50.3 16.1 M50.3 34.1 L50.3 28.1 M49.3 45.1 L50.3 45.1 50.3 40.1 M50.3 0.1 L44.3 0.1 M38.3 0.1 L32.3 0.1 M26.3 0.1 L20.3 0.1 M14.3 0.1 L8.3 0.1 M2.3 0.1 L0.3 0.1 0.3 4.1 M0.3 10.1 L0.3 16.1 M13.3 45.1 L19.3 45.1 M0.3 34.1 L0.3 40.1 M1.3 45.1 L7.3 45.1 M25.3 45.1 L31.3 45.1 M0.3 22.1 L0.3 28.1 M37.3 45.1 L43.3 45.1" fill="none" stroke="#000000" stroke-linecap="round" stroke-linejoin="round" stroke-width="3.0"/>
    <path d="M50.3 45.05 L0.3 45.05 0.3 0.05 50.3 0.05 50.3 45.05" fill="#ffffff" fill-rule="evenodd" stroke="none"/>
    <path d="M50.3 10.1 L50.3 4.1 M50.3 22.1 L50.3 16.1 M50.3 34.1 L50.3 28.1 M49.3 45.1 L50.3 45.1 50.3 40.1 M50.3 0.1 L44.3 0.1 M38.3 0.1 L32.3 0.1 M26.3 0.1 L20.3 0.1 M14.3 0.1 L8.3 0.1 M2.3 0.1 L0.3 0.1 0.3 4.1 M0.3 10.1 L0.3 16.1 M13.3 45.1 L19.3 45.1 M0.3 34.1 L0.3 40.1 M1.3 45.1 L7.3 45.1 M25.3 45.1 L31.3 45.1 M0.3 22.1 L0.3 28.1 M37.3 45.1 L43.3 45.1" fill="none" stroke="#000000" stroke-linecap="round" stroke-linejoin="round" stroke-width="3.0"/>
    <path d="M50.3 45.05 L0.3 45.05 0.3 0.05 50.3 0.05 50.3 45.05" fill="#ffffff" fill-rule="evenodd" stroke="none"/>
    <path d="M50.3 10.1 L50.3 4.1 M50.3 22.1 L50.3 16.1 M50.3 34.1 L50.3 28.1 M49.3 45.1 L50.3 45.1 50.3 40.1 M50.3 0.1 L44.3 0.1 M38.3 0.1 L32.3 0.1 M26.3 0.1 L20.3 0.1 M14.3 0.1 L8.3 0.1 M2.3 0.1 L0.3 0.1 0.3 4.1 M0.3 10.1 L0.3 16.1 M13.3 45.1 L19.3 45.1 M0.3 34.1 L0.3 40.1 M1.3 45.1 L7.3 45.1 M25.3 45.1 L31.3 45.1 M0.3 22.1 L0.3 28.1 M37.3 45.1 L43.3 45.1" fill="none" stroke="#000000" stroke-linecap="round" stroke-linejoin="round" stroke-width="3.0"/>
    <path d="M50.3 45.05 L0.3 45.05 0.3 0.05 50.3 0.05 50.3 45.05" fill="#ffffff" fill-rule="evenodd" stroke="none"/>
    <path d="M50.3 10.1 L50.3 4.1 M50.3 22.1 L50.3 16.1 M50.3 34.1 L50.3 28.1 M49.3 45.1 L50.3 45.1 50.3 40.1 M50.3 0.1 L44.3 0.1 M38.3 0.1 L32.3 0.1 M26.3 0.1 L20.3 0.1 M14.3 0.1 L8.3 0.1 M2.3 0.1 L0.3 0.1 0.3 4.1 M0.3 10.1 L0.3 16.1 M13.3 45.1 L19.3 45.1 M0.3 34.1 L0.3 40.1 M1.3 45.1 L7.3 45.1 M25.3 45.1 L31.3 45.1 M0.3 22.1 L0.3 28.1 M37.3 45.1 L43.3 45.1" fill="none" stroke="#000000" stroke-linecap="round" stroke-linejoin="round" stroke-width="3.0"/>
    <path d="M50.3 45.05 L0.3 45.05 0.3 0.05 50.3 0.05 50.3 45.05" fill="#ffffff" fill-rule="evenodd" stroke="none"/>
    <path d="M50.3 10.1 L50.3 4.1 M50.3 22.1 L50.3 16.1 M50.3 34.1 L50.3 28.1 M49.3 45.1 L50.3 45.1 50.3 40.1 M50.3 0.1 L44.3 0.1 M38.3 0.1 L32.3 0.1 M26.3 0.1 L20.3 0.1 M14.3 0.1 L8.3 0.1 M2.3 0.1 L0.3 0.1 0.3 4.1 M0.3 10.1 L0.3 16.1 M13.3 45.1 L19.3 45.1 M0.3 34.1 L0.3 40.1 M1.3 45.1 L7.3 45.1 M25.3 45.1 L31.3 45.1 M0.3 22.1 L0.3 28.1 M37.3 45.1 L43.3 45.1" fill="none" stroke="#000000" stroke-linecap="round" stroke-linejoin="round" stroke-width="3.0"/>
    <path d="M50.3 45.05 L0.3 45.05 0.3 0.05 50.3 0.05 50.3 45.05" fill="#ffffff" fill-rule="evenodd" stroke="none"/>
    <path d="M50.3 10.1 L50.3 4.1 M50.3 22.1 L50.3 16.1 M50.3 34.1 L50.3 28.1 M49.3 45.1 L50.3 45.1 50.3 40.1 M50.3 0.1 L44.3 0.1 M38.3 0.1 L32.3 0.1 M26.3 0.1 L20.3 0.1 M14.3 0.1 L8.3 0.1 M2.3 0.1 L0.3 0.1 0.3 4.1 M0.3 10.1 L0.3 16.1 M13.3 45.1 L19.3 45.1 M0.3 34.1 L0.3 40.1 M1.3 45.1 L7.3 45.1 M25.3 45.1 L31.3 45.1 M0.3 22.1 L0.3 28.1 M37.3 45.1 L43.3 45.1" fill="none" stroke="#000000" stroke-linecap="round" stroke-linejoin="round" stroke-width="3.0"/>
    <path d="M50.3 45.05 L0.3 45.05 0.3 0.05 50.3 0.05 50.3 45.05" fill="#ffffff" fill-rule="evenodd" stroke="none"/>
    <path d="M50.3 10.1 L50.3 4.1 M50.3 22.1 L50.3 16.1 M50.3 34.1 L50.3 28.1 M49.3 45.1 L50.3 45.1 50.3 40.1 M50.3 0.1 L44.3 0.1 M38.3 0.1 L32.3 0.1 M26.3 0.1 L20.3 0.1 M14.3 0.1 L8.3 0.1 M2.3 0.1 L0.3 0.1 0.3 4.1 M0.3 10.1 L0.3 16.1 M13.3 45.1 L19.3 45.1 M0.3 34.1 L0.3 40.1 M1.3 45.1 L7.3 45.1 M25.3 45.1 L31.3 45.1 M0.3 22.1 L0.3 28.1 M37.3 45.1 L43.3 45.1" fill="none" stroke="#000000" stroke-linecap="round" stroke-linejoin="round" stroke-width="3.0"/>
    <path d="M50.3 45.05 L0.3 45.05 0.3 0.05 50.3 0.05 50.3 45.05" fill="#ffffff" fill-rule="evenodd" stroke="none"/>
    <path d="M50.3 10.1 L50.3 4.1 M50.3 22.1 L50.3 16.1 M50.3 34.1 L50.3 28.1 M49.3 45.1 L50.3 45.1 50.3 40.1 M50.3 0.1 L44.3 0.1 M38.3 0.1 L32.3 0.1 M26.3 0.1 L20.3 0.1 M14.3 0.1 L8.3 0.1 M2.3 0.1 L0.3 0.1 0.3 4.1 M0.3 10.1 L0.3 16.1 M13.3 45.1 L19.3 45.1 M0.3 34.1 L0.3 40.1 M1.3 45.1 L7.3 45.1 M25.3 45.1 L31.3 45.1 M0.3 22.1 L0.3 28.1 M37.3 45.1 L43.3 45.1" fill="none" stroke="#000000" stroke-linecap="round" stroke-linejoin="round" stroke-width="3.0"/>
    <path d="M50.3 45.05 L0.3 45.05 0.3 0.05 50.3 0.05 50.3 45.05" fill="#ffffff" fill-rule="evenodd" stroke="none"/>
    <path d="M50.3 10.1 L50.3 4.1 M50.3 22.1 L50.3 16.1 M50.3 34.1 L50.3 28.1 M49.3 45.1 L50.3 45.1 50.3 40.1 M50.3 0.1 L44.3 0.1 M38.3 0.1 L32.3 0.1 M26.3 0.1 L20.3 0.1 M14.3 0.1 L8.3 0.1 M2.3 0.1 L0.3 0.1 0.3 4.1 M0.3 10.1 L0.3 16.1 M13.3 45.1 L19.3 45.1 M0.3 34.1 L0.3 40.1 M1.3 45.1 L7.3 45.1 M25.3 45.1 L31.3 45.1 M0.3 22.1 L0.3 28.1 M37.3 45.1 L43.3 45.1" fill="none" stroke="#000000" stroke-linecap="round" stroke-linejoin="round" stroke-width="3.0"/>
    <path d="M50.3 45.05 L0.3 45.05 0.3 0.05 50.3 0.05 50.3 45.05" fill="#ffffff" fill-rule="evenodd" stroke="none"/>
    <path d="M50.3 10.1 L50.3 4.1 M50.3 22.1 L50.3 16.1 M50.3 34.1 L50.3 28.1 M49.3 45.1 L50.3 45.1 50.3 40.1 M50.3 0.1 L44.3 0.1 M38.3 0.1 L32.3 0.1 M26.3 0.1 L20.3 0.1 M14.3 0.1 L8.3 0.1 M2.3 0.1 L0.3 0.1 0.3 4.1 M0.3 10.1 L0.3 16.1 M13.3 45.1 L19.3 45.1 M0.3 34.1 L0.3 40.1 M1.3 45.1 L7.3 45.1 M25.3 45.1 L31.3 45.1 M0.3 22.1 L0.3 28.1 M37.3 45.1 L43.3 45.1" fill="none" stroke="#000000" stroke-linecap="round" stroke-linejoin="round" stroke-width="3.0"/>
    <path d="M50.3 45.05 L0.3 45.05 0.3 0.05 50.3 0.05 50.3 45.05" fill="#ffffff" fill-rule="evenodd" stroke="none"/>
    <path d="M50.3 10.1 L50.3 4.1 M50.3 22.1 L50.3 16.1 M50.3 34.1 L50.3 28.1 M49.3 45.1 L50.3 45.1 50.3 40.1 M50.3 0.1 L44.3 0.1 M38.3 0.1 L32.3 0.1 M26.3 0.1 L20.3 0.1 M14.3 0.1 L8.3 0.1 M2.3 0.1 L0.3 0.1 0.3 4.1 M0.3 10.1 L0.3 16.1 M13.3 45.1 L19.3 45.1 M0.3 34.1 L0.3 40.1 M1.3 45.1 L7.3 45.1 M25.3 45.1 L31.3 45.1 M0.3 22.1 L0.3 28.1 M37.3 45.1 L43.3 45.1" fill="none" stroke="#000000" stroke-linecap="round" stroke-linejoin="round" stroke-width="3.0"/>
    <path d="M50.3 45.05 L0.3 45.05 0.3 0.05 50.3 0.05 50.3 45.05" fill="#ffffff" fill-rule="evenodd" stroke="none"/>
    <path d="M50.3 10.1 L50.3 4.1 M50.3 22.1 L50.3 16.1 M50.3 34.1 L50.3 28.1 M49.3 45.1 L50.3 45.1 50.3 40.1 M50.3 0.1 L44.3 0.1 M38.3 0.1 L32.3 0.1 M26.3 0.1 L20.3 0.1 M14.3 0.1 L8.3 0.1 M2.3 0.1 L0.3 0.1 0.3 4.1 M0.3 10.1 L0.3 16.1 M13.3 45.1 L19.3 45.1 M0.3 34.1 L0.3 40.1 M1.3 45.1 L7.3 45.1 M25.3 45.1 L31.3 45.1 M0.3 22.1 L0.3 28.1 M37.3 45.1 L43.3 45.1" fill="none" stroke="#000000" stroke-linecap="round" stroke-linejoin="round" stroke-width="3.0"/>
    <path d="M50.3 45.05 L0.3 45.05 0.3 0.05 50.3 0.05 50.3 45.05" fill="#ffffff" fill-rule="evenodd" stroke="none"/>
    <path d="M50.3 10.1 L50.3 4.1 M50.3 22.1 L50.3 16.1 M50.3 34.1 L50.3 28.1 M49.3 45.1 L50.3 45.1 50.3 40.1 M50.3 0.1 L44.3 0.1 M38.3 0.1 L32.3 0.1 M26.3 0.1 L20.3 0.1 M14.3 0.1 L8.3 0.1 M2.3 0.1 L0.3 0.1 0.3 4.1 M0.3 10.1 L0.3 16.1 M13.3 45.1 L19.3 45.1 M0.3 34.1 L0.3 40.1 M1.3 45.1 L7.3 45.1 M25.3 45.1 L31.3 45.1 M0.3 22.1 L0.3 28.1 M37.3 45.1 L43.3 45.1" fill="none" stroke="#000000" stroke-linecap="round" stroke-linejoin="round" stroke-width="3.0"/>
    <path d="M50.3 45.05 L0.3 45.05 0.3 0.05 50.3 0.05 50.3 45.05" fill="#ffffff" fill-rule="evenodd" stroke="none"/>
    <path d="M50.3 10.1 L50.3 4.1 M50.3 22.1 L50.3 16.1 M50.3 34.1 L50.3 28.1 M49.3 45.1 L50.3 45.1 50.3 40.1 M50.3 0.1 L44.3 0.1 M38.3 0.1 L32.3 0.1 M26.3 0.1 L20.3 0.1 M14.3 0.1 L8.3 0.1 M2.3 0.1 L0.3 0.1 0.3 4.1 M0.3 10.1 L0.3 16.1 M13.3 45.1 L19.3 45.1 M0.3 34.1 L0.3 40.1 M1.3 45.1 L7.3 45.1 M25.3 45.1 L31.3 45.1 M0.3 22.1 L0.3 28.1 M37.3 45.1 L43.3 45.1" fill="none" stroke="#000000" stroke-linecap="round" stroke-linejoin="round" stroke-width="3.0"/>
    <path d="M50.3 45.05 L0.3 45.05 0.3 0.05 50.3 0.05 50.3 45.05" fill="#ffffff" fill-rule="evenodd" stroke="none"/>
    <path d="M50.3 10.1 L50.3 4.1 M50.3 22.1 L50.3 16.1 M50.3 34.1 L50.3 28.1 M49.3 45.1 L50.3 45.1 50.3 40.1 M50.3 0.1 L44.3 0.1 M38.3 0.1 L32.3 0.1 M26.3 0.1 L20.3 0.1 M14.3 0.1 L8.3 0.1 M2.3 0.1 L0.3 0.1 0.3 4.1 M0.3 10.1 L0.3 16.1 M13.3 45.1 L19.3 45.1 M0.3 34.1 L0.3 40.1 M1.3 45.1 L7.3 45.1 M25.3 45.1 L31.3 45.1 M0.3 22.1 L0.3 28.1 M37.3 45.1 L43.3 45.1" fill="none" stroke="#000000" stroke-linecap="round" stroke-linejoin="round" stroke-width="3.0"/>
    <path d="M50.3 45.05 L0.3 45.05 0.3 0.05 50.3 0.05 50.3 45.05" fill="#ffffff" fill-rule="evenodd" stroke="none"/>
    <path d="M50.3 10.1 L50.3 4.1 M50.3 22.1 L50.3 16.1 M50.3 34.1 L50.3 28.1 M49.3 45.1 L50.3 45.1 50.3 40.1 M50.3 0.1 L44.3 0.1 M38.3 0.1 L32.3 0.1 M26.3 0.1 L20.3 0.1 M14.3 0.1 L8.3 0.1 M2.3 0.1 L0.3 0.1 0.3 4.1 M0.3 10.1 L0.3 16.1 M13.3 45.1 L19.3 45.1 M0.3 34.1 L0.3 40.1 M1.3 45.1 L7.3 45.1 M25.3 45.1 L31.3 45.1 M0.3 22.1 L0.3 28.1 M37.3 45.1 L43.3 45.1" fill="none" stroke="#000000" stroke-linecap="round" stroke-linejoin="round" stroke-width="3.0"/>
    <path d="M50.3 45.05 L0.3 45.05 0.3 0.05 50.3 0.05 50.3 45.05" fill="#ffffff" fill-rule="evenodd" stroke="none"/>
    <path d="M50.3 10.1 L50.3 4.1 M50.3 22.1 L50.3 16.1 M50.3 34.1 L50.3 28.1 M49.3 45.1 L50.3 45.1 50.3 40.1 M50.3 0.1 L44.3 0.1 M38.3 0.1 L32.3 0.1 M26.3 0.1 L20.3 0.1 M14.3 0.1 L8.3 0.1 M2.3 0.1 L0.3 0.1 0.3 4.1 M0.3 10.1 L0.3 16.1 M13.3 45.1 L19.3 45.1 M0.3 34.1 L0.3 40.1 M1.3 45.1 L7.3 45.1 M25.3 45.1 L31.3 45.1 M0.3 22.1 L0.3 28.1 M37.3 45.1 L43.3 45.1" fill="none" stroke="#000000" stroke-linecap="round" stroke-linejoin="round" stroke-width="3.0"/>
    <path d="M50.3 45.05 L0.3 45.05 0.3 0.05 50.3 0.05 50.3 45.05" fill="#ffffff" fill-rule="evenodd" stroke="none"/>
    <path d="M50.3 10.1 L50.3 4.1 M50.3 22.1 L50.3 16.1 M50.3 34.1 L50.3 28.1 M49.3 45.1 L50.3 45.1 50.3 40.1 M50.3 0.1 L44.3 0.1 M38.3 0.1 L32.3 0.1 M26.3 0.1 L20.3 0.1 M14.3 0.1 L8.3 0.1 M2.3 0.1 L0.3 0.1 0.3 4.1 M0.3 10.1 L0.3 16.1 M13.3 45.1 L19.3 45.1 M0.3 34.1 L0.3 40.1 M1.3 45.1 L7.3 45.1 M25.3 45.1 L31.3 45.1 M0.3 22.1 L0.3 28.1 M37.3 45.1 L43.3 45.1" fill="none" stroke="#000000" stroke-linecap="round" stroke-linejoin="round" stroke-width="3.0"/>
    <path d="M28.75 18.4 L28.8 18.4 Q29.0 18.4 29.1 18.55 L29.15 18.65 29.2 18.65 29.45 18.9 29.3 19.35 29.3 19.45 28.9 21.1 28.35 23.05 27.8 24.45 27.4 25.2 27.35 25.35 26.8 26.2 25.8 27.25 Q24.9 28.0 24.6 28.0 L24.35 27.95 24.25 27.9 23.95 28.05 23.85 28.05 23.35 28.05 Q22.8 28.05 22.2 27.6 21.55 27.15 21.35 26.2 21.1 25.3 21.0 23.8 L20.85 21.65 20.7 20.35 20.6 19.8 20.5 19.8 20.4 19.15 20.45 18.9 20.55 18.7 20.8 18.6 21.1 18.5 21.3 18.4 21.4 18.35 21.6 18.45 21.85 18.7 22.0 19.1 21.95 19.35 21.9 19.8 21.9 20.55 22.0 23.3 22.15 24.75 22.4 25.8 Q22.55 26.4 22.85 26.7 L23.2 27.0 23.6 27.0 Q23.6 27.2 24.0 27.2 L24.9 27.0 25.6 26.4 26.1 25.65 26.5 24.9 27.05 23.95 27.6 22.35 27.65 22.1 27.7 21.6 27.85 21.2 28.15 19.6 28.15 19.25 28.1 18.95 Q28.1 18.55 28.35 18.5 L28.75 18.4 M29.65 18.4 L30.0 18.3 30.55 18.35 31.55 18.4 32.55 18.4 33.1 18.35 33.15 18.25 33.45 18.3 33.7 18.4 33.85 18.55 34.1 18.5 34.65 18.45 35.9 18.45 36.3 18.45 36.8 18.4 Q37.3 18.4 37.45 18.65 L37.25 19.35 37.0 19.4 36.4 19.35 36.0 19.35 35.85 19.35 35.0 19.2 33.8 19.25 33.6 20.75 33.55 22.35 33.6 23.05 33.5 23.5 33.45 23.95 33.45 24.5 33.5 25.95 33.5 26.2 33.55 26.55 33.65 27.15 33.75 27.4 33.4 27.7 33.2 27.9 33.1 27.8 32.8 27.95 32.7 27.8 32.5 27.85 32.35 27.85 32.15 27.85 32.25 27.25 32.2 26.9 32.25 26.75 Q32.45 26.2 32.45 24.3 L32.5 21.25 32.35 19.4 32.4 19.35 32.4 19.3 32.35 19.3 31.95 19.25 31.55 19.25 31.0 19.4 30.7 19.35 30.55 19.4 30.15 19.45 29.55 19.25 29.5 19.05 29.6 18.75 29.65 18.5 29.65 18.4 M17.1 18.15 L17.6 18.15 18.15 18.25 18.65 18.35 19.0 18.45 19.2 18.7 19.05 19.25 18.55 19.75 18.2 19.65 Q17.9 19.35 17.4 19.2 L16.75 19.05 16.35 19.1 15.95 19.15 15.8 19.15 15.65 19.2 15.4 19.3 15.2 19.4 15.0 19.4 14.9 19.5 Q14.7 19.5 14.55 19.65 L14.4 19.65 Q12.75 21.35 12.75 23.3 12.75 24.4 13.4 25.3 14.1 26.25 15.25 26.7 L17.65 27.2 18.3 27.1 18.75 26.9 Q19.3 26.95 19.3 28.1 L18.95 28.4 18.2 28.3 16.35 28.1 15.1 27.8 13.9 27.3 12.9 26.6 12.25 25.7 11.8 24.7 Q11.65 24.2 11.65 23.6 11.65 22.9 12.05 21.85 L12.6 20.55 13.35 19.7 14.85 18.65 15.1 18.45 15.7 18.35 16.3 18.25 17.1 18.15" fill="#000000" fill-rule="evenodd" stroke="none"/>
    <path d="M29.65 18.4 L30.0 18.3 30.55 18.35 31.55 18.4 32.55 18.4 33.1 18.35 33.15 18.25 33.45 18.3 33.7 18.4 33.85 18.55 34.1 18.5 34.65 18.45 35.9 18.45 36.3 18.45 36.8 18.4 Q37.3 18.4 37.45 18.65 L37.25 19.35 37.0 19.4 36.4 19.35 36.0 19.35 35.85 19.35 35.0 19.2 33.8 19.25 33.6 20.75 33.55 22.35 33.6 23.05 33.5 23.5 33.45 23.95 33.45 24.5 33.5 25.95 33.5 26.2 33.55 26.55 33.65 27.15 33.75 27.4 33.4 27.7 33.2 27.9 33.1 27.8 32.8 27.95 32.7 27.8 32.5 27.85 32.35 27.85 32.15 27.85 32.25 27.25 32.2 26.9 32.25 26.75 Q32.45 26.2 32.45 24.3 L32.5 21.25 32.35 19.4 32.4 19.35 32.4 19.3 32.35 19.3 31.95 19.25 31.55 19.25 31.0 19.4 30.7 19.35 30.55 19.4 30.15 19.45 29.55 19.25 29.5 19.05 29.6 18.75 29.65 18.5 29.65 18.4 M28.75 18.4 L28.8 18.4 Q29.0 18.4 29.1 18.55 L29.15 18.65 29.2 18.65 29.45 18.9 29.3 19.35 29.3 19.45 28.9 21.1 28.35 23.05 27.8 24.45 27.4 25.2 27.35 25.35 26.8 26.2 25.8 27.25 Q24.9 28.0 24.6 28.0 L24.35 27.95 24.25 27.9 23.95 28.05 23.85 28.05 23.35 28.05 Q22.8 28.05 22.2 27.6 21.55 27.15 21.35 26.2 21.1 25.3 21.0 23.8 L20.85 21.65 20.7 20.35 20.6 19.8 20.5 19.8 20.4 19.15 20.45 18.9 20.55 18.7 20.8 18.6 21.1 18.5 21.3 18.4 21.4 18.35 21.6 18.45 21.85 18.7 22.0 19.1 21.95 19.35 21.9 19.8 21.9 20.55 22.0 23.3 22.15 24.75 22.4 25.8 Q22.55 26.4 22.85 26.7 L23.2 27.0 23.6 27.0 Q23.6 27.2 24.0 27.2 L24.9 27.0 25.6 26.4 26.1 25.65 26.5 24.9 27.05 23.95 27.6 22.35 27.65 22.1 27.7 21.6 27.85 21.2 28.15 19.6 28.15 19.25 28.1 18.95 Q28.1 18.55 28.35 18.5 L28.75 18.4 M17.6 18.15 L18.15 18.25 18.65 18.35 19.0 18.45 19.2 18.7 19.05 19.25 18.55 19.75 18.2 19.65 Q17.9 19.35 17.4 19.2 L16.75 19.05 16.35 19.1 15.95 19.15 15.8 19.15 15.65 19.2 15.4 19.3 15.2 19.4 15.0 19.4 14.9 19.5 Q14.7 19.5 14.55 19.65 L14.4 19.65 Q12.75 21.35 12.75 23.3 12.75 24.4 13.4 25.3 14.1 26.25 15.25 26.7 L17.65 27.2 18.3 27.1 18.75 26.9 Q19.3 26.95 19.3 28.1 L18.95 28.4 18.2 28.3 16.35 28.1 15.1 27.8 13.9 27.3 12.9 26.6 12.25 25.7 11.8 24.7 Q11.65 24.2 11.65 23.6 11.65 22.9 12.05 21.85 L12.6 20.55 13.35 19.7 14.85 18.65 15.1 18.45 15.7 18.35 16.3 18.25 17.1 18.15 17.6 18.15" fill="#000000" fill-rule="evenodd" stroke="none"/>
    <path d="M29.65 18.4 L30.0 18.3 30.55 18.35 31.55 18.4 32.55 18.4 33.1 18.35 33.15 18.25 33.45 18.3 33.7 18.4 33.85 18.55 34.1 18.5 34.65 18.45 35.9 18.45 36.3 18.45 36.8 18.4 Q37.3 18.4 37.45 18.65 L37.25 19.35 37.0 19.4 36.4 19.35 36.0 19.35 35.85 19.35 35.0 19.2 33.8 19.25 33.6 20.75 33.55 22.35 33.6 23.05 33.5 23.5 33.45 23.95 33.45 24.5 33.5 25.95 33.5 26.2 33.55 26.55 33.65 27.15 33.75 27.4 33.4 27.7 33.2 27.9 33.1 27.8 32.8 27.95 32.7 27.8 32.5 27.85 32.35 27.85 32.15 27.85 32.25 27.25 32.2 26.9 32.25 26.75 Q32.45 26.2 32.45 24.3 L32.5 21.25 32.35 19.4 32.4 19.35 32.4 19.3 32.35 19.3 31.95 19.25 31.55 19.25 31.0 19.4 30.7 19.35 30.55 19.4 30.15 19.45 29.55 19.25 29.5 19.05 29.6 18.75 29.65 18.5 29.65 18.4 M28.75 18.4 L28.8 18.4 Q29.0 18.4 29.1 18.55 L29.15 18.65 29.2 18.65 29.45 18.9 29.3 19.35 29.3 19.45 28.9 21.1 28.35 23.05 27.8 24.45 27.4 25.2 27.35 25.35 26.8 26.2 25.8 27.25 Q24.9 28.0 24.6 28.0 L24.35 27.95 24.25 27.9 23.95 28.05 23.85 28.05 23.35 28.05 Q22.8 28.05 22.2 27.6 21.55 27.15 21.35 26.2 21.1 25.3 21.0 23.8 L20.85 21.65 20.7 20.35 20.6 19.8 20.5 19.8 20.4 19.15 20.45 18.9 20.55 18.7 20.8 18.6 21.1 18.5 21.3 18.4 21.4 18.35 21.6 18.45 21.85 18.7 22.0 19.1 21.95 19.35 21.9 19.8 21.9 20.55 22.0 23.3 22.15 24.75 22.4 25.8 Q22.55 26.4 22.85 26.7 L23.2 27.0 23.6 27.0 Q23.6 27.2 24.0 27.2 L24.9 27.0 25.6 26.4 26.1 25.65 26.5 24.9 27.05 23.95 27.6 22.35 27.65 22.1 27.7 21.6 27.85 21.2 28.15 19.6 28.15 19.25 28.1 18.95 Q28.1 18.55 28.35 18.5 L28.75 18.4 M17.6 18.15 L18.15 18.25 18.65 18.35 19.0 18.45 19.2 18.7 19.05 19.25 18.55 19.75 18.2 19.65 Q17.9 19.35 17.4 19.2 L16.75 19.05 16.35 19.1 15.95 19.15 15.8 19.15 15.65 19.2 15.4 19.3 15.2 19.4 15.0 19.4 14.9 19.5 Q14.7 19.5 14.55 19.65 L14.4 19.65 Q12.75 21.35 12.75 23.3 12.75 24.4 13.4 25.3 14.1 26.25 15.25 26.7 L17.65 27.2 18.3 27.1 18.75 26.9 Q19.3 26.95 19.3 28.1 L18.95 28.4 18.2 28.3 16.35 28.1 15.1 27.8 13.9 27.3 12.9 26.6 12.25 25.7 11.8 24.7 Q11.65 24.2 11.65 23.6 11.65 22.9 12.05 21.85 L12.6 20.55 13.35 19.7 14.85 18.65 15.1 18.45 15.7 18.35 16.3 18.25 17.1 18.15 17.6 18.15" fill="#000000" fill-rule="evenodd" stroke="none"/>
    <path d="M29.65 18.4 L30.0 18.3 30.55 18.35 31.55 18.4 32.55 18.4 33.1 18.35 33.15 18.25 33.45 18.3 33.7 18.4 33.85 18.55 34.1 18.5 34.65 18.45 35.9 18.45 36.3 18.45 36.8 18.4 Q37.3 18.4 37.45 18.65 L37.25 19.35 37.0 19.4 36.4 19.35 36.0 19.35 35.85 19.35 35.0 19.2 33.8 19.25 33.6 20.75 33.55 22.35 33.6 23.05 33.5 23.5 33.45 23.95 33.45 24.5 33.5 25.95 33.5 26.2 33.55 26.55 33.65 27.15 33.75 27.4 33.4 27.7 33.2 27.9 33.1 27.8 32.8 27.95 32.7 27.8 32.5 27.85 32.35 27.85 32.15 27.85 32.25 27.25 32.2 26.9 32.25 26.75 Q32.45 26.2 32.45 24.3 L32.5 21.25 32.35 19.4 32.4 19.35 32.4 19.3 32.35 19.3 31.95 19.25 31.55 19.25 31.0 19.4 30.7 19.35 30.55 19.4 30.15 19.45 29.55 19.25 29.5 19.05 29.6 18.75 29.65 18.5 29.65 18.4 M28.75 18.4 L28.8 18.4 Q29.0 18.4 29.1 18.55 L29.15 18.65 29.2 18.65 29.45 18.9 29.3 19.35 29.3 19.45 28.9 21.1 28.35 23.05 27.8 24.45 27.4 25.2 27.35 25.35 26.8 26.2 25.8 27.25 Q24.9 28.0 24.6 28.0 L24.35 27.95 24.25 27.9 23.95 28.05 23.85 28.05 23.35 28.05 Q22.8 28.05 22.2 27.6 21.55 27.15 21.35 26.2 21.1 25.3 21.0 23.8 L20.85 21.65 20.7 20.35 20.6 19.8 20.5 19.8 20.4 19.15 20.45 18.9 20.55 18.7 20.8 18.6 21.1 18.5 21.3 18.4 21.4 18.35 21.6 18.45 21.85 18.7 22.0 19.1 21.95 19.35 21.9 19.8 21.9 20.55 22.0 23.3 22.15 24.75 22.4 25.8 Q22.55 26.4 22.85 26.7 L23.2 27.0 23.6 27.0 Q23.6 27.2 24.0 27.2 L24.9 27.0 25.6 26.4 26.1 25.65 26.5 24.9 27.05 23.95 27.6 22.35 27.65 22.1 27.7 21.6 27.85 21.2 28.15 19.6 28.15 19.25 28.1 18.95 Q28.1 18.55 28.35 18.5 L28.75 18.4 M17.6 18.15 L18.15 18.25 18.65 18.35 19.0 18.45 19.2 18.7 19.05 19.25 18.55 19.75 18.2 19.65 Q17.9 19.35 17.4 19.2 L16.75 19.05 16.35 19.1 15.95 19.15 15.8 19.15 15.65 19.2 15.4 19.3 15.2 19.4 15.0 19.4 14.9 19.5 Q14.7 19.5 14.55 19.65 L14.4 19.65 Q12.75 21.35 12.75 23.3 12.75 24.4 13.4 25.3 14.1 26.25 15.25 26.7 L17.65 27.2 18.3 27.1 18.75 26.9 Q19.3 26.95 19.3 28.1 L18.95 28.4 18.2 28.3 16.35 28.1 15.1 27.8 13.9 27.3 12.9 26.6 12.25 25.7 11.8 24.7 Q11.65 24.2 11.65 23.6 11.65 22.9 12.05 21.85 L12.6 20.55 13.35 19.7 14.85 18.65 15.1 18.45 15.7 18.35 16.3 18.25 17.1 18.15 17.6 18.15" fill="#000000" fill-rule="evenodd" stroke="none"/>
    <path d="M29.65 18.4 L30.0 18.3 30.55 18.35 31.55 18.4 32.55 18.4 33.1 18.35 33.15 18.25 33.45 18.3 33.7 18.4 33.85 18.55 34.1 18.5 34.65 18.45 35.9 18.45 36.3 18.45 36.8 18.4 Q37.3 18.4 37.45 18.65 L37.25 19.35 37.0 19.4 36.4 19.35 36.0 19.35 35.85 19.35 35.0 19.2 33.8 19.25 33.6 20.75 33.55 22.35 33.6 23.05 33.5 23.5 33.45 23.95 33.45 24.5 33.5 25.95 33.5 26.2 33.55 26.55 33.65 27.15 33.75 27.4 33.4 27.7 33.2 27.9 33.1 27.8 32.8 27.95 32.7 27.8 32.5 27.85 32.35 27.85 32.15 27.85 32.25 27.25 32.2 26.9 32.25 26.75 Q32.45 26.2 32.45 24.3 L32.5 21.25 32.35 19.4 32.4 19.35 32.4 19.3 32.35 19.3 31.95 19.25 31.55 19.25 31.0 19.4 30.7 19.35 30.55 19.4 30.15 19.45 29.55 19.25 29.5 19.05 29.6 18.75 29.65 18.5 29.65 18.4 M28.75 18.4 L28.8 18.4 Q29.0 18.4 29.1 18.55 L29.15 18.65 29.2 18.65 29.45 18.9 29.3 19.35 29.3 19.45 28.9 21.1 28.35 23.05 27.8 24.45 27.4 25.2 27.35 25.35 26.8 26.2 25.8 27.25 Q24.9 28.0 24.6 28.0 L24.35 27.95 24.25 27.9 23.95 28.05 23.85 28.05 23.35 28.05 Q22.8 28.05 22.2 27.6 21.55 27.15 21.35 26.2 21.1 25.3 21.0 23.8 L20.85 21.65 20.7 20.35 20.6 19.8 20.5 19.8 20.4 19.15 20.45 18.9 20.55 18.7 20.8 18.6 21.1 18.5 21.3 18.4 21.4 18.35 21.6 18.45 21.85 18.7 22.0 19.1 21.95 19.35 21.9 19.8 21.9 20.55 22.0 23.3 22.15 24.75 22.4 25.8 Q22.55 26.4 22.85 26.7 L23.2 27.0 23.6 27.0 Q23.6 27.2 24.0 27.2 L24.9 27.0 25.6 26.4 26.1 25.65 26.5 24.9 27.05 23.95 27.6 22.35 27.65 22.1 27.7 21.6 27.85 21.2 28.15 19.6 28.15 19.25 28.1 18.95 Q28.1 18.55 28.35 18.5 L28.75 18.4 M17.6 18.15 L18.15 18.25 18.65 18.35 19.0 18.45 19.2 18.7 19.05 19.25 18.55 19.75 18.2 19.65 Q17.9 19.35 17.4 19.2 L16.75 19.05 16.35 19.1 15.95 19.15 15.8 19.15 15.65 19.2 15.4 19.3 15.2 19.4 15.0 19.4 14.9 19.5 Q14.7 19.5 14.55 19.65 L14.4 19.65 Q12.75 21.35 12.75 23.3 12.75 24.4 13.4 25.3 14.1 26.25 15.25 26.7 L17.65 27.2 18.3 27.1 18.75 26.9 Q19.3 26.95 19.3 28.1 L18.95 28.4 18.2 28.3 16.35 28.1 15.1 27.8 13.9 27.3 12.9 26.6 12.25 25.7 11.8 24.7 Q11.65 24.2 11.65 23.6 11.65 22.9 12.05 21.85 L12.6 20.55 13.35 19.7 14.85 18.65 15.1 18.45 15.7 18.35 16.3 18.25 17.1 18.15 17.6 18.15" fill="#000000" fill-rule="evenodd" stroke="none"/>
    <path d="M29.65 18.4 L30.0 18.3 30.55 18.35 31.55 18.4 32.55 18.4 33.1 18.35 33.15 18.25 33.45 18.3 33.7 18.4 33.85 18.55 34.1 18.5 34.65 18.45 35.9 18.45 36.3 18.45 36.8 18.4 Q37.3 18.4 37.45 18.65 L37.25 19.35 37.0 19.4 36.4 19.35 36.0 19.35 35.85 19.35 35.0 19.2 33.8 19.25 33.6 20.75 33.55 22.35 33.6 23.05 33.5 23.5 33.45 23.95 33.45 24.5 33.5 25.95 33.5 26.2 33.55 26.55 33.65 27.15 33.75 27.4 33.4 27.7 33.2 27.9 33.1 27.8 32.8 27.95 32.7 27.8 32.5 27.85 32.35 27.85 32.15 27.85 32.25 27.25 32.2 26.9 32.25 26.75 Q32.45 26.2 32.45 24.3 L32.5 21.25 32.35 19.4 32.4 19.35 32.4 19.3 32.35 19.3 31.95 19.25 31.55 19.25 31.0 19.4 30.7 19.35 30.55 19.4 30.15 19.45 29.55 19.25 29.5 19.05 29.6 18.75 29.65 18.5 29.65 18.4 M28.75 18.4 L28.8 18.4 Q29.0 18.4 29.1 18.55 L29.15 18.65 29.2 18.65 29.45 18.9 29.3 19.35 29.3 19.45 28.9 21.1 28.35 23.05 27.8 24.45 27.4 25.2 27.35 25.35 26.8 26.2 25.8 27.25 Q24.9 28.0 24.6 28.0 L24.35 27.95 24.25 27.9 23.95 28.05 23.85 28.05 23.35 28.05 Q22.8 28.05 22.2 27.6 21.55 27.15 21.35 26.2 21.1 25.3 21.0 23.8 L20.85 21.65 20.7 20.35 20.6 19.8 20.5 19.8 20.4 19.15 20.45 18.9 20.55 18.7 20.8 18.6 21.1 18.5 21.3 18.4 21.4 18.35 21.6 18.45 21.85 18.7 22.0 19.1 21.95 19.35 21.9 19.8 21.9 20.55 22.0 23.3 22.15 24.75 22.4 25.8 Q22.55 26.4 22.85 26.7 L23.2 27.0 23.6 27.0 Q23.6 27.2 24.0 27.2 L24.9 27.0 25.6 26.4 26.1 25.65 26.5 24.9 27.05 23.95 27.6 22.35 27.65 22.1 27.7 21.6 27.85 21.2 28.15 19.6 28.15 19.25 28.1 18.95 Q28.1 18.55 28.35 18.5 L28.75 18.4 M17.6 18.15 L18.15 18.25 18.65 18.35 19.0 18.45 19.2 18.7 19.05 19.25 18.55 19.75 18.2 19.65 Q17.9 19.35 17.4 19.2 L16.75 19.05 16.35 19.1 15.95 19.15 15.8 19.15 15.65 19.2 15.4 19.3 15.2 19.4 15.0 19.4 14.9 19.5 Q14.7 19.5 14.55 19.65 L14.4 19.65 Q12.75 21.35 12.75 23.3 12.75 24.4 13.4 25.3 14.1 26.25 15.25 26.7 L17.65 27.2 18.3 27.1 18.75 26.9 Q19.3 26.95 19.3 28.1 L18.95 28.4 18.2 28.3 16.35 28.1 15.1 27.8 13.9 27.3 12.9 26.6 12.25 25.7 11.8 24.7 Q11.65 24.2 11.65 23.6 11.65 22.9 12.05 21.85 L12.6 20.55 13.35 19.7 14.85 18.65 15.1 18.45 15.7 18.35 16.3 18.25 17.1 18.15 17.6 18.15" fill="#000000" fill-rule="evenodd" stroke="none"/>
    <path d="M29.65 18.4 L30.0 18.3 30.55 18.35 31.55 18.4 32.55 18.4 33.1 18.35 33.15 18.25 33.45 18.3 33.7 18.4 33.85 18.55 34.1 18.5 34.65 18.45 35.9 18.45 36.3 18.45 36.8 18.4 Q37.3 18.4 37.45 18.65 L37.25 19.35 37.0 19.4 36.4 19.35 36.0 19.35 35.85 19.35 35.0 19.2 33.8 19.25 33.6 20.75 33.55 22.35 33.6 23.05 33.5 23.5 33.45 23.95 33.45 24.5 33.5 25.95 33.5 26.2 33.55 26.55 33.65 27.15 33.75 27.4 33.4 27.7 33.2 27.9 33.1 27.8 32.8 27.95 32.7 27.8 32.5 27.85 32.35 27.85 32.15 27.85 32.25 27.25 32.2 26.9 32.25 26.75 Q32.45 26.2 32.45 24.3 L32.5 21.25 32.35 19.4 32.4 19.35 32.4 19.3 32.35 19.3 31.95 19.25 31.55 19.25 31.0 19.4 30.7 19.35 30.55 19.4 30.15 19.45 29.55 19.25 29.5 19.05 29.6 18.75 29.65 18.5 29.65 18.4 M28.75 18.4 L28.8 18.4 Q29.0 18.4 29.1 18.55 L29.15 18.65 29.2 18.65 29.45 18.9 29.3 19.35 29.3 19.45 28.9 21.1 28.35 23.05 27.8 24.45 27.4 25.2 27.35 25.35 26.8 26.2 25.8 27.25 Q24.9 28.0 24.6 28.0 L24.35 27.95 24.25 27.9 23.95 28.05 23.85 28.05 23.35 28.05 Q22.8 28.05 22.2 27.6 21.55 27.15 21.35 26.2 21.1 25.3 21.0 23.8 L20.85 21.65 20.7 20.35 20.6 19.8 20.5 19.8 20.4 19.15 20.45 18.9 20.55 18.7 20.8 18.6 21.1 18.5 21.3 18.4 21.4 18.35 21.6 18.45 21.85 18.7 22.0 19.1 21.95 19.35 21.9 19.8 21.9 20.55 22.0 23.3 22.15 24.75 22.4 25.8 Q22.55 26.4 22.85 26.7 L23.2 27.0 23.6 27.0 Q23.6 27.2 24.0 27.2 L24.9 27.0 25.6 26.4 26.1 25.65 26.5 24.9 27.05 23.95 27.6 22.35 27.65 22.1 27.7 21.6 27.85 21.2 28.15 19.6 28.15 19.25 28.1 18.95 Q28.1 18.55 28.35 18.5 L28.75 18.4 M17.6 18.15 L18.15 18.25 18.65 18.35 19.0 18.45 19.2 18.7 19.05 19.25 18.55 19.75 18.2 19.65 Q17.9 19.35 17.4 19.2 L16.75 19.05 16.35 19.1 15.95 19.15 15.8 19.15 15.65 19.2 15.4 19.3 15.2 19.4 15.0 19.4 14.9 19.5 Q14.7 19.5 14.55 19.65 L14.4 19.65 Q12.75 21.35 12.75 23.3 12.75 24.4 13.4 25.3 14.1 26.25 15.25 26.7 L17.65 27.2 18.3 27.1 18.75 26.9 Q19.3 26.95 19.3 28.1 L18.95 28.4 18.2 28.3 16.35 28.1 15.1 27.8 13.9 27.3 12.9 26.6 12.25 25.7 11.8 24.7 Q11.65 24.2 11.65 23.6 11.65 22.9 12.05 21.85 L12.6 20.55 13.35 19.7 14.85 18.65 15.1 18.45 15.7 18.35 16.3 18.25 17.1 18.15 17.6 18.15" fill="#000000" fill-rule="evenodd" stroke="none"/>
    <path d="M29.65 18.4 L30.0 18.3 30.55 18.35 31.55 18.4 32.55 18.4 33.1 18.35 33.15 18.25 33.45 18.3 33.7 18.4 33.85 18.55 34.1 18.5 34.65 18.45 35.9 18.45 36.3 18.45 36.8 18.4 Q37.3 18.4 37.45 18.65 L37.25 19.35 37.0 19.4 36.4 19.35 36.0 19.35 35.85 19.35 35.0 19.2 33.8 19.25 33.6 20.75 33.55 22.35 33.6 23.05 33.5 23.5 33.45 23.95 33.45 24.5 33.5 25.95 33.5 26.2 33.55 26.55 33.65 27.15 33.75 27.4 33.4 27.7 33.2 27.9 33.1 27.8 32.8 27.95 32.7 27.8 32.5 27.85 32.35 27.85 32.15 27.85 32.25 27.25 32.2 26.9 32.25 26.75 Q32.45 26.2 32.45 24.3 L32.5 21.25 32.35 19.4 32.4 19.35 32.4 19.3 32.35 19.3 31.95 19.25 31.55 19.25 31.0 19.4 30.7 19.35 30.55 19.4 30.15 19.45 29.55 19.25 29.5 19.05 29.6 18.75 29.65 18.5 29.65 18.4 M28.75 18.4 L28.8 18.4 Q29.0 18.4 29.1 18.55 L29.15 18.65 29.2 18.65 29.45 18.9 29.3 19.35 29.3 19.45 28.9 21.1 28.35 23.05 27.8 24.45 27.4 25.2 27.35 25.35 26.8 26.2 25.8 27.25 Q24.9 28.0 24.6 28.0 L24.35 27.95 24.25 27.9 23.95 28.05 23.85 28.05 23.35 28.05 Q22.8 28.05 22.2 27.6 21.55 27.15 21.35 26.2 21.1 25.3 21.0 23.8 L20.85 21.65 20.7 20.35 20.6 19.8 20.5 19.8 20.4 19.15 20.45 18.9 20.55 18.7 20.8 18.6 21.1 18.5 21.3 18.4 21.4 18.35 21.6 18.45 21.85 18.7 22.0 19.1 21.95 19.35 21.9 19.8 21.9 20.55 22.0 23.3 22.15 24.75 22.4 25.8 Q22.55 26.4 22.85 26.7 L23.2 27.0 23.6 27.0 Q23.6 27.2 24.0 27.2 L24.9 27.0 25.6 26.4 26.1 25.65 26.5 24.9 27.05 23.95 27.6 22.35 27.65 22.1 27.7 21.6 27.85 21.2 28.15 19.6 28.15 19.25 28.1 18.95 Q28.1 18.55 28.35 18.5 L28.75 18.4 M17.6 18.15 L18.15 18.25 18.65 18.35 19.0 18.45 19.2 18.7 19.05 19.25 18.55 19.75 18.2 19.65 Q17.9 19.35 17.4 19.2 L16.75 19.05 16.35 19.1 15.95 19.15 15.8 19.15 15.65 19.2 15.4 19.3 15.2 19.4 15.0 19.4 14.9 19.5 Q14.7 19.5 14.55 19.65 L14.4 19.65 Q12.75 21.35 12.75 23.3 12.75 24.4 13.4 25.3 14.1 26.25 15.25 26.7 L17.65 27.2 18.3 27.1 18.75 26.9 Q19.3 26.95 19.3 28.1 L18.95 28.4 18.2 28.3 16.35 28.1 15.1 27.8 13.9 27.3 12.9 26.6 12.25 25.7 11.8 24.7 Q11.65 24.2 11.65 23.6 11.65 22.9 12.05 21.85 L12.6 20.55 13.35 19.7 14.85 18.65 15.1 18.45 15.7 18.35 16.3 18.25 17.1 18.15 17.6 18.15" fill="#000000" fill-rule="evenodd" stroke="none"/>
    <path d="M29.65 18.4 L30.0 18.3 30.55 18.35 31.55 18.4 32.55 18.4 33.1 18.35 33.15 18.25 33.45 18.3 33.7 18.4 33.85 18.55 34.1 18.5 34.65 18.45 35.9 18.45 36.3 18.45 36.8 18.4 Q37.3 18.4 37.45 18.65 L37.25 19.35 37.0 19.4 36.4 19.35 36.0 19.35 35.85 19.35 35.0 19.2 33.8 19.25 33.6 20.75 33.55 22.35 33.6 23.05 33.5 23.5 33.45 23.95 33.45 24.5 33.5 25.95 33.5 26.2 33.55 26.55 33.65 27.15 33.75 27.4 33.4 27.7 33.2 27.9 33.1 27.8 32.8 27.95 32.7 27.8 32.5 27.85 32.35 27.85 32.15 27.85 32.25 27.25 32.2 26.9 32.25 26.75 Q32.45 26.2 32.45 24.3 L32.5 21.25 32.35 19.4 32.4 19.35 32.4 19.3 32.35 19.3 31.95 19.25 31.55 19.25 31.0 19.4 30.7 19.35 30.55 19.4 30.15 19.45 29.55 19.25 29.5 19.05 29.6 18.75 29.65 18.5 29.65 18.4 M28.75 18.4 L28.8 18.4 Q29.0 18.4 29.1 18.55 L29.15 18.65 29.2 18.65 29.45 18.9 29.3 19.35 29.3 19.45 28.9 21.1 28.35 23.05 27.8 24.45 27.4 25.2 27.35 25.35 26.8 26.2 25.8 27.25 Q24.9 28.0 24.6 28.0 L24.35 27.95 24.25 27.9 23.95 28.05 23.85 28.05 23.35 28.05 Q22.8 28.05 22.2 27.6 21.55 27.15 21.35 26.2 21.1 25.3 21.0 23.8 L20.85 21.65 20.7 20.35 20.6 19.8 20.5 19.8 20.4 19.15 20.45 18.9 20.55 18.7 20.8 18.6 21.1 18.5 21.3 18.4 21.4 18.35 21.6 18.45 21.85 18.7 22.0 19.1 21.95 19.35 21.9 19.8 21.9 20.55 22.0 23.3 22.15 24.75 22.4 25.8 Q22.55 26.4 22.85 26.7 L23.2 27.0 23.6 27.0 Q23.6 27.2 24.0 27.2 L24.9 27.0 25.6 26.4 26.1 25.65 26.5 24.9 27.05 23.95 27.6 22.35 27.65 22.1 27.7 21.6 27.85 21.2 28.15 19.6 28.15 19.25 28.1 18.95 Q28.1 18.55 28.35 18.5 L28.75 18.4 M17.6 18.15 L18.15 18.25 18.65 18.35 19.0 18.45 19.2 18.7 19.05 19.25 18.55 19.75 18.2 19.65 Q17.9 19.35 17.4 19.2 L16.75 19.05 16.35 19.1 15.95 19.15 15.8 19.15 15.65 19.2 15.4 19.3 15.2 19.4 15.0 19.4 14.9 19.5 Q14.7 19.5 14.55 19.65 L14.4 19.65 Q12.75 21.35 12.75 23.3 12.75 24.4 13.4 25.3 14.1 26.25 15.25 26.7 L17.65 27.2 18.3 27.1 18.75 26.9 Q19.3 26.95 19.3 28.1 L18.95 28.4 18.2 28.3 16.35 28.1 15.1 27.8 13.9 27.3 12.9 26.6 12.25 25.7 11.8 24.7 Q11.65 24.2 11.65 23.6 11.65 22.9 12.05 21.85 L12.6 20.55 13.35 19.7 14.85 18.65 15.1 18.45 15.7 18.35 16.3 18.25 17.1 18.15 17.6 18.15" fill="#000000" fill-rule="evenodd" stroke="none"/>
    <path d="M29.65 18.4 L30.0 18.3 30.55 18.35 31.55 18.4 32.55 18.4 33.1 18.35 33.15 18.25 33.45 18.3 33.7 18.4 33.85 18.55 34.1 18.5 34.65 18.45 35.9 18.45 36.3 18.45 36.8 18.4 Q37.3 18.4 37.45 18.65 L37.25 19.35 37.0 19.4 36.4 19.35 36.0 19.35 35.85 19.35 35.0 19.2 33.8 19.25 33.6 20.75 33.55 22.35 33.6 23.05 33.5 23.5 33.45 23.95 33.45 24.5 33.5 25.95 33.5 26.2 33.55 26.55 33.65 27.15 33.75 27.4 33.4 27.7 33.2 27.9 33.1 27.8 32.8 27.95 32.7 27.8 32.5 27.85 32.35 27.85 32.15 27.85 32.25 27.25 32.2 26.9 32.25 26.75 Q32.45 26.2 32.45 24.3 L32.5 21.25 32.35 19.4 32.4 19.35 32.4 19.3 32.35 19.3 31.95 19.25 31.55 19.25 31.0 19.4 30.7 19.35 30.55 19.4 30.15 19.45 29.55 19.25 29.5 19.05 29.6 18.75 29.65 18.5 29.65 18.4 M28.75 18.4 L28.8 18.4 Q29.0 18.4 29.1 18.55 L29.15 18.65 29.2 18.65 29.45 18.9 29.3 19.35 29.3 19.45 28.9 21.1 28.35 23.05 27.8 24.45 27.4 25.2 27.35 25.35 26.8 26.2 25.8 27.25 Q24.9 28.0 24.6 28.0 L24.35 27.95 24.25 27.9 23.95 28.05 23.85 28.05 23.35 28.05 Q22.8 28.05 22.2 27.6 21.55 27.15 21.35 26.2 21.1 25.3 21.0 23.8 L20.85 21.65 20.7 20.35 20.6 19.8 20.5 19.8 20.4 19.15 20.45 18.9 20.55 18.7 20.8 18.6 21.1 18.5 21.3 18.4 21.4 18.35 21.6 18.45 21.85 18.7 22.0 19.1 21.95 19.35 21.9 19.8 21.9 20.55 22.0 23.3 22.15 24.75 22.4 25.8 Q22.55 26.4 22.85 26.7 L23.2 27.0 23.6 27.0 Q23.6 27.2 24.0 27.2 L24.9 27.0 25.6 26.4 26.1 25.65 26.5 24.9 27.05 23.95 27.6 22.35 27.65 22.1 27.7 21.6 27.85 21.2 28.15 19.6 28.15 19.25 28.1 18.95 Q28.1 18.55 28.35 18.5 L28.75 18.4 M17.6 18.15 L18.15 18.25 18.65 18.35 19.0 18.45 19.2 18.7 19.05 19.25 18.55 19.75 18.2 19.65 Q17.9 19.35 17.4 19.2 L16.75 19.05 16.35 19.1 15.95 19.15 15.8 19.15 15.65 19.2 15.4 19.3 15.2 19.4 15.0 19.4 14.9 19.5 Q14.7 19.5 14.55 19.65 L14.4 19.65 Q12.75 21.35 12.75 23.3 12.75 24.4 13.4 25.3 14.1 26.25 15.25 26.7 L17.65 27.2 18.3 27.1 18.75 26.9 Q19.3 26.95 19.3 28.1 L18.95 28.4 18.2 28.3 16.35 28.1 15.1 27.8 13.9 27.3 12.9 26.6 12.25 25.7 11.8 24.7 Q11.65 24.2 11.65 23.6 11.65 22.9 12.05 21.85 L12.6 20.55 13.35 19.7 14.85 18.65 15.1 18.45 15.7 18.35 16.3 18.25 17.1 18.15 17.6 18.15" fill="#000000" fill-rule="evenodd" stroke="none"/>
    <path d="M29.65 18.4 L30.0 18.3 30.55 18.35 31.55 18.4 32.55 18.4 33.1 18.35 33.15 18.25 33.45 18.3 33.7 18.4 33.85 18.55 34.1 18.5 34.65 18.45 35.9 18.45 36.3 18.45 36.8 18.4 Q37.3 18.4 37.45 18.65 L37.25 19.35 37.0 19.4 36.4 19.35 36.0 19.35 35.85 19.35 35.0 19.2 33.8 19.25 33.6 20.75 33.55 22.35 33.6 23.05 33.5 23.5 33.45 23.95 33.45 24.5 33.5 25.95 33.5 26.2 33.55 26.55 33.65 27.15 33.75 27.4 33.4 27.7 33.2 27.9 33.1 27.8 32.8 27.95 32.7 27.8 32.5 27.85 32.35 27.85 32.15 27.85 32.25 27.25 32.2 26.9 32.25 26.75 Q32.45 26.2 32.45 24.3 L32.5 21.25 32.35 19.4 32.4 19.35 32.4 19.3 32.35 19.3 31.95 19.25 31.55 19.25 31.0 19.4 30.7 19.35 30.55 19.4 30.15 19.45 29.55 19.25 29.5 19.05 29.6 18.75 29.65 18.5 29.65 18.4 M28.75 18.4 L28.8 18.4 Q29.0 18.4 29.1 18.55 L29.15 18.65 29.2 18.65 29.45 18.9 29.3 19.35 29.3 19.45 28.9 21.1 28.35 23.05 27.8 24.45 27.4 25.2 27.35 25.35 26.8 26.2 25.8 27.25 Q24.9 28.0 24.6 28.0 L24.35 27.95 24.25 27.9 23.95 28.05 23.85 28.05 23.35 28.05 Q22.8 28.05 22.2 27.6 21.55 27.15 21.35 26.2 21.1 25.3 21.0 23.8 L20.85 21.65 20.7 20.35 20.6 19.8 20.5 19.8 20.4 19.15 20.45 18.9 20.55 18.7 20.8 18.6 21.1 18.5 21.3 18.4 21.4 18.35 21.6 18.45 21.85 18.7 22.0 19.1 21.95 19.35 21.9 19.8 21.9 20.55 22.0 23.3 22.15 24.75 22.4 25.8 Q22.55 26.4 22.85 26.7 L23.2 27.0 23.6 27.0 Q23.6 27.2 24.0 27.2 L24.9 27.0 25.6 26.4 26.1 25.65 26.5 24.9 27.05 23.95 27.6 22.35 27.65 22.1 27.7 21.6 27.85 21.2 28.15 19.6 28.15 19.25 28.1 18.95 Q28.1 18.55 28.35 18.5 L28.75 18.4 M17.6 18.15 L18.15 18.25 18.65 18.35 19.0 18.45 19.2 18.7 19.05 19.25 18.55 19.75 18.2 19.65 Q17.9 19.35 17.4 19.2 L16.75 19.05 16.35 19.1 15.95 19.15 15.8 19.15 15.65 19.2 15.4 19.3 15.2 19.4 15.0 19.4 14.9 19.5 Q14.7 19.5 14.55 19.65 L14.4 19.65 Q12.75 21.35 12.75 23.3 12.75 24.4 13.4 25.3 14.1 26.25 15.25 26.7 L17.65 27.2 18.3 27.1 18.75 26.9 Q19.3 26.95 19.3 28.1 L18.95 28.4 18.2 28.3 16.35 28.1 15.1 27.8 13.9 27.3 12.9 26.6 12.25 25.7 11.8 24.7 Q11.65 24.2 11.65 23.6 11.65 22.9 12.05 21.85 L12.6 20.55 13.35 19.7 14.85 18.65 15.1 18.45 15.7 18.35 16.3 18.25 17.1 18.15 17.6 18.15" fill="#000000" fill-rule="evenodd" stroke="none"/>
    <path d="M29.65 18.4 L30.0 18.3 30.55 18.35 31.55 18.4 32.55 18.4 33.1 18.35 33.15 18.25 33.45 18.3 33.7 18.4 33.85 18.55 34.1 18.5 34.65 18.45 35.9 18.45 36.3 18.45 36.8 18.4 Q37.3 18.4 37.45 18.65 L37.25 19.35 37.0 19.4 36.4 19.35 36.0 19.35 35.85 19.35 35.0 19.2 33.8 19.25 33.6 20.75 33.55 22.35 33.6 23.05 33.5 23.5 33.45 23.95 33.45 24.5 33.5 25.95 33.5 26.2 33.55 26.55 33.65 27.15 33.75 27.4 33.4 27.7 33.2 27.9 33.1 27.8 32.8 27.95 32.7 27.8 32.5 27.85 32.35 27.85 32.15 27.85 32.25 27.25 32.2 26.9 32.25 26.75 Q32.45 26.2 32.45 24.3 L32.5 21.25 32.35 19.4 32.4 19.35 32.4 19.3 32.35 19.3 31.95 19.25 31.55 19.25 31.0 19.4 30.7 19.35 30.55 19.4 30.15 19.45 29.55 19.25 29.5 19.05 29.6 18.75 29.65 18.5 29.65 18.4 M28.75 18.4 L28.8 18.4 Q29.0 18.4 29.1 18.55 L29.15 18.65 29.2 18.65 29.45 18.9 29.3 19.35 29.3 19.45 28.9 21.1 28.35 23.05 27.8 24.45 27.4 25.2 27.35 25.35 26.8 26.2 25.8 27.25 Q24.9 28.0 24.6 28.0 L24.35 27.95 24.25 27.9 23.95 28.05 23.85 28.05 23.35 28.05 Q22.8 28.05 22.2 27.6 21.55 27.15 21.35 26.2 21.1 25.3 21.0 23.8 L20.85 21.65 20.7 20.35 20.6 19.8 20.5 19.8 20.4 19.15 20.45 18.9 20.55 18.7 20.8 18.6 21.1 18.5 21.3 18.4 21.4 18.35 21.6 18.45 21.85 18.7 22.0 19.1 21.95 19.35 21.9 19.8 21.9 20.55 22.0 23.3 22.15 24.75 22.4 25.8 Q22.55 26.4 22.85 26.7 L23.2 27.0 23.6 27.0 Q23.6 27.2 24.0 27.2 L24.9 27.0 25.6 26.4 26.1 25.65 26.5 24.9 27.05 23.95 27.6 22.35 27.65 22.1 27.7 21.6 27.85 21.2 28.15 19.6 28.15 19.25 28.1 18.95 Q28.1 18.55 28.35 18.5 L28.75 18.4 M17.6 18.15 L18.15 18.25 18.65 18.35 19.0 18.45 19.2 18.7 19.05 19.25 18.55 19.75 18.2 19.65 Q17.9 19.35 17.4 19.2 L16.75 19.05 16.35 19.1 15.95 19.15 15.8 19.15 15.65 19.2 15.4 19.3 15.2 19.4 15.0 19.4 14.9 19.5 Q14.7 19.5 14.55 19.65 L14.4 19.65 Q12.75 21.35 12.75 23.3 12.75 24.4 13.4 25.3 14.1 26.25 15.25 26.7 L17.65 27.2 18.3 27.1 18.75 26.9 Q19.3 26.95 19.3 28.1 L18.95 28.4 18.2 28.3 16.35 28.1 15.1 27.8 13.9 27.3 12.9 26.6 12.25 25.7 11.8 24.7 Q11.65 24.2 11.65 23.6 11.65 22.9 12.05 21.85 L12.6 20.55 13.35 19.7 14.85 18.65 15.1 18.45 15.7 18.35 16.3 18.25 17.1 18.15 17.6 18.15" fill="#000000" fill-rule="evenodd" stroke="none"/>
    <path d="M29.65 18.4 L30.0 18.3 30.55 18.35 31.55 18.4 32.55 18.4 33.1 18.35 33.15 18.25 33.45 18.3 33.7 18.4 33.85 18.55 34.1 18.5 34.65 18.45 35.9 18.45 36.3 18.45 36.8 18.4 Q37.3 18.4 37.45 18.65 L37.25 19.35 37.0 19.4 36.4 19.35 36.0 19.35 35.85 19.35 35.0 19.2 33.8 19.25 33.6 20.75 33.55 22.35 33.6 23.05 33.5 23.5 33.45 23.95 33.45 24.5 33.5 25.95 33.5 26.2 33.55 26.55 33.65 27.15 33.75 27.4 33.4 27.7 33.2 27.9 33.1 27.8 32.8 27.95 32.7 27.8 32.5 27.85 32.35 27.85 32.15 27.85 32.25 27.25 32.2 26.9 32.25 26.75 Q32.45 26.2 32.45 24.3 L32.5 21.25 32.35 19.4 32.4 19.35 32.4 19.3 32.35 19.3 31.95 19.25 31.55 19.25 31.0 19.4 30.7 19.35 30.55 19.4 30.15 19.45 29.55 19.25 29.5 19.05 29.6 18.75 29.65 18.5 29.65 18.4 M28.75 18.4 L28.8 18.4 Q29.0 18.4 29.1 18.55 L29.15 18.65 29.2 18.65 29.45 18.9 29.3 19.35 29.3 19.45 28.9 21.1 28.35 23.05 27.8 24.45 27.4 25.2 27.35 25.35 26.8 26.2 25.8 27.25 Q24.9 28.0 24.6 28.0 L24.35 27.95 24.25 27.9 23.95 28.05 23.85 28.05 23.35 28.05 Q22.8 28.05 22.2 27.6 21.55 27.15 21.35 26.2 21.1 25.3 21.0 23.8 L20.85 21.65 20.7 20.35 20.6 19.8 20.5 19.8 20.4 19.15 20.45 18.9 20.55 18.7 20.8 18.6 21.1 18.5 21.3 18.4 21.4 18.35 21.6 18.45 21.85 18.7 22.0 19.1 21.95 19.35 21.9 19.8 21.9 20.55 22.0 23.3 22.15 24.75 22.4 25.8 Q22.55 26.4 22.85 26.7 L23.2 27.0 23.6 27.0 Q23.6 27.2 24.0 27.2 L24.9 27.0 25.6 26.4 26.1 25.65 26.5 24.9 27.05 23.95 27.6 22.35 27.65 22.1 27.7 21.6 27.85 21.2 28.15 19.6 28.15 19.25 28.1 18.95 Q28.1 18.55 28.35 18.5 L28.75 18.4 M17.6 18.15 L18.15 18.25 18.65 18.35 19.0 18.45 19.2 18.7 19.05 19.25 18.55 19.75 18.2 19.65 Q17.9 19.35 17.4 19.2 L16.75 19.05 16.35 19.1 15.95 19.15 15.8 19.15 15.65 19.2 15.4 19.3 15.2 19.4 15.0 19.4 14.9 19.5 Q14.7 19.5 14.55 19.65 L14.4 19.65 Q12.75 21.35 12.75 23.3 12.75 24.4 13.4 25.3 14.1 26.25 15.25 26.7 L17.65 27.2 18.3 27.1 18.75 26.9 Q19.3 26.95 19.3 28.1 L18.95 28.4 18.2 28.3 16.35 28.1 15.1 27.8 13.9 27.3 12.9 26.6 12.25 25.7 11.8 24.7 Q11.65 24.2 11.65 23.6 11.65 22.9 12.05 21.85 L12.6 20.55 13.35 19.7 14.85 18.65 15.1 18.45 15.7 18.35 16.3 18.25 17.1 18.15 17.6 18.15" fill="#000000" fill-rule="evenodd" stroke="none"/>
    <path d="M29.65 18.4 L30.0 18.3 30.55 18.35 31.55 18.4 32.55 18.4 33.1 18.35 33.15 18.25 33.45 18.3 33.7 18.4 33.85 18.55 34.1 18.5 34.65 18.45 35.9 18.45 36.3 18.45 36.8 18.4 Q37.3 18.4 37.45 18.65 L37.25 19.35 37.0 19.4 36.4 19.35 36.0 19.35 35.85 19.35 35.0 19.2 33.8 19.25 33.6 20.75 33.55 22.35 33.6 23.05 33.5 23.5 33.45 23.95 33.45 24.5 33.5 25.95 33.5 26.2 33.55 26.55 33.65 27.15 33.75 27.4 33.4 27.7 33.2 27.9 33.1 27.8 32.8 27.95 32.7 27.8 32.5 27.85 32.35 27.85 32.15 27.85 32.25 27.25 32.2 26.9 32.25 26.75 Q32.45 26.2 32.45 24.3 L32.5 21.25 32.35 19.4 32.4 19.35 32.4 19.3 32.35 19.3 31.95 19.25 31.55 19.25 31.0 19.4 30.7 19.35 30.55 19.4 30.15 19.45 29.55 19.25 29.5 19.05 29.6 18.75 29.65 18.5 29.65 18.4 M28.75 18.4 L28.8 18.4 Q29.0 18.4 29.1 18.55 L29.15 18.65 29.2 18.65 29.45 18.9 29.3 19.35 29.3 19.45 28.9 21.1 28.35 23.05 27.8 24.45 27.4 25.2 27.35 25.35 26.8 26.2 25.8 27.25 Q24.9 28.0 24.6 28.0 L24.35 27.95 24.25 27.9 23.95 28.05 23.85 28.05 23.35 28.05 Q22.8 28.05 22.2 27.6 21.55 27.15 21.35 26.2 21.1 25.3 21.0 23.8 L20.85 21.65 20.7 20.35 20.6 19.8 20.5 19.8 20.4 19.15 20.45 18.9 20.55 18.7 20.8 18.6 21.1 18.5 21.3 18.4 21.4 18.35 21.6 18.45 21.85 18.7 22.0 19.1 21.95 19.35 21.9 19.8 21.9 20.55 22.0 23.3 22.15 24.75 22.4 25.8 Q22.55 26.4 22.85 26.7 L23.2 27.0 23.6 27.0 Q23.6 27.2 24.0 27.2 L24.9 27.0 25.6 26.4 26.1 25.65 26.5 24.9 27.05 23.95 27.6 22.35 27.65 22.1 27.7 21.6 27.85 21.2 28.15 19.6 28.15 19.25 28.1 18.95 Q28.1 18.55 28.35 18.5 L28.75 18.4 M17.6 18.15 L18.15 18.25 18.65 18.35 19.0 18.45 19.2 18.7 19.05 19.25 18.55 19.75 18.2 19.65 Q17.9 19.35 17.4 19.2 L16.75 19.05 16.35 19.1 15.95 19.15 15.8 19.15 15.65 19.2 15.4 19.3 15.2 19.4 15.0 19.4 14.9 19.5 Q14.7 19.5 14.55 19.65 L14.4 19.65 Q12.75 21.35 12.75 23.3 12.75 24.4 13.4 25.3 14.1 26.25 15.25 26.7 L17.65 27.2 18.3 27.1 18.75 26.9 Q19.3 26.95 19.3 28.1 L18.95 28.4 18.2 28.3 16.35 28.1 15.1 27.8 13.9 27.3 12.9 26.6 12.25 25.7 11.8 24.7 Q11.65 24.2 11.65 23.6 11.65 22.9 12.05 21.85 L12.6 20.55 13.35 19.7 14.85 18.65 15.1 18.45 15.7 18.35 16.3 18.25 17.1 18.15 17.6 18.15" fill="#000000" fill-rule="evenodd" stroke="none"/>
    <path d="M29.65 18.4 L30.0 18.3 30.55 18.35 31.55 18.4 32.55 18.4 33.1 18.35 33.15 18.25 33.45 18.3 33.7 18.4 33.85 18.55 34.1 18.5 34.65 18.45 35.9 18.45 36.3 18.45 36.8 18.4 Q37.3 18.4 37.45 18.65 L37.25 19.35 37.0 19.4 36.4 19.35 36.0 19.35 35.85 19.35 35.0 19.2 33.8 19.25 33.6 20.75 33.55 22.35 33.6 23.05 33.5 23.5 33.45 23.95 33.45 24.5 33.5 25.95 33.5 26.2 33.55 26.55 33.65 27.15 33.75 27.4 33.4 27.7 33.2 27.9 33.1 27.8 32.8 27.95 32.7 27.8 32.5 27.85 32.35 27.85 32.15 27.85 32.25 27.25 32.2 26.9 32.25 26.75 Q32.45 26.2 32.45 24.3 L32.5 21.25 32.35 19.4 32.4 19.35 32.4 19.3 32.35 19.3 31.95 19.25 31.55 19.25 31.0 19.4 30.7 19.35 30.55 19.4 30.15 19.45 29.55 19.25 29.5 19.05 29.6 18.75 29.65 18.5 29.65 18.4 M28.75 18.4 L28.8 18.4 Q29.0 18.4 29.1 18.55 L29.15 18.65 29.2 18.65 29.45 18.9 29.3 19.35 29.3 19.45 28.9 21.1 28.35 23.05 27.8 24.45 27.4 25.2 27.35 25.35 26.8 26.2 25.8 27.25 Q24.9 28.0 24.6 28.0 L24.35 27.95 24.25 27.9 23.95 28.05 23.85 28.05 23.35 28.05 Q22.8 28.05 22.2 27.6 21.55 27.15 21.35 26.2 21.1 25.3 21.0 23.8 L20.85 21.65 20.7 20.35 20.6 19.8 20.5 19.8 20.4 19.15 20.45 18.9 20.55 18.7 20.8 18.6 21.1 18.5 21.3 18.4 21.4 18.35 21.6 18.45 21.85 18.7 22.0 19.1 21.95 19.35 21.9 19.8 21.9 20.55 22.0 23.3 22.15 24.75 22.4 25.8 Q22.55 26.4 22.85 26.7 L23.2 27.0 23.6 27.0 Q23.6 27.2 24.0 27.2 L24.9 27.0 25.6 26.4 26.1 25.65 26.5 24.9 27.05 23.95 27.6 22.35 27.65 22.1 27.7 21.6 27.85 21.2 28.15 19.6 28.15 19.25 28.1 18.95 Q28.1 18.55 28.35 18.5 L28.75 18.4 M17.6 18.15 L18.15 18.25 18.65 18.35 19.0 18.45 19.2 18.7 19.05 19.25 18.55 19.75 18.2 19.65 Q17.9 19.35 17.4 19.2 L16.75 19.05 16.35 19.1 15.95 19.15 15.8 19.15 15.65 19.2 15.4 19.3 15.2 19.4 15.0 19.4 14.9 19.5 Q14.7 19.5 14.55 19.65 L14.4 19.65 Q12.75 21.35 12.75 23.3 12.75 24.4 13.4 25.3 14.1 26.25 15.25 26.7 L17.65 27.2 18.3 27.1 18.75 26.9 Q19.3 26.95 19.3 28.1 L18.95 28.4 18.2 28.3 16.35 28.1 15.1 27.8 13.9 27.3 12.9 26.6 12.25 25.7 11.8 24.7 Q11.65 24.2 11.65 23.6 11.65 22.9 12.05 21.85 L12.6 20.55 13.35 19.7 14.85 18.65 15.1 18.45 15.7 18.35 16.3 18.25 17.1 18.15 17.6 18.15" fill="#000000" fill-rule="evenodd" stroke="none"/>
    <path d="M29.65 18.4 L30.0 18.3 30.55 18.35 31.55 18.4 32.55 18.4 33.1 18.35 33.15 18.25 33.45 18.3 33.7 18.4 33.85 18.55 34.1 18.5 34.65 18.45 35.9 18.45 36.3 18.45 36.8 18.4 Q37.3 18.4 37.45 18.65 L37.25 19.35 37.0 19.4 36.4 19.35 36.0 19.35 35.85 19.35 35.0 19.2 33.8 19.25 33.6 20.75 33.55 22.35 33.6 23.05 33.5 23.5 33.45 23.95 33.45 24.5 33.5 25.95 33.5 26.2 33.55 26.55 33.65 27.15 33.75 27.4 33.4 27.7 33.2 27.9 33.1 27.8 32.8 27.95 32.7 27.8 32.5 27.85 32.35 27.85 32.15 27.85 32.25 27.25 32.2 26.9 32.25 26.75 Q32.45 26.2 32.45 24.3 L32.5 21.25 32.35 19.4 32.4 19.35 32.4 19.3 32.35 19.3 31.95 19.25 31.55 19.25 31.0 19.4 30.7 19.35 30.55 19.4 30.15 19.45 29.55 19.25 29.5 19.05 29.6 18.75 29.65 18.5 29.65 18.4 M28.75 18.4 L28.8 18.4 Q29.0 18.4 29.1 18.55 L29.15 18.65 29.2 18.65 29.45 18.9 29.3 19.35 29.3 19.45 28.9 21.1 28.35 23.05 27.8 24.45 27.4 25.2 27.35 25.35 26.8 26.2 25.8 27.25 Q24.9 28.0 24.6 28.0 L24.35 27.95 24.25 27.9 23.95 28.05 23.85 28.05 23.35 28.05 Q22.8 28.05 22.2 27.6 21.55 27.15 21.35 26.2 21.1 25.3 21.0 23.8 L20.85 21.65 20.7 20.35 20.6 19.8 20.5 19.8 20.4 19.15 20.45 18.9 20.55 18.7 20.8 18.6 21.1 18.5 21.3 18.4 21.4 18.35 21.6 18.45 21.85 18.7 22.0 19.1 21.95 19.35 21.9 19.8 21.9 20.55 22.0 23.3 22.15 24.75 22.4 25.8 Q22.55 26.4 22.85 26.7 L23.2 27.0 23.6 27.0 Q23.6 27.2 24.0 27.2 L24.9 27.0 25.6 26.4 26.1 25.65 26.5 24.9 27.05 23.95 27.6 22.35 27.65 22.1 27.7 21.6 27.85 21.2 28.15 19.6 28.15 19.25 28.1 18.95 Q28.1 18.55 28.35 18.5 L28.75 18.4 M17.6 18.15 L18.15 18.25 18.65 18.35 19.0 18.45 19.2 18.7 19.05 19.25 18.55 19.75 18.2 19.65 Q17.9 19.35 17.4 19.2 L16.75 19.05 16.35 19.1 15.95 19.15 15.8 19.15 15.65 19.2 15.4 19.3 15.2 19.4 15.0 19.4 14.9 19.5 Q14.7 19.5 14.55 19.65 L14.4 19.65 Q12.75 21.35 12.75 23.3 12.75 24.4 13.4 25.3 14.1 26.25 15.25 26.7 L17.65 27.2 18.3 27.1 18.75 26.9 Q19.3 26.95 19.3 28.1 L18.95 28.4 18.2 28.3 16.35 28.1 15.1 27.8 13.9 27.3 12.9 26.6 12.25 25.7 11.8 24.7 Q11.65 24.2 11.65 23.6 11.65 22.9 12.05 21.85 L12.6 20.55 13.35 19.7 14.85 18.65 15.1 18.45 15.7 18.35 16.3 18.25 17.1 18.15 17.6 18.15" fill="#000000" fill-rule="evenodd" stroke="none"/>
    <path d="M29.65 18.4 L30.0 18.3 30.55 18.35 31.55 18.4 32.55 18.4 33.1 18.35 33.15 18.25 33.45 18.3 33.7 18.4 33.85 18.55 34.1 18.5 34.65 18.45 35.9 18.45 36.3 18.45 36.8 18.4 Q37.3 18.4 37.45 18.65 L37.25 19.35 37.0 19.4 36.4 19.35 36.0 19.35 35.85 19.35 35.0 19.2 33.8 19.25 33.6 20.75 33.55 22.35 33.6 23.05 33.5 23.5 33.45 23.95 33.45 24.5 33.5 25.95 33.5 26.2 33.55 26.55 33.65 27.15 33.75 27.4 33.4 27.7 33.2 27.9 33.1 27.8 32.8 27.95 32.7 27.8 32.5 27.85 32.35 27.85 32.15 27.85 32.25 27.25 32.2 26.9 32.25 26.75 Q32.45 26.2 32.45 24.3 L32.5 21.25 32.35 19.4 32.4 19.35 32.4 19.3 32.35 19.3 31.95 19.25 31.55 19.25 31.0 19.4 30.7 19.35 30.55 19.4 30.15 19.45 29.55 19.25 29.5 19.05 29.6 18.75 29.65 18.5 29.65 18.4 M28.75 18.4 L28.8 18.4 Q29.0 18.4 29.1 18.55 L29.15 18.65 29.2 18.65 29.45 18.9 29.3 19.35 29.3 19.45 28.9 21.1 28.35 23.05 27.8 24.45 27.4 25.2 27.35 25.35 26.8 26.2 25.8 27.25 Q24.9 28.0 24.6 28.0 L24.35 27.95 24.25 27.9 23.95 28.05 23.85 28.05 23.35 28.05 Q22.8 28.05 22.2 27.6 21.55 27.15 21.35 26.2 21.1 25.3 21.0 23.8 L20.85 21.65 20.7 20.35 20.6 19.8 20.5 19.8 20.4 19.15 20.45 18.9 20.55 18.7 20.8 18.6 21.1 18.5 21.3 18.4 21.4 18.35 21.6 18.45 21.85 18.7 22.0 19.1 21.95 19.35 21.9 19.8 21.9 20.55 22.0 23.3 22.15 24.75 22.4 25.8 Q22.55 26.4 22.85 26.7 L23.2 27.0 23.6 27.0 Q23.6 27.2 24.0 27.2 L24.9 27.0 25.6 26.4 26.1 25.65 26.5 24.9 27.05 23.95 27.6 22.35 27.65 22.1 27.7 21.6 27.85 21.2 28.15 19.6 28.15 19.25 28.1 18.95 Q28.1 18.55 28.35 18.5 L28.75 18.4 M17.6 18.15 L18.15 18.25 18.65 18.35 19.0 18.45 19.2 18.7 19.05 19.25 18.55 19.75 18.2 19.65 Q17.9 19.35 17.4 19.2 L16.75 19.05 16.35 19.1 15.95 19.15 15.8 19.15 15.65 19.2 15.4 19.3 15.2 19.4 15.0 19.4 14.9 19.5 Q14.7 19.5 14.55 19.65 L14.4 19.65 Q12.75 21.35 12.75 23.3 12.75 24.4 13.4 25.3 14.1 26.25 15.25 26.7 L17.65 27.2 18.3 27.1 18.75 26.9 Q19.3 26.95 19.3 28.1 L18.95 28.4 18.2 28.3 16.35 28.1 15.1 27.8 13.9 27.3 12.9 26.6 12.25 25.7 11.8 24.7 Q11.65 24.2 11.65 23.6 11.65 22.9 12.05 21.85 L12.6 20.55 13.35 19.7 14.85 18.65 15.1 18.45 15.7 18.35 16.3 18.25 17.1 18.15 17.6 18.15" fill="#000000" fill-rule="evenodd" stroke="none"/>
    <path d="M29.65 18.4 L30.0 18.3 30.55 18.35 31.55 18.4 32.55 18.4 33.1 18.35 33.15 18.25 33.45 18.3 33.7 18.4 33.85 18.55 34.1 18.5 34.65 18.45 35.9 18.45 36.3 18.45 36.8 18.4 Q37.3 18.4 37.45 18.65 L37.25 19.35 37.0 19.4 36.4 19.35 36.0 19.35 35.85 19.35 35.0 19.2 33.8 19.25 33.6 20.75 33.55 22.35 33.6 23.05 33.5 23.5 33.45 23.95 33.45 24.5 33.5 25.95 33.5 26.2 33.55 26.55 33.65 27.15 33.75 27.4 33.4 27.7 33.2 27.9 33.1 27.8 32.8 27.95 32.7 27.8 32.5 27.85 32.35 27.85 32.15 27.85 32.25 27.25 32.2 26.9 32.25 26.75 Q32.45 26.2 32.45 24.3 L32.5 21.25 32.35 19.4 32.4 19.35 32.4 19.3 32.35 19.3 31.95 19.25 31.55 19.25 31.0 19.4 30.7 19.35 30.55 19.4 30.15 19.45 29.55 19.25 29.5 19.05 29.6 18.75 29.65 18.5 29.65 18.4 M28.75 18.4 L28.8 18.4 Q29.0 18.4 29.1 18.55 L29.15 18.65 29.2 18.65 29.45 18.9 29.3 19.35 29.3 19.45 28.9 21.1 28.35 23.05 27.8 24.45 27.4 25.2 27.35 25.35 26.8 26.2 25.8 27.25 Q24.9 28.0 24.6 28.0 L24.35 27.95 24.25 27.9 23.95 28.05 23.85 28.05 23.35 28.05 Q22.8 28.05 22.2 27.6 21.55 27.15 21.35 26.2 21.1 25.3 21.0 23.8 L20.85 21.65 20.7 20.35 20.6 19.8 20.5 19.8 20.4 19.15 20.45 18.9 20.55 18.7 20.8 18.6 21.1 18.5 21.3 18.4 21.4 18.35 21.6 18.45 21.85 18.7 22.0 19.1 21.95 19.35 21.9 19.8 21.9 20.55 22.0 23.3 22.15 24.75 22.4 25.8 Q22.55 26.4 22.85 26.7 L23.2 27.0 23.6 27.0 Q23.6 27.2 24.0 27.2 L24.9 27.0 25.6 26.4 26.1 25.65 26.5 24.9 27.05 23.95 27.6 22.35 27.65 22.1 27.7 21.6 27.85 21.2 28.15 19.6 28.15 19.25 28.1 18.95 Q28.1 18.55 28.35 18.5 L28.75 18.4 M17.6 18.15 L18.15 18.25 18.65 18.35 19.0 18.45 19.2 18.7 19.05 19.25 18.55 19.75 18.2 19.65 Q17.9 19.35 17.4 19.2 L16.75 19.05 16.35 19.1 15.95 19.15 15.8 19.15 15.65 19.2 15.4 19.3 15.2 19.4 15.0 19.4 14.9 19.5 Q14.7 19.5 14.55 19.65 L14.4 19.65 Q12.75 21.35 12.75 23.3 12.75 24.4 13.4 25.3 14.1 26.25 15.25 26.7 L17.65 27.2 18.3 27.1 18.75 26.9 Q19.3 26.95 19.3 28.1 L18.95 28.4 18.2 28.3 16.35 28.1 15.1 27.8 13.9 27.3 12.9 26.6 12.25 25.7 11.8 24.7 Q11.65 24.2 11.65 23.6 11.65 22.9 12.05 21.85 L12.6 20.55 13.35 19.7 14.85 18.65 15.1 18.45 15.7 18.35 16.3 18.25 17.1 18.15 17.6 18.15" fill="#000000" fill-rule="evenodd" stroke="none"/>
    <path d="M29.65 18.4 L30.0 18.3 30.55 18.35 31.55 18.4 32.55 18.4 33.1 18.35 33.15 18.25 33.45 18.3 33.7 18.4 33.85 18.55 34.1 18.5 34.65 18.45 35.9 18.45 36.3 18.45 36.8 18.4 Q37.3 18.4 37.45 18.65 L37.25 19.35 37.0 19.4 36.4 19.35 36.0 19.35 35.85 19.35 35.0 19.2 33.8 19.25 33.6 20.75 33.55 22.35 33.6 23.05 33.5 23.5 33.45 23.95 33.45 24.5 33.5 25.95 33.5 26.2 33.55 26.55 33.65 27.15 33.75 27.4 33.4 27.7 33.2 27.9 33.1 27.8 32.8 27.95 32.7 27.8 32.5 27.85 32.35 27.85 32.15 27.85 32.25 27.25 32.2 26.9 32.25 26.75 Q32.45 26.2 32.45 24.3 L32.5 21.25 32.35 19.4 32.4 19.35 32.4 19.3 32.35 19.3 31.95 19.25 31.55 19.25 31.0 19.4 30.7 19.35 30.55 19.4 30.15 19.45 29.55 19.25 29.5 19.05 29.6 18.75 29.65 18.5 29.65 18.4 M28.75 18.4 L28.8 18.4 Q29.0 18.4 29.1 18.55 L29.15 18.65 29.2 18.65 29.45 18.9 29.3 19.35 29.3 19.45 28.9 21.1 28.35 23.05 27.8 24.45 27.4 25.2 27.35 25.35 26.8 26.2 25.8 27.25 Q24.9 28.0 24.6 28.0 L24.35 27.95 24.25 27.9 23.95 28.05 23.85 28.05 23.35 28.05 Q22.8 28.05 22.2 27.6 21.55 27.15 21.35 26.2 21.1 25.3 21.0 23.8 L20.85 21.65 20.7 20.35 20.6 19.8 20.5 19.8 20.4 19.15 20.45 18.9 20.55 18.7 20.8 18.6 21.1 18.5 21.3 18.4 21.4 18.35 21.6 18.45 21.85 18.7 22.0 19.1 21.95 19.35 21.9 19.8 21.9 20.55 22.0 23.3 22.15 24.75 22.4 25.8 Q22.55 26.4 22.85 26.7 L23.2 27.0 23.6 27.0 Q23.6 27.2 24.0 27.2 L24.9 27.0 25.6 26.4 26.1 25.65 26.5 24.9 27.05 23.95 27.6 22.35 27.65 22.1 27.7 21.6 27.85 21.2 28.15 19.6 28.15 19.25 28.1 18.95 Q28.1 18.55 28.35 18.5 L28.75 18.4 M17.6 18.15 L18.15 18.25 18.65 18.35 19.0 18.45 19.2 18.7 19.05 19.25 18.55 19.75 18.2 19.65 Q17.9 19.35 17.4 19.2 L16.75 19.05 16.35 19.1 15.95 19.15 15.8 19.15 15.65 19.2 15.4 19.3 15.2 19.4 15.0 19.4 14.9 19.5 Q14.7 19.5 14.55 19.65 L14.4 19.65 Q12.75 21.35 12.75 23.3 12.75 24.4 13.4 25.3 14.1 26.25 15.25 26.7 L17.65 27.2 18.3 27.1 18.75 26.9 Q19.3 26.95 19.3 28.1 L18.95 28.4 18.2 28.3 16.35 28.1 15.1 27.8 13.9 27.3 12.9 26.6 12.25 25.7 11.8 24.7 Q11.65 24.2 11.65 23.6 11.65 22.9 12.05 21.85 L12.6 20.55 13.35 19.7 14.85 18.65 15.1 18.45 15.7 18.35 16.3 18.25 17.1 18.15 17.6 18.15" fill="#000000" fill-rule="evenodd" stroke="none"/>
    <path d="M29.65 18.4 L30.0 18.3 30.55 18.35 31.55 18.4 32.55 18.4 33.1 18.35 33.15 18.25 33.45 18.3 33.7 18.4 33.85 18.55 34.1 18.5 34.65 18.45 35.9 18.45 36.3 18.45 36.8 18.4 Q37.3 18.4 37.45 18.65 L37.25 19.35 37.0 19.4 36.4 19.35 36.0 19.35 35.85 19.35 35.0 19.2 33.8 19.25 33.6 20.75 33.55 22.35 33.6 23.05 33.5 23.5 33.45 23.95 33.45 24.5 33.5 25.95 33.5 26.2 33.55 26.55 33.65 27.15 33.75 27.4 33.4 27.7 33.2 27.9 33.1 27.8 32.8 27.95 32.7 27.8 32.5 27.85 32.35 27.85 32.15 27.85 32.25 27.25 32.2 26.9 32.25 26.75 Q32.45 26.2 32.45 24.3 L32.5 21.25 32.35 19.4 32.4 19.35 32.4 19.3 32.35 19.3 31.95 19.25 31.55 19.25 31.0 19.4 30.7 19.35 30.55 19.4 30.15 19.45 29.55 19.25 29.5 19.05 29.6 18.75 29.65 18.5 29.65 18.4 M28.75 18.4 L28.8 18.4 Q29.0 18.4 29.1 18.55 L29.15 18.65 29.2 18.65 29.45 18.9 29.3 19.35 29.3 19.45 28.9 21.1 28.35 23.05 27.8 24.45 27.4 25.2 27.35 25.35 26.8 26.2 25.8 27.25 Q24.9 28.0 24.6 28.0 L24.35 27.95 24.25 27.9 23.95 28.05 23.85 28.05 23.35 28.05 Q22.8 28.05 22.2 27.6 21.55 27.15 21.35 26.2 21.1 25.3 21.0 23.8 L20.85 21.65 20.7 20.35 20.6 19.8 20.5 19.8 20.4 19.15 20.45 18.9 20.55 18.7 20.8 18.6 21.1 18.5 21.3 18.4 21.4 18.35 21.6 18.45 21.85 18.7 22.0 19.1 21.95 19.35 21.9 19.8 21.9 20.55 22.0 23.3 22.15 24.75 22.4 25.8 Q22.55 26.4 22.85 26.7 L23.2 27.0 23.6 27.0 Q23.6 27.2 24.0 27.2 L24.9 27.0 25.6 26.4 26.1 25.65 26.5 24.9 27.05 23.95 27.6 22.35 27.65 22.1 27.7 21.6 27.85 21.2 28.15 19.6 28.15 19.25 28.1 18.95 Q28.1 18.55 28.35 18.5 L28.75 18.4 M17.6 18.15 L18.15 18.25 18.65 18.35 19.0 18.45 19.2 18.7 19.05 19.25 18.55 19.75 18.2 19.65 Q17.9 19.35 17.4 19.2 L16.75 19.05 16.35 19.1 15.95 19.15 15.8 19.15 15.65 19.2 15.4 19.3 15.2 19.4 15.0 19.4 14.9 19.5 Q14.7 19.5 14.55 19.65 L14.4 19.65 Q12.75 21.35 12.75 23.3 12.75 24.4 13.4 25.3 14.1 26.25 15.25 26.7 L17.65 27.2 18.3 27.1 18.75 26.9 Q19.3 26.95 19.3 28.1 L18.95 28.4 18.2 28.3 16.35 28.1 15.1 27.8 13.9 27.3 12.9 26.6 12.25 25.7 11.8 24.7 Q11.65 24.2 11.65 23.6 11.65 22.9 12.05 21.85 L12.6 20.55 13.35 19.7 14.85 18.65 15.1 18.45 15.7 18.35 16.3 18.25 17.1 18.15 17.6 18.15" fill="#000000" fill-rule="evenodd" stroke="none"/>
    <path d="M29.65 18.4 L30.0 18.3 30.55 18.35 31.55 18.4 32.55 18.4 33.1 18.35 33.15 18.25 33.45 18.3 33.7 18.4 33.85 18.55 34.1 18.5 34.65 18.45 35.9 18.45 36.3 18.45 36.8 18.4 Q37.3 18.4 37.45 18.65 L37.25 19.35 37.0 19.4 36.4 19.35 36.0 19.35 35.85 19.35 35.0 19.2 33.8 19.25 33.6 20.75 33.55 22.35 33.6 23.05 33.5 23.5 33.45 23.95 33.45 24.5 33.5 25.95 33.5 26.2 33.55 26.55 33.65 27.15 33.75 27.4 33.4 27.7 33.2 27.9 33.1 27.8 32.8 27.95 32.7 27.8 32.5 27.85 32.35 27.85 32.15 27.85 32.25 27.25 32.2 26.9 32.25 26.75 Q32.45 26.2 32.45 24.3 L32.5 21.25 32.35 19.4 32.4 19.35 32.4 19.3 32.35 19.3 31.95 19.25 31.55 19.25 31.0 19.4 30.7 19.35 30.55 19.4 30.15 19.45 29.55 19.25 29.5 19.05 29.6 18.75 29.65 18.5 29.65 18.4 M28.75 18.4 L28.8 18.4 Q29.0 18.4 29.1 18.55 L29.15 18.65 29.2 18.65 29.45 18.9 29.3 19.35 29.3 19.45 28.9 21.1 28.35 23.05 27.8 24.45 27.4 25.2 27.35 25.35 26.8 26.2 25.8 27.25 Q24.9 28.0 24.6 28.0 L24.35 27.95 24.25 27.9 23.95 28.05 23.85 28.05 23.35 28.05 Q22.8 28.05 22.2 27.6 21.55 27.15 21.35 26.2 21.1 25.3 21.0 23.8 L20.85 21.65 20.7 20.35 20.6 19.8 20.5 19.8 20.4 19.15 20.45 18.9 20.55 18.7 20.8 18.6 21.1 18.5 21.3 18.4 21.4 18.35 21.6 18.45 21.85 18.7 22.0 19.1 21.95 19.35 21.9 19.8 21.9 20.55 22.0 23.3 22.15 24.75 22.4 25.8 Q22.55 26.4 22.85 26.7 L23.2 27.0 23.6 27.0 Q23.6 27.2 24.0 27.2 L24.9 27.0 25.6 26.4 26.1 25.65 26.5 24.9 27.05 23.95 27.6 22.35 27.65 22.1 27.7 21.6 27.85 21.2 28.15 19.6 28.15 19.25 28.1 18.95 Q28.1 18.55 28.35 18.5 L28.75 18.4 M17.6 18.15 L18.15 18.25 18.65 18.35 19.0 18.45 19.2 18.7 19.05 19.25 18.55 19.75 18.2 19.65 Q17.9 19.35 17.4 19.2 L16.75 19.05 16.35 19.1 15.95 19.15 15.8 19.15 15.65 19.2 15.4 19.3 15.2 19.4 15.0 19.4 14.9 19.5 Q14.7 19.5 14.55 19.65 L14.4 19.65 Q12.75 21.35 12.75 23.3 12.75 24.4 13.4 25.3 14.1 26.25 15.25 26.7 L17.65 27.2 18.3 27.1 18.75 26.9 Q19.3 26.95 19.3 28.1 L18.95 28.4 18.2 28.3 16.35 28.1 15.1 27.8 13.9 27.3 12.9 26.6 12.25 25.7 11.8 24.7 Q11.65 24.2 11.65 23.6 11.65 22.9 12.05 21.85 L12.6 20.55 13.35 19.7 14.85 18.65 15.1 18.45 15.7 18.35 16.3 18.25 17.1 18.15 17.6 18.15" fill="#000000" fill-rule="evenodd" stroke="none"/>
  </g>
</svg>
